<svg width="492" height="520" viewBox="0 0 492 520" fill="none" xmlns="http://www.w3.org/2000/svg">
<g filter="url(#filter0_d_688_350)">
<path d="M108.127 98.2653C114.082 95.672 120.057 96.551 126.099 97.4209C139.279 98.9351 151.365 104.014 163.517 109.084C162.344 109.252 161.137 109.425 159.931 109.36C158.17 109.293 156.416 109.614 154.794 110.3C153.172 110.987 151.723 112.023 150.549 113.332C149.151 115.196 148.251 117.384 147.936 119.688C147.621 121.993 147.9 124.34 148.747 126.507C149.769 129.831 151.069 133.064 152.632 136.172C154.35 139.793 156.293 143.304 158.452 146.683C161.349 151.14 164.558 155.381 167.676 159.704C168.195 160.425 168.685 160.95 169.242 161.159C184.794 149.404 203.453 141.303 224.115 138.334C289.3 128.97 349.734 174.222 359.099 239.407C363.412 269.431 356.137 298.447 340.666 321.929C340.847 322.207 341.074 322.453 341.338 322.655C353.955 335.863 365.507 350.042 375.887 365.059C380.16 371.666 384.014 378.532 387.426 385.619C389.135 389.266 390.334 393.13 390.991 397.102C391.682 400.556 391.403 404.134 390.184 407.441C389.063 410.155 386.918 412.323 384.212 413.479C379.399 415.48 374.106 416.04 368.983 415.087C354.797 413.718 341.774 408.535 328.698 403.462C327.677 403.055 326.794 402.366 326.155 401.476C326.611 401.445 327.069 401.447 327.524 401.483C332.063 402.126 340.057 399.444 340.932 393.389C341.634 390.475 341.493 387.423 340.523 384.588C338.884 380.803 337.915 376.681 335.932 373.116C332.359 366.814 328.283 360.584 324.275 354.344C322.737 351.975 320.735 349.946 319.102 347.625C318.918 347.364 318.74 347.159 318.567 347.001C301.967 361.221 281.265 371.052 258.027 374.39C192.842 383.755 132.407 338.504 123.043 273.319C118.346 240.626 127.388 209.129 145.792 184.669C139.421 177.334 132.929 170.083 126.921 162.424C121.61 155.69 116.691 148.593 112.065 141.386C108.65 136.13 105.692 130.593 103.222 124.834C100.477 119.328 99.523 113.104 100.493 107.029C100.905 105.039 101.823 103.187 103.16 101.653C104.497 100.118 106.208 98.9517 108.127 98.2653Z" fill="#0F1B47"/>
</g>
<defs>
<filter id="filter0_d_688_350" x="0.124023" y="0.544373" width="491.238" height="518.995" filterUnits="userSpaceOnUse" color-interpolation-filters="sRGB">
<feFlood flood-opacity="0" result="BackgroundImageFix"/>
<feColorMatrix in="SourceAlpha" type="matrix" values="0 0 0 0 0 0 0 0 0 0 0 0 0 0 0 0 0 0 127 0" result="hardAlpha"/>
<feOffset dy="4"/>
<feGaussianBlur stdDeviation="50"/>
<feComposite in2="hardAlpha" operator="out"/>
<feColorMatrix type="matrix" values="0 0 0 0 0.917508 0 0 0 0 0.20013 0 0 0 0 0.926239 0 0 0 0.5 0"/>
<feBlend mode="normal" in2="BackgroundImageFix" result="effect1_dropShadow_688_350"/>
<feBlend mode="normal" in="SourceGraphic" in2="effect1_dropShadow_688_350" result="shape"/>
</filter>
</defs>
</svg>
