<svg width="109" height="119" viewBox="0 0 109 119" fill="none" xmlns="http://www.w3.org/2000/svg">
<path d="M0.710785 43.3249C4.79553 43.8538 8.67603 44.4641 12.6382 44.8709C17.408 44.9377 22.0789 43.515 25.9953 40.8026C26.8368 40.4034 27.5414 39.7659 28.0209 38.9699C28.5004 38.1739 28.7336 37.2547 28.6912 36.3274C28.577 35.3284 28.6828 34.3165 29.0013 33.3624C29.3199 32.4082 29.8434 31.5348 30.5356 30.8028C31.2278 30.0708 32.0718 29.4979 33.009 29.1241C33.9462 28.7503 34.954 28.5845 35.9621 28.6383C41.068 28.9637 42.7836 24.814 44.1316 21.0305C46.6531 14.5237 47.207 7.42406 45.7247 0.607483C49.7616 1.36072 53.4849 3.28568 56.4266 6.14041C62.3339 10.8555 66.4657 17.4225 68.1499 24.7734C69.6618 30.5626 69.6618 36.6407 68.1499 42.4299C67.8978 43.2743 67.9115 44.1753 68.189 45.0117C68.4665 45.8482 68.9945 46.5799 69.702 47.1085C81.216 57.616 91.0876 69.7791 98.9896 83.1945C103.169 90.0566 106.333 97.4832 108.385 105.245C108.916 108.24 108.999 111.298 108.63 114.317C108.631 114.876 108.517 115.43 108.294 115.943C108.071 116.456 107.744 116.918 107.334 117.3C106.924 117.681 106.439 117.975 105.91 118.162C105.381 118.348 104.819 118.425 104.259 118.386C99.0084 118.419 93.8501 117.011 89.3497 114.317C74.0579 105.828 60.6054 94.4071 49.7685 80.7129C47.3177 77.8244 45.1119 74.7324 42.8653 71.6812C42.4679 70.9504 41.8423 70.3685 41.0831 70.0235C40.324 69.6785 39.4727 69.5892 38.658 69.7691C34.5554 70.6616 30.3057 70.6432 26.2111 69.715C22.1164 68.7869 18.2773 66.9718 14.9665 64.3989C7.82242 59.6461 2.74512 52.3804 0.751644 44.0572C0.710017 43.8155 0.6963 43.5698 0.710785 43.3249Z" fill="#4B73FF"/>
</svg>
