<svg width="423" height="413" viewBox="0 0 423 413" fill="none" xmlns="http://www.w3.org/2000/svg">
<path d="M374.66 2.12012C375.303 1.89039 375.992 1.9997 376.521 2.36816L376.624 2.44531L376.749 2.55371C377.022 2.80938 377.16 3.07674 377.193 3.13867C377.265 3.27262 377.317 3.40051 377.353 3.49316C377.425 3.68326 377.491 3.89714 377.549 4.10254C377.667 4.52303 377.796 5.0716 377.93 5.69434C378.199 6.94906 378.507 8.6113 378.79 10.3848L379.253 13.1875C379.753 16.1258 380.331 19.2947 380.702 21.1016L381.029 22.6201C382.698 30.0318 384.932 34.8024 388.455 38.1455C392.23 41.7274 397.759 43.9355 406.568 45.5938L407.728 45.8037C410.511 46.2921 413.757 46.7499 415.367 46.8779L416.105 46.9434C416.826 47.0123 417.484 47.0931 418.012 47.1768C418.355 47.2311 418.693 47.2937 418.97 47.3672C419.094 47.4003 419.296 47.4586 419.502 47.5537C419.596 47.597 419.8 47.6972 420.012 47.877C420.17 48.0114 420.735 48.5299 420.735 49.4307C420.735 50.133 420.382 50.5971 420.218 50.7803C420.038 50.9807 419.858 51.1018 419.77 51.1572C419.586 51.2727 419.414 51.3411 419.336 51.3711C419.154 51.4406 418.957 51.4953 418.795 51.5371C418.45 51.6261 417.992 51.7234 417.473 51.8223C416.685 51.9723 415.685 52.1399 414.579 52.3066L413.441 52.4727C403.776 53.8307 396.865 55.8818 391.919 58.877C387.204 61.7323 384.184 65.4992 382.29 70.6035L382.11 71.1016C380.936 74.4491 379.11 83.4567 378.362 89.5859L378.228 90.7715C378.108 91.914 377.957 93.0129 377.809 93.8711C377.735 94.2965 377.658 94.6897 377.578 95.0098C377.539 95.167 377.492 95.339 377.435 95.502C377.407 95.5812 377.283 95.9537 377.004 96.2891L377.001 96.293C376.677 96.6801 376.034 97.1183 375.173 96.999C374.502 96.906 374.102 96.515 373.98 96.3887C373.71 96.1073 373.575 95.8001 373.544 95.7314C373.437 95.4963 373.349 95.2226 373.282 94.9961C373.137 94.5034 372.966 93.8062 372.782 92.9814C372.503 91.7325 372.175 90.1083 371.836 88.2764L371.494 86.3818C368.712 70.5639 366.088 64.7485 360.745 60.5469L360.219 60.1455C358.62 58.9565 355.714 57.3392 353.876 56.6162H353.875C350.146 55.1493 342.299 53.2171 336.722 52.3838L335.638 52.2324C334.608 52.099 333.726 51.9512 333.025 51.7988C332.4 51.663 331.708 51.4819 331.212 51.2139C331.077 51.141 330.845 51.0031 330.621 50.7783C330.421 50.5773 329.966 50.0364 330.002 49.2031C330.04 48.3203 330.593 47.8032 330.876 47.5986C331.162 47.3917 331.445 47.2927 331.598 47.2461C332.158 47.0747 332.922 47.0407 333.651 47.0391L333.956 47.0332C335.597 46.9723 338.977 46.487 342.621 45.8105C346.474 45.0954 350.319 44.2239 352.284 43.5674L353.042 43.3076C356.761 42.005 359.455 40.591 361.554 38.8418C363.772 36.9928 365.435 34.6756 366.898 31.4619L367.057 31.1025C368.702 27.2204 370.811 18.1849 372.248 8.38184L372.409 7.35059C372.575 6.35117 372.754 5.45738 372.926 4.76172C373.036 4.31543 373.163 3.86989 373.308 3.51758C373.365 3.3766 373.498 3.06422 373.735 2.77539C373.843 2.64421 374.142 2.30521 374.66 2.12012Z" fill="white" stroke="white" stroke-width="4"/>
<path d="M31.6768 347.12C32.3191 346.889 33.0066 347.001 33.5312 347.369L33.6338 347.446L33.7568 347.553C34.0238 347.804 34.156 348.064 34.1836 348.116C34.2484 348.239 34.294 348.351 34.3223 348.426C34.3806 348.579 34.4297 348.743 34.4697 348.887C34.5523 349.183 34.6409 349.56 34.7295 349.976C34.9087 350.816 35.1121 351.924 35.2988 353.102L35.6006 354.942C35.9269 356.872 36.3042 358.952 36.5449 360.133L36.7559 361.122C37.835 365.948 39.256 368.938 41.4199 371.006C43.7429 373.226 47.1985 374.648 52.9219 375.732L53.6748 375.87C55.4822 376.189 57.5815 376.487 58.6045 376.569L59.0986 376.612C59.5815 376.659 60.0269 376.715 60.3896 376.772C60.6223 376.81 60.8711 376.855 61.0869 376.913C61.1811 376.938 61.3599 376.989 61.5498 377.077C61.6358 377.117 61.8339 377.214 62.041 377.392C62.1967 377.525 62.7528 378.039 62.7529 378.931C62.7529 379.627 62.4045 380.088 62.2422 380.271C62.0652 380.469 61.888 380.589 61.8027 380.643C61.6251 380.755 61.4634 380.819 61.3975 380.845C61.241 380.905 61.0813 380.949 60.9678 380.979C60.7202 381.043 60.4024 381.11 60.0576 381.176C59.5315 381.277 58.8685 381.389 58.1377 381.5L57.3867 381.61C51.1005 382.5 46.6877 383.834 43.5693 385.735C40.7197 387.473 38.8663 389.734 37.6719 392.805L37.4424 393.43C36.6963 395.571 35.5086 401.451 35.0225 405.461L34.9355 406.236C34.8562 407.001 34.7557 407.74 34.6553 408.323C34.6057 408.611 34.5516 408.888 34.4941 409.121C34.4661 409.235 34.4296 409.37 34.3828 409.505C34.3651 409.556 34.2517 409.908 33.9824 410.233L33.9795 410.237C33.6598 410.622 33.0182 411.066 32.1523 410.945C31.4807 410.852 31.0831 410.459 30.9658 410.336C30.7031 410.061 30.5753 409.766 30.5518 409.714C30.4606 409.513 30.3926 409.293 30.3477 409.14C30.2461 408.793 30.1301 408.316 30.0088 407.769C29.8242 406.936 29.609 405.858 29.3857 404.645L29.1602 403.391C27.3416 392.98 25.654 389.378 22.3691 386.781L22.0469 386.533C21.0496 385.786 19.2012 384.751 18.0566 384.298H18.0557C15.678 383.356 10.5995 382.095 6.99121 381.552L6.29004 381.453C5.60307 381.363 5.00518 381.263 4.52148 381.157C4.11411 381.068 3.57144 380.932 3.15039 380.703C3.03391 380.64 2.81606 380.51 2.60254 380.294C2.41163 380.1 1.96672 379.571 2.00195 378.752C2.03948 377.883 2.57996 377.373 2.85449 377.174C3.13059 376.973 3.39889 376.882 3.53125 376.841C4.01062 376.693 4.60872 376.674 5.0791 376.673L5.48047 376.658C6.55874 376.589 8.58765 376.292 10.8213 375.875C13.3393 375.404 15.8137 374.838 17.0498 374.422L17.5361 374.254C19.9215 373.413 21.6014 372.516 22.8896 371.435C24.2441 370.298 25.2778 368.863 26.2041 366.814L26.4043 366.338C27.4277 363.742 28.7403 358.04 29.6504 351.79V351.789L29.7578 351.099C29.8686 350.427 29.9888 349.821 30.1064 349.342C30.1807 349.04 30.2734 348.708 30.3867 348.429C30.4289 348.325 30.5468 348.038 30.7705 347.765C30.8711 347.642 31.1633 347.305 31.6768 347.12Z" fill="white" stroke="white" stroke-width="4"/>
</svg>
