<svg width="28" height="29" viewBox="0 0 28 29" fill="none" xmlns="http://www.w3.org/2000/svg">
<path fill-rule="evenodd" clip-rule="evenodd" d="M10.454 8.42561e-07H12.9306C15.0346 -3.09313e-05 16.7304 -5.65052e-05 18.0642 0.179268C19.449 0.365447 20.615 0.763745 21.541 1.68977C22.467 2.6158 22.8653 3.78176 23.0515 5.16654C23.2308 6.50034 23.2308 8.19623 23.2308 10.3002V15.5769H20.9231V10.3846C20.9231 8.17629 20.9206 6.63611 20.7644 5.47403C20.6126 4.34515 20.335 3.74734 19.9092 3.32156C19.4834 2.89577 18.8856 2.61816 17.7567 2.46638C16.5947 2.31014 15.0545 2.30769 12.8462 2.30769H10.5385C8.33013 2.30769 6.78996 2.31014 5.62788 2.46638C4.499 2.61816 3.90119 2.89577 3.4754 3.32156C3.04961 3.74734 2.77201 4.34515 2.62023 5.47403C2.46399 6.63611 2.46154 8.17629 2.46154 10.3846V12.6923H0.153851L0.15385 10.3002C0.153818 8.19621 0.153793 6.50033 0.333117 5.16654C0.519296 3.78176 0.917594 2.6158 1.84362 1.68977C2.76964 0.763745 3.93561 0.365447 5.32039 0.179268C6.65418 -5.65052e-05 8.35006 -3.09313e-05 10.454 8.42561e-07Z" fill="white"/>
<path fill-rule="evenodd" clip-rule="evenodd" d="M19.7689 13.3678L19.4718 13.0706C19.3983 12.9971 19.3365 12.9353 19.282 12.8852C17.6319 11.369 14.9979 11.7964 13.912 13.7566C13.8761 13.8214 13.837 13.8996 13.7906 13.9925L13.7799 14.014L13.7473 14.0788L13.7451 14.0831L13.7419 14.0794L13.6946 14.0245L7.95301 7.32589C7.5383 6.84205 6.80987 6.78602 6.32604 7.20074C5.8422 7.61546 5.78617 8.34388 6.20088 8.82772L11.9527 15.5382C11.986 15.5771 12.0251 15.6227 12.0607 15.6608C13.13 16.8026 15.0014 16.5722 15.7618 15.2052C15.7872 15.1596 15.8141 15.1058 15.8369 15.06L15.8439 15.046C15.9071 14.9197 15.9219 14.8906 15.9306 14.8749C16.2926 14.2216 17.1706 14.0791 17.7206 14.5845C17.7338 14.5966 17.7571 14.6195 17.8569 14.7193L19.7048 16.5672C19.7579 15.7389 19.7673 14.7092 19.7689 13.3678Z" fill="white"/>
<path d="M18.6154 6.34616C18.6154 7.30203 17.8405 8.07692 16.8846 8.07692C15.9287 8.07692 15.1538 7.30203 15.1538 6.34616C15.1538 5.39028 15.9287 4.61539 16.8846 4.61539C17.8405 4.61539 18.6154 5.39028 18.6154 6.34616Z" fill="white"/>
<path fill-rule="evenodd" clip-rule="evenodd" d="M8.23077 15H1.3077V17.3077H3.78756L0.586895 19.8682C0.0892854 20.2663 0.00860682 20.9924 0.406694 21.49C0.804783 21.9876 1.53089 22.0683 2.0285 21.6702L5.92308 18.5546V21.9231H8.23077V15Z" fill="white"/>
<path fill-rule="evenodd" clip-rule="evenodd" d="M9.38462 18.6154C9.38462 16.0664 11.451 14 14 14H23.2308C25.7798 14 27.8462 16.0664 27.8462 18.6154V24.3846C27.8462 26.9336 25.7798 29 23.2308 29H14C11.451 29 9.38462 26.9336 9.38462 24.3846V18.6154ZM14 19.7692C14 19.132 14.5166 18.6154 15.1538 18.6154H18.6154C19.2526 18.6154 19.7692 19.132 19.7692 19.7692C19.7692 20.4065 19.2526 20.9231 18.6154 20.9231H15.1538C14.5166 20.9231 14 20.4065 14 19.7692ZM15.1538 22.0769C14.5166 22.0769 14 22.5935 14 23.2308C14 23.868 14.5166 24.3846 15.1538 24.3846H20.9231C21.5603 24.3846 22.0769 23.868 22.0769 23.2308C22.0769 22.5935 21.5603 22.0769 20.9231 22.0769H15.1538Z" fill="white"/>
</svg>
