<svg width="40" height="36" viewBox="0 0 40 36" fill="none" xmlns="http://www.w3.org/2000/svg">
<rect width="40" height="30.5882" rx="7" fill="url(#paint0_linear_4_49)"/>
<circle cx="11.7647" cy="11.7647" r="5.4902" fill="white"/>
<g filter="url(#filter0_bi_4_49)">
<path d="M16.7376 22.939C16.1115 22.0714 14.8198 22.0714 14.1937 22.939L7.07165 32.8075C6.32294 33.845 7.06424 35.2941 8.34362 35.2941H22.5876C23.867 35.2941 24.6083 33.845 23.8596 32.8075L16.7376 22.939Z" fill="#BCE4F1" fill-opacity="0.5"/>
</g>
<g filter="url(#filter1_bi_4_49)">
<path d="M29.7275 19.2521C28.466 17.6349 25.9947 17.6349 24.7332 19.2521L16.1257 30.287C14.5304 32.332 16.0077 35.2941 18.6228 35.2941H35.8379C38.453 35.2941 39.9303 32.332 38.335 30.287L29.7275 19.2521Z" fill="#BCE4F1" fill-opacity="0.5"/>
</g>
<defs>
<filter id="filter0_bi_4_49" x="2.77222" y="18.2883" width="25.3868" height="21.0058" filterUnits="userSpaceOnUse" color-interpolation-filters="sRGB">
<feFlood flood-opacity="0" result="BackgroundImageFix"/>
<feGaussianBlur in="BackgroundImageFix" stdDeviation="2"/>
<feComposite in2="SourceAlpha" operator="in" result="effect1_backgroundBlur_4_49"/>
<feBlend mode="normal" in="SourceGraphic" in2="effect1_backgroundBlur_4_49" result="shape"/>
<feColorMatrix in="SourceAlpha" type="matrix" values="0 0 0 0 0 0 0 0 0 0 0 0 0 0 0 0 0 0 127 0" result="hardAlpha"/>
<feOffset dx="0.2" dy="0.1"/>
<feGaussianBlur stdDeviation="0.5"/>
<feComposite in2="hardAlpha" operator="arithmetic" k2="-1" k3="1"/>
<feColorMatrix type="matrix" values="0 0 0 0 1 0 0 0 0 1 0 0 0 0 1 0 0 0 0.6 0"/>
<feBlend mode="normal" in2="shape" result="effect2_innerShadow_4_49"/>
</filter>
<filter id="filter1_bi_4_49" x="11.4656" y="14.0392" width="31.5294" height="25.2549" filterUnits="userSpaceOnUse" color-interpolation-filters="sRGB">
<feFlood flood-opacity="0" result="BackgroundImageFix"/>
<feGaussianBlur in="BackgroundImageFix" stdDeviation="2"/>
<feComposite in2="SourceAlpha" operator="in" result="effect1_backgroundBlur_4_49"/>
<feBlend mode="normal" in="SourceGraphic" in2="effect1_backgroundBlur_4_49" result="shape"/>
<feColorMatrix in="SourceAlpha" type="matrix" values="0 0 0 0 0 0 0 0 0 0 0 0 0 0 0 0 0 0 127 0" result="hardAlpha"/>
<feOffset dx="0.2" dy="0.1"/>
<feGaussianBlur stdDeviation="0.5"/>
<feComposite in2="hardAlpha" operator="arithmetic" k2="-1" k3="1"/>
<feColorMatrix type="matrix" values="0 0 0 0 1 0 0 0 0 1 0 0 0 0 1 0 0 0 0.6 0"/>
<feBlend mode="normal" in2="shape" result="effect2_innerShadow_4_49"/>
</filter>
<linearGradient id="paint0_linear_4_49" x1="2.71186" y1="9.332" x2="38.0793" y2="4.92726" gradientUnits="userSpaceOnUse">
<stop stop-color="#0B5CD6"/>
<stop offset="1" stop-color="#0085FF"/>
</linearGradient>
</defs>
</svg>
