<svg width="55" height="54" viewBox="0 0 55 54" fill="none" xmlns="http://www.w3.org/2000/svg">
<path fill-rule="evenodd" clip-rule="evenodd" d="M3.24155 3.75829C0.0783081 6.88452 0.0783081 11.9161 0.0783081 21.9792V32.6528C0.0783081 42.716 0.0783081 47.7476 3.24155 50.8738C6.4048 54 11.496 54 21.6783 54H32.4783C42.6607 54 47.7518 54 50.9151 50.8738C54.0783 47.7476 54.0783 42.716 54.0783 32.6529V21.9792C54.0783 14.4028 54.0783 9.67842 52.7283 6.47202V40.658C50.1351 40.658 47.6482 39.6399 45.8145 37.8278L43.785 35.822C41.8375 33.8973 40.8638 32.9349 39.7596 32.5294C38.546 32.0836 37.2107 32.0836 35.997 32.5294C34.8929 32.9349 33.9191 33.8973 31.9716 35.822L31.6661 36.1239C30.0857 37.6859 29.2954 38.4668 28.4558 38.6125C27.8033 38.7257 27.1314 38.5978 26.568 38.2532C25.8432 37.8098 25.4029 36.7946 24.5225 34.7643L24.3783 34.4318C22.3543 29.7643 21.3423 27.4306 19.5768 26.5559C18.688 26.1156 17.6935 25.9263 16.7027 26.0089C14.7349 26.173 12.9183 27.9684 9.28501 31.5591L4.12831 36.6554V3C3.81618 3.22975 3.52133 3.4818 3.24155 3.75829Z" fill="#E63737"/>
<path fill-rule="evenodd" clip-rule="evenodd" d="M32.4783 5.4H21.6783C16.4345 5.4 13.0448 5.41147 10.5473 5.74725C8.20512 6.06215 7.471 6.57055 7.05993 6.98162C6.64886 7.39269 6.14046 8.12681 5.82556 10.469C5.48978 12.9665 5.47831 16.3562 5.47831 21.6V32.4C5.47831 37.6438 5.48978 41.0335 5.82556 43.531C6.14046 45.8732 6.64886 46.6073 7.05993 47.0184C7.471 47.4295 8.20512 47.9378 10.5473 48.2528C13.0448 48.5885 16.4345 48.6 21.6783 48.6H32.4783C37.7221 48.6 41.1118 48.5885 43.6093 48.2528C45.9515 47.9378 46.6856 47.4295 47.0967 47.0184C47.5078 46.6073 48.0162 45.8732 48.3311 43.531C48.6668 41.0335 48.6783 37.6438 48.6783 32.4V21.6C48.6783 16.3562 48.6668 12.9665 48.3311 10.469C48.0162 8.12681 47.5078 7.39269 47.0967 6.98162C46.6856 6.57055 45.9515 6.06215 43.6093 5.74725C41.1118 5.41147 37.7221 5.4 32.4783 5.4ZM3.24155 3.16325C0.0783081 6.32649 0.0783081 11.4177 0.0783081 21.6V32.4C0.0783081 42.5823 0.0783081 47.6735 3.24155 50.8368C6.4048 54 11.496 54 21.6783 54H32.4783C42.6606 54 47.7518 54 50.9151 50.8368C54.0783 47.6735 54.0783 42.5824 54.0783 32.4001V21.6C54.0783 11.4177 54.0783 6.32649 50.9151 3.16325C47.7518 0 42.6606 0 32.4783 0H21.6783C11.496 0 6.4048 0 3.24155 3.16325Z" fill="#E63737"/>
<path d="M41.0783 19C41.0783 21.7614 38.6159 24 35.5783 24C32.5407 24 30.0783 21.7614 30.0783 19C30.0783 16.2386 32.5407 14 35.5783 14C38.6159 14 41.0783 16.2386 41.0783 19Z" fill="#E63737"/>
</svg>
