<svg width="31" height="28" viewBox="0 0 31 28" fill="none" xmlns="http://www.w3.org/2000/svg">
<path fill-rule="evenodd" clip-rule="evenodd" d="M3.77795 11.1648C3.77795 9.65854 4.999 8.4375 6.50523 8.4375H24.2325C25.7387 8.4375 26.9598 9.65854 26.9598 11.1648V24.8011C26.9598 26.3074 25.7387 27.5284 24.2325 27.5284H6.50523C4.999 27.5284 3.77795 26.3074 3.77795 24.8011V11.1648ZM24.2325 11.1648H6.50523V24.8011H24.2325V11.1648Z" fill="black"/>
<path fill-rule="evenodd" clip-rule="evenodd" d="M6.50512 9.80127H24.2324C24.9855 9.80127 25.596 10.4118 25.596 11.1649V24.8013C25.596 25.5544 24.9855 26.1649 24.2324 26.1649H6.50512C5.752 26.1649 5.14148 25.5544 5.14148 24.8013V11.1649C5.14148 10.4118 5.752 9.80127 6.50512 9.80127ZM11.9597 15.2555C11.9597 16.0086 11.3492 16.6191 10.5961 16.6191C9.84294 16.6191 9.23242 16.0086 9.23242 15.2555C9.23242 14.5024 9.84294 13.8918 10.5961 13.8918C11.3492 13.8918 11.9597 14.5024 11.9597 15.2555ZM20.1415 16.6191C20.8946 16.6191 21.5052 16.0086 21.5052 15.2555C21.5052 14.5024 20.8946 13.8918 20.1415 13.8918C19.3884 13.8918 18.7779 14.5024 18.7779 15.2555C18.7779 16.0086 19.3884 16.6191 20.1415 16.6191ZM11.6773 19.7456C11.933 19.4899 12.2799 19.3462 12.6415 19.3462H18.0961C18.4577 19.3462 18.8046 19.4899 19.0603 19.7456C19.316 20.0013 19.4597 20.3482 19.4597 20.7098C19.4597 21.0715 19.316 21.4183 19.0603 21.6741C18.8046 21.9298 18.4577 22.0735 18.0961 22.0735H12.6415C12.2799 22.0735 11.933 21.9298 11.6773 21.6741C11.4216 21.4183 11.2779 21.0715 11.2779 20.7098C11.2779 20.3482 11.4216 20.0013 11.6773 19.7456Z" fill="black"/>
<path fill-rule="evenodd" clip-rule="evenodd" d="M15.3689 2.9834C16.122 2.9834 16.7325 3.59392 16.7325 4.34703V9.80158C16.7325 10.5547 16.122 11.1652 15.3689 11.1652C14.6158 11.1652 14.0053 10.5547 14.0053 9.80158V4.34703C14.0053 3.59392 14.6158 2.9834 15.3689 2.9834ZM1.73253 13.8925C2.48565 13.8925 3.09617 14.503 3.09617 15.2561V20.7107C3.09617 21.4638 2.48565 22.0743 1.73253 22.0743C0.979417 22.0743 0.368896 21.4638 0.368896 20.7107V15.2561C0.368896 14.503 0.979417 13.8925 1.73253 13.8925ZM29.0053 13.8925C29.7584 13.8925 30.3689 14.503 30.3689 15.2561V20.7107C30.3689 21.4638 29.7584 22.0743 29.0053 22.0743C28.2521 22.0743 27.6416 21.4638 27.6416 20.7107V15.2561C27.6416 14.503 28.2521 13.8925 29.0053 13.8925Z" fill="black"/>
<path fill-rule="evenodd" clip-rule="evenodd" d="M12.6416 2.98313C12.6416 1.4769 13.8626 0.255859 15.3689 0.255859C16.8751 0.255859 18.0961 1.4769 18.0961 2.98313C18.0961 4.48936 16.8751 5.7104 15.3689 5.7104C13.8626 5.7104 12.6416 4.48936 12.6416 2.98313Z" fill="black"/>
</svg>
