<svg width="30" height="28" viewBox="0 0 30 28" fill="none" xmlns="http://www.w3.org/2000/svg">
<path fill-rule="evenodd" clip-rule="evenodd" d="M3.40906 10.9089C3.40906 9.40268 4.6301 8.18164 6.13633 8.18164H23.8636C25.3698 8.18164 26.5909 9.40268 26.5909 10.9089V24.5453C26.5909 26.0515 25.3698 27.2725 23.8636 27.2725H6.13633C4.6301 27.2725 3.40906 26.0515 3.40906 24.5453V10.9089ZM23.8636 10.9089H6.13633V24.5453H23.8636V10.9089Z" fill="white"/>
<path fill-rule="evenodd" clip-rule="evenodd" d="M6.13622 9.54541H23.8635C24.6166 9.54541 25.2271 10.1559 25.2271 10.909V24.5454C25.2271 25.2985 24.6166 25.909 23.8635 25.909H6.13622C5.3831 25.909 4.77258 25.2985 4.77258 24.5454V10.909C4.77258 10.1559 5.3831 9.54541 6.13622 9.54541ZM11.5908 14.9996C11.5908 15.7527 10.9803 16.3633 10.2272 16.3633C9.47405 16.3633 8.86353 15.7527 8.86353 14.9996C8.86353 14.2465 9.47405 13.636 10.2272 13.636C10.9803 13.636 11.5908 14.2465 11.5908 14.9996ZM19.7726 16.3633C20.5257 16.3633 21.1363 15.7527 21.1363 14.9996C21.1363 14.2465 20.5257 13.636 19.7726 13.636C19.0195 13.636 18.409 14.2465 18.409 14.9996C18.409 15.7527 19.0195 16.3633 19.7726 16.3633ZM11.3084 19.4897C11.5641 19.234 11.911 19.0903 12.2726 19.0903H17.7272C18.0888 19.0903 18.4357 19.234 18.6914 19.4897C18.9471 19.7455 19.0908 20.0923 19.0908 20.454C19.0908 20.8156 18.9471 21.1625 18.6914 21.4182C18.4357 21.6739 18.0888 21.8176 17.7272 21.8176H12.2726C11.911 21.8176 11.5641 21.6739 11.3084 21.4182C11.0527 21.1625 10.909 20.8156 10.909 20.454C10.909 20.0923 11.0527 19.7455 11.3084 19.4897Z" fill="white"/>
<path fill-rule="evenodd" clip-rule="evenodd" d="M15 2.72754C15.7531 2.72754 16.3636 3.33806 16.3636 4.09118V9.54572C16.3636 10.2988 15.7531 10.9094 15 10.9094C14.2469 10.9094 13.6364 10.2988 13.6364 9.54572V4.09118C13.6364 3.33806 14.2469 2.72754 15 2.72754ZM1.36364 13.6366C2.11675 13.6366 2.72727 14.2472 2.72727 15.0003V20.4548C2.72727 21.2079 2.11675 21.8184 1.36364 21.8184C0.610521 21.8184 0 21.2079 0 20.4548V15.0003C0 14.2472 0.610521 13.6366 1.36364 13.6366ZM28.6364 13.6366C29.3895 13.6366 30 14.2472 30 15.0003V20.4548C30 21.2079 29.3895 21.8184 28.6364 21.8184C27.8832 21.8184 27.2727 21.2079 27.2727 20.4548V15.0003C27.2727 14.2472 27.8832 13.6366 28.6364 13.6366Z" fill="white"/>
<path fill-rule="evenodd" clip-rule="evenodd" d="M12.2727 2.72727C12.2727 1.22104 13.4937 0 15 0C16.5062 0 17.7273 1.22104 17.7273 2.72727C17.7273 4.2335 16.5062 5.45455 15 5.45455C13.4937 5.45455 12.2727 4.2335 12.2727 2.72727Z" fill="white"/>
</svg>
