<svg width="31" height="29" viewBox="0 0 31 29" fill="none" xmlns="http://www.w3.org/2000/svg">
<path fill-rule="evenodd" clip-rule="evenodd" d="M3.77799 11.8925C3.77799 10.3863 4.99903 9.16522 6.50526 9.16522H24.2325C25.7388 9.16522 26.9598 10.3863 26.9598 11.8925V25.5289C26.9598 27.0351 25.7388 28.2561 24.2325 28.2561H6.50526C4.99903 28.2561 3.77799 27.0351 3.77799 25.5289V11.8925ZM24.2325 11.8925H6.50526V25.5289H24.2325V11.8925Z" fill="black"/>
<path d="M10.5962 17.347C11.3493 17.347 11.9598 16.7365 11.9598 15.9834C11.9598 15.2303 11.3493 14.6198 10.5962 14.6198C9.84305 14.6198 9.23253 15.2303 9.23253 15.9834C9.23253 16.7365 9.84305 17.347 10.5962 17.347Z" fill="black"/>
<path d="M20.1416 17.347C20.8947 17.347 21.5053 16.7365 21.5053 15.9834C21.5053 15.2303 20.8947 14.6198 20.1416 14.6198C19.3885 14.6198 18.778 15.2303 18.778 15.9834C18.778 16.7365 19.3885 17.347 20.1416 17.347Z" fill="black"/>
<path d="M12.6416 20.0743C12.28 20.0743 11.9331 20.218 11.6774 20.4737C11.4217 20.7294 11.278 21.0763 11.278 21.4379C11.278 21.7996 11.4217 22.1465 11.6774 22.4022C11.9331 22.6579 12.28 22.8016 12.6416 22.8016V20.0743ZM18.0962 22.8016C18.4578 22.8016 18.8047 22.6579 19.0604 22.4022C19.3161 22.1465 19.4598 21.7996 19.4598 21.4379C19.4598 21.0763 19.3161 20.7294 19.0604 20.4737C18.8047 20.218 18.4578 20.0743 18.0962 20.0743V22.8016ZM12.6416 22.8016H18.0962V20.0743H12.6416V22.8016Z" fill="black"/>
<path fill-rule="evenodd" clip-rule="evenodd" d="M15.3689 3.71067C16.122 3.71067 16.7325 4.32119 16.7325 5.07431V10.5289C16.7325 11.282 16.122 11.8925 15.3689 11.8925C14.6158 11.8925 14.0053 11.282 14.0053 10.5289V5.07431C14.0053 4.32119 14.6158 3.71067 15.3689 3.71067ZM1.73253 14.6198C2.48565 14.6198 3.09617 15.2303 3.09617 15.9834V21.4379C3.09617 22.1911 2.48565 22.8016 1.73253 22.8016C0.979417 22.8016 0.368896 22.1911 0.368896 21.4379V15.9834C0.368896 15.2303 0.979417 14.6198 1.73253 14.6198ZM29.0053 14.6198C29.7584 14.6198 30.3689 15.2303 30.3689 15.9834V21.4379C30.3689 22.1911 29.7584 22.8016 29.0053 22.8016C28.2521 22.8016 27.6416 22.1911 27.6416 21.4379V15.9834C27.6416 15.2303 28.2521 14.6198 29.0053 14.6198Z" fill="black"/>
<path fill-rule="evenodd" clip-rule="evenodd" d="M12.6416 3.71067C12.6416 2.20444 13.8627 0.983398 15.3689 0.983398C16.8751 0.983398 18.0962 2.20444 18.0962 3.71067C18.0962 5.2169 16.8751 6.43794 15.3689 6.43794C13.8627 6.43794 12.6416 5.2169 12.6416 3.71067Z" fill="black"/>
</svg>
