<svg width="30" height="28" viewBox="0 0 30 28" fill="none" xmlns="http://www.w3.org/2000/svg">
<path fill-rule="evenodd" clip-rule="evenodd" d="M3.40909 11.182C3.40909 9.67581 4.63013 8.45477 6.13636 8.45477H23.8636C25.3699 8.45477 26.5909 9.67581 26.5909 11.182V24.8184C26.5909 26.3246 25.3699 27.5457 23.8636 27.5457H6.13636C4.63013 27.5457 3.40909 26.3246 3.40909 24.8184V11.182ZM23.8636 11.182H6.13636V24.8184H23.8636V11.182Z" fill="white"/>
<path d="M10.2273 16.6366C10.9804 16.6366 11.5909 16.0261 11.5909 15.2729C11.5909 14.5198 10.9804 13.9093 10.2273 13.9093C9.47416 13.9093 8.86364 14.5198 8.86364 15.2729C8.86364 16.0261 9.47416 16.6366 10.2273 16.6366Z" fill="white"/>
<path d="M19.7727 16.6366C20.5258 16.6366 21.1364 16.0261 21.1364 15.2729C21.1364 14.5198 20.5258 13.9093 19.7727 13.9093C19.0196 13.9093 18.4091 14.5198 18.4091 15.2729C18.4091 16.0261 19.0196 16.6366 19.7727 16.6366Z" fill="white"/>
<path d="M12.2727 19.3639C11.9111 19.3639 11.5642 19.5075 11.3085 19.7633C11.0528 20.019 10.9091 20.3658 10.9091 20.7275C10.9091 21.0892 11.0528 21.436 11.3085 21.6917C11.5642 21.9475 11.9111 22.0911 12.2727 22.0911V19.3639ZM17.7273 22.0911C18.0889 22.0911 18.4358 21.9475 18.6915 21.6917C18.9472 21.436 19.0909 21.0892 19.0909 20.7275C19.0909 20.3658 18.9472 20.019 18.6915 19.7633C18.4358 19.5075 18.0889 19.3639 17.7273 19.3639V22.0911ZM12.2727 22.0911H17.7273V19.3639H12.2727V22.0911Z" fill="white"/>
<path fill-rule="evenodd" clip-rule="evenodd" d="M15 3.00022C15.7531 3.00022 16.3636 3.61074 16.3636 4.36386V9.8184C16.3636 10.5715 15.7531 11.182 15 11.182C14.2469 11.182 13.6364 10.5715 13.6364 9.8184V4.36386C13.6364 3.61074 14.2469 3.00022 15 3.00022ZM1.36364 13.9093C2.11675 13.9093 2.72727 14.5198 2.72727 15.2729V20.7275C2.72727 21.4806 2.11675 22.0911 1.36364 22.0911C0.610521 22.0911 0 21.4806 0 20.7275V15.2729C0 14.5198 0.610521 13.9093 1.36364 13.9093ZM28.6364 13.9093C29.3895 13.9093 30 14.5198 30 15.2729V20.7275C30 21.4806 29.3895 22.0911 28.6364 22.0911C27.8832 22.0911 27.2727 21.4806 27.2727 20.7275V15.2729C27.2727 14.5198 27.8832 13.9093 28.6364 13.9093Z" fill="white"/>
<path fill-rule="evenodd" clip-rule="evenodd" d="M12.2727 3.00022C12.2727 1.49399 13.4938 0.272949 15 0.272949C16.5062 0.272949 17.7273 1.49399 17.7273 3.00022C17.7273 4.50645 16.5062 5.72749 15 5.72749C13.4938 5.72749 12.2727 4.50645 12.2727 3.00022Z" fill="white"/>
</svg>
