<svg width="30" height="30" viewBox="0 0 30 30" fill="none" xmlns="http://www.w3.org/2000/svg">
<path d="M5.25 6C4.65326 6 4.08097 6.23705 3.65901 6.65901C3.23705 7.08097 3 7.65326 3 8.25V11.25C3 11.8467 3.23705 12.419 3.65901 12.841C4.08097 13.2629 4.65326 13.5 5.25 13.5H8.25C8.84674 13.5 9.41903 13.2629 9.84099 12.841C10.2629 12.419 10.5 11.8467 10.5 11.25V8.25C10.5 7.65326 10.2629 7.08097 9.84099 6.65901C9.41903 6.23705 8.84674 6 8.25 6H5.25ZM14.25 7.5C14.0511 7.5 13.8603 7.57902 13.7197 7.71967C13.579 7.86032 13.5 8.05109 13.5 8.25C13.5 8.44891 13.579 8.63968 13.7197 8.78033C13.8603 8.92098 14.0511 9 14.25 9H26.25C26.4489 9 26.6397 8.92098 26.7803 8.78033C26.921 8.63968 27 8.44891 27 8.25C27 8.05109 26.921 7.86032 26.7803 7.71967C26.6397 7.57902 26.4489 7.5 26.25 7.5H14.25ZM14.25 10.5C14.0511 10.5 13.8603 10.579 13.7197 10.7197C13.579 10.8603 13.5 11.0511 13.5 11.25C13.5 11.4489 13.579 11.6397 13.7197 11.7803C13.8603 11.921 14.0511 12 14.25 12H23.25C23.4489 12 23.6397 11.921 23.7803 11.7803C23.921 11.6397 24 11.4489 24 11.25C24 11.0511 23.921 10.8603 23.7803 10.7197C23.6397 10.579 23.4489 10.5 23.25 10.5H14.25ZM5.25 16.5C4.65326 16.5 4.08097 16.7371 3.65901 17.159C3.23705 17.581 3 18.1533 3 18.75V21.75C3 22.3467 3.23705 22.919 3.65901 23.341C4.08097 23.7629 4.65326 24 5.25 24H8.25C8.84674 24 9.41903 23.7629 9.84099 23.341C10.2629 22.919 10.5 22.3467 10.5 21.75V18.75C10.5 18.1533 10.2629 17.581 9.84099 17.159C9.41903 16.7371 8.84674 16.5 8.25 16.5H5.25ZM14.25 18C14.0511 18 13.8603 18.079 13.7197 18.2197C13.579 18.3603 13.5 18.5511 13.5 18.75C13.5 18.9489 13.579 19.1397 13.7197 19.2803C13.8603 19.421 14.0511 19.5 14.25 19.5H26.25C26.4489 19.5 26.6397 19.421 26.7803 19.2803C26.921 19.1397 27 18.9489 27 18.75C27 18.5511 26.921 18.3603 26.7803 18.2197C26.6397 18.079 26.4489 18 26.25 18H14.25ZM14.25 21C14.0511 21 13.8603 21.079 13.7197 21.2197C13.579 21.3603 13.5 21.5511 13.5 21.75C13.5 21.9489 13.579 22.1397 13.7197 22.2803C13.8603 22.421 14.0511 22.5 14.25 22.5H23.25C23.4489 22.5 23.6397 22.421 23.7803 22.2803C23.921 22.1397 24 21.9489 24 21.75C24 21.5511 23.921 21.3603 23.7803 21.2197C23.6397 21.079 23.4489 21 23.25 21H14.25Z" fill="white"/>
</svg>
