<svg width="9" height="5" viewBox="0 0 9 5" fill="none" xmlns="http://www.w3.org/2000/svg">
<path d="M2.67029e-05 0.595839C2.67029e-05 0.743186 0.053865 0.870697 0.161542 0.978374L3.96989 4.78673C4.07757 4.8944 4.20508 4.94824 4.35243 4.94824C4.49978 4.94824 4.62729 4.8944 4.73497 4.78673L8.54332 0.978374C8.651 0.870697 8.70483 0.743186 8.70483 0.595839C8.70483 0.448492 8.651 0.32098 8.54332 0.213303C8.43564 0.105626 8.30813 0.0517881 8.16078 0.0517881H0.544077C0.39673 0.0517881 0.269218 0.105626 0.161542 0.213303C0.053865 0.32098 2.67029e-05 0.448492 2.67029e-05 0.595839Z" fill="#A3A8B2"/>
</svg>
