<svg width="24" height="30" viewBox="0 0 24 30" fill="none" xmlns="http://www.w3.org/2000/svg">
<path d="M6 11H18V21H6V11Z" fill="black"/>
<path d="M22 17.5C22 20.1522 21.1571 22.6957 19.6569 24.5711C18.1566 26.4464 16.1217 27.5 14 27.5" fill="black"/>
<path d="M18 13.75V12.5C18 11.837 17.7893 11.2011 17.4142 10.7322C17.0391 10.2634 16.5304 10 16 10C15.4696 10 14.9609 10.2634 14.5858 10.7322C14.2107 11.2011 14 11.837 14 12.5" fill="black"/>
<path d="M14 12.5V11.25C14 10.587 13.7893 9.95107 13.4142 9.48223C13.0391 9.01339 12.5304 8.75 12 8.75C11.4696 8.75 10.9609 9.01339 10.5858 9.48223C10.2107 9.95107 10 10.587 10 11.25V12.5" fill="black"/>
<path d="M10 11.875V5C10 4.33696 9.78929 3.70107 9.41421 3.23223C9.03914 2.76339 8.53043 2.5 8 2.5C7.46957 2.5 6.96086 2.76339 6.58579 3.23223C6.21071 3.70107 6 4.33696 6 5V17.5" fill="black"/>
<path d="M18 13.75C18 13.087 18.2108 12.4511 18.5859 11.9822C18.961 11.5134 19.4697 11.25 20.0001 11.25C20.5305 11.25 21.0392 11.5134 21.4143 11.9822C21.7894 12.4511 22.0001 13.087 22.0001 13.75L22 17.5C22 20.1522 21.1571 22.6957 19.6569 24.5711C18.1566 26.4464 16.1217 27.5 14 27.5H12.0001C9.2001 27.5 7.5001 26.425 6.0101 24.575L2.4101 20.075C2.06604 19.5987 1.88169 18.9752 1.89523 18.3337C1.90876 17.6921 2.11915 17.0817 2.48282 16.6287C2.8465 16.1757 3.3356 15.9149 3.84888 15.9002C4.36215 15.8856 4.86027 16.1182 5.2401 16.55L7.0001 18.75" fill="black"/>
<path fill-rule="evenodd" clip-rule="evenodd" d="M5.80491 2.60754C6.34144 1.93688 7.12316 1.5 8 1.5C8.87683 1.5 9.65856 1.93689 10.1951 2.60754C10.727 3.2724 11 4.13506 11 5V7.94796C11.3115 7.82036 11.6481 7.75 12 7.75C12.8768 7.75 13.6586 8.18688 14.1951 8.85754C14.336 9.03369 14.4588 9.22372 14.5631 9.42401C14.9868 9.15575 15.4765 9 16 9C16.8768 9 17.6586 9.43688 18.1951 10.1075C18.336 10.2837 18.4588 10.4738 18.5631 10.6741C18.9869 10.4058 19.4765 10.25 20.0001 10.25C20.8769 10.25 21.6587 10.6869 22.1952 11.3575C22.7271 12.0224 23.0001 12.8851 23.0001 13.75L23 17.5C23 20.3541 22.0948 23.1244 20.4377 25.1958C18.776 27.2729 16.4681 28.5 14 28.5H12.0001C10.4658 28.5 9.17785 28.2038 8.05239 27.6184C6.93237 27.0358 6.03312 26.1978 5.23129 25.2023L5.22923 25.1997L1.62923 20.6997C1.61899 20.6869 1.60907 20.6738 1.59947 20.6606C1.1162 19.9915 0.877769 19.1503 0.895447 18.3126C0.91312 17.475 1.18683 16.6456 1.70303 16.0027C2.22328 15.3546 2.9735 14.9248 3.82034 14.9007C4.23782 14.8887 4.63685 14.9767 5 15.1435V5C5 4.13506 5.27302 3.2724 5.80491 2.60754ZM5.22839 18.1361L6.21923 19.3747C6.56424 19.806 7.19353 19.8759 7.6248 19.5309C8.05606 19.1859 8.12598 18.5566 7.78097 18.1253L7 17.1491V5C7 4.53885 7.1484 4.12975 7.36665 3.85693C7.58028 3.5899 7.81597 3.5 8 3.5C8.18403 3.5 8.41972 3.5899 8.63334 3.85693C8.8516 4.12975 9 4.53886 9 5V12.5C9 13.0523 9.44771 13.5 10 13.5C10.5523 13.5 11 13.0523 11 12.5V11.25C11 10.7889 11.1484 10.3797 11.3667 10.1069C11.5803 9.8399 11.816 9.75 12 9.75C12.184 9.75 12.4197 9.8399 12.6333 10.1069C12.8516 10.3797 13 10.7889 13 11.25V12.5C13 13.0523 13.4477 13.5 14 13.5C14.5523 13.5 15 13.0523 15 12.5C15 12.0389 15.1484 11.6297 15.3667 11.3569C15.5803 11.0899 15.816 11 16 11C16.184 11 16.4197 11.0899 16.6333 11.3569C16.8516 11.6297 17 12.0389 17 12.5V13.75C17 14.3023 17.4477 14.75 18 14.75C18.5523 14.75 19 14.3023 19 13.75C19 13.289 19.1484 12.8798 19.3668 12.6069C19.5804 12.3399 19.8161 12.25 20.0001 12.25C20.1841 12.25 20.4198 12.3399 20.6334 12.6069C20.8517 12.8797 21.0001 13.2889 21.0001 13.75L21 17.5C21 19.9503 20.2195 22.267 18.876 23.9464C17.5371 25.6199 15.7753 26.5 14 26.5H12.0001C10.7344 26.5 9.77235 26.2587 8.97531 25.8441C8.17324 25.4269 7.4778 24.8028 6.78997 23.9491C6.78962 23.9486 6.78926 23.9482 6.78891 23.9477L3.20839 19.4721C3.01066 19.1894 2.8858 18.7911 2.895 18.3548C2.9044 17.9092 3.05146 17.5177 3.26261 17.2547C3.46971 16.9968 3.6977 16.905 3.8774 16.8998C4.05164 16.8949 4.26987 16.9686 4.47593 17.1956L5.2092 18.1122C5.21548 18.1203 5.22187 18.1282 5.22839 18.1361Z" fill="white"/>
</svg>
