<svg width="28" height="30" viewBox="0 0 28 30" fill="none" xmlns="http://www.w3.org/2000/svg">
<path d="M1.43583 9.67364C0.923096 10.7891 0.923096 12.0582 0.923096 14.5962V22.5228C0.923096 26.0476 0.923096 27.81 2.01742 28.905C3.01042 29.8986 4.55259 29.9906 7.46156 29.9991V20.6536C7.46156 18.5888 9.13434 16.915 11.1978 16.915H16.8022C18.8657 16.915 20.5385 18.5888 20.5385 20.6536V29.9991C23.4474 29.9906 24.9896 29.8986 25.9826 28.905C27.0769 27.81 27.0769 26.0476 27.0769 22.5228V14.5962C27.0769 12.0582 27.0769 10.7891 26.5642 9.67364C26.0515 8.55816 25.0886 7.73228 23.1627 6.08054L21.2946 4.47828C17.8137 1.49276 16.0732 0 14 0C11.9268 0 10.1864 1.49276 6.70543 4.47828L4.8373 6.08054C2.91147 7.73228 1.94856 8.55816 1.43583 9.67364Z" fill="#FFFEFE"/>
<path d="M16.8022 30V20.6536H11.1978V30H16.8022Z" fill="#FFFEFE"/>
</svg>
