<svg width="28" height="30" viewBox="0 0 28 30" fill="none" xmlns="http://www.w3.org/2000/svg">
<path fill-rule="evenodd" clip-rule="evenodd" d="M12.1023 4.04463C11.1862 4.63748 10.0938 5.55088 8.48006 6.9062L6.78367 8.33092C4.91702 9.89862 4.40622 10.3744 4.13211 10.9584C3.858 11.5424 3.82171 12.232 3.82171 14.641V21.6892C3.82171 23.3033 3.82532 24.3466 3.9308 25.1154C4.02973 25.8363 4.18944 26.0623 4.31857 26.1888C4.44771 26.3154 4.67833 26.4719 5.41412 26.5688C6.19871 26.6721 7.26354 26.6757 8.91087 26.6757H19.0892C20.7365 26.6757 21.8013 26.6721 22.5859 26.5688C23.3217 26.4719 23.5523 26.3154 23.6815 26.1888C23.8106 26.0623 23.9703 25.8363 24.0692 25.1154C24.1747 24.3466 24.1783 23.3033 24.1783 21.6892V14.641C24.1783 12.232 24.142 11.5424 23.8679 10.9584C23.5938 10.3744 23.083 9.89862 21.2164 8.33092L19.52 6.9062C17.9062 5.55088 16.8138 4.63748 15.8977 4.04463C15.0213 3.47748 14.4828 3.32433 14 3.32433C13.5172 3.32433 12.9787 3.47748 12.1023 4.04463ZM10.2325 1.27071C11.4072 0.510521 12.6002 0 14 0C15.3998 0 16.5928 0.510521 17.7675 1.27071C18.8823 1.99212 20.1353 3.04453 21.6455 4.31295L23.4243 5.8069C23.5065 5.87586 23.5876 5.94387 23.6677 6.01103C25.1784 7.27764 26.3263 8.23999 26.9503 9.56931C27.5743 10.8986 27.573 12.3789 27.5713 14.3271C27.5712 14.4304 27.5711 14.535 27.5711 14.641L27.5711 21.7986C27.5712 23.2721 27.5712 24.5417 27.4317 25.5583C27.2822 26.6479 26.9451 27.6923 26.0805 28.5395C25.2159 29.3866 24.15 29.717 23.038 29.8635C22.0004 30.0002 20.7046 30.0001 19.2008 30H8.79923C7.29539 30.0001 5.99966 30.0002 4.96204 29.8635C3.85003 29.717 2.78411 29.3866 1.91953 28.5395C1.05494 27.6923 0.717795 26.6479 0.56829 25.5583C0.428787 24.5417 0.428859 23.2721 0.428944 21.7986L0.428948 14.641C0.428948 14.535 0.428856 14.4304 0.428765 14.3271C0.427052 12.3789 0.42575 10.8986 1.04974 9.56931C1.67372 8.24 2.82159 7.27764 4.33235 6.01103C4.41245 5.94388 4.49357 5.87587 4.57569 5.8069L6.27207 4.38219C6.29964 4.35903 6.32713 4.33595 6.35453 4.31294C7.86472 3.04453 9.11774 1.99212 10.2325 1.27071Z" fill="#FFF8F8"/>
<path fill-rule="evenodd" clip-rule="evenodd" d="M8.28573 19.8214C8.28573 17.9476 9.74766 16.4286 11.551 16.4286H16.449C18.2524 16.4286 19.7143 17.9476 19.7143 19.8214V28.3036C19.7143 29.2405 18.9833 30 18.0817 30C17.18 30 16.449 29.2405 16.449 28.3036V19.8214H11.551V28.3036C11.551 29.2405 10.8201 30 9.91838 30C9.0167 30 8.28573 29.2405 8.28573 28.3036V19.8214Z" fill="#FFF8F8"/>
</svg>
