<svg width="31" height="31" viewBox="0 0 31 31" fill="none" xmlns="http://www.w3.org/2000/svg">
<path fill-rule="evenodd" clip-rule="evenodd" d="M15.3689 30.5288C7.08462 30.5288 0.368896 23.8131 0.368896 15.5288C0.368896 7.24454 7.08462 0.528809 15.3689 0.528809C23.6532 0.528809 30.3689 7.24454 30.3689 15.5288C30.3689 23.8131 23.6532 30.5288 15.3689 30.5288ZM15.3689 7.19548C14.4484 7.19548 13.7022 7.94167 13.7022 8.86214C13.7022 9.78262 14.4484 10.5288 15.3689 10.5288H15.3856C16.3061 10.5288 17.0522 9.78262 17.0522 8.86214C17.0522 7.94167 16.3061 7.19548 15.3856 7.19548H15.3689ZM12.8689 13.8621C11.9484 13.8621 11.2022 14.6083 11.2022 15.5288C11.2022 16.4493 11.9484 17.1955 12.8689 17.1955H13.7022V22.1955C13.7022 23.116 14.4484 23.8621 15.3689 23.8621H18.7022C19.6227 23.8621 20.3689 23.116 20.3689 22.1955C20.3689 21.275 19.6227 20.5288 18.7022 20.5288H17.0356V15.5288C17.0356 14.6083 16.2894 13.8621 15.3689 13.8621H12.8689Z" fill="#0B0D04"/>
</svg>
