<svg width="30" height="30" viewBox="0 0 30 30" fill="none" xmlns="http://www.w3.org/2000/svg">
<path fill-rule="evenodd" clip-rule="evenodd" d="M15 30C6.71573 30 0 23.2843 0 15C0 6.71573 6.71573 0 15 0C23.2843 0 30 6.71573 30 15C30 23.2843 23.2843 30 15 30ZM15 6.66667C14.0795 6.66667 13.3333 7.41286 13.3333 8.33333C13.3333 9.25381 14.0795 10 15 10H15.0167C15.9372 10 16.6833 9.25381 16.6833 8.33333C16.6833 7.41286 15.9372 6.66667 15.0167 6.66667H15ZM12.5 13.3333C11.5795 13.3333 10.8333 14.0795 10.8333 15C10.8333 15.9205 11.5795 16.6667 12.5 16.6667H13.3333V21.6667C13.3333 22.5871 14.0795 23.3333 15 23.3333H18.3333C19.2538 23.3333 20 22.5871 20 21.6667C20 20.7462 19.2538 20 18.3333 20H16.6667V15C16.6667 14.0795 15.9205 13.3333 15 13.3333H12.5Z" fill="#F4F2FB"/>
</svg>
