<svg width="30" height="30" viewBox="0 0 30 30" fill="none" xmlns="http://www.w3.org/2000/svg">
<path fill-rule="evenodd" clip-rule="evenodd" d="M12.3953 0.227884C14.3352 -0.114173 16.3235 -0.070789 18.2466 0.35556C20.1697 0.781908 21.9901 1.58287 23.6036 2.71272C25.2172 3.84257 26.5925 5.27917 27.6509 6.94051C28.7093 8.60184 29.4301 10.4554 29.7721 12.3953C30.1142 14.3352 30.0708 16.3235 29.6444 18.2466C29.2181 20.1697 28.4171 21.9901 27.2873 23.6036C26.1574 25.2172 24.7208 26.5925 23.0595 27.6509C21.3982 28.7093 19.5446 29.4301 17.6047 29.7721C15.6648 30.1142 13.6765 30.0708 11.7534 29.6444C9.83027 29.2181 8.00995 28.4171 6.39636 27.2873C4.78277 26.1574 3.40752 24.7208 2.34913 23.0595C1.29074 21.3982 0.569942 19.5446 0.227884 17.6047C-0.114173 15.6648 -0.0707892 13.6765 0.355559 11.7534C0.781908 9.83027 1.58287 8.00994 2.71272 6.39636C3.84256 4.78277 5.27917 3.40752 6.9405 2.34913C8.60184 1.29074 10.4554 0.569942 12.3953 0.227884ZM17.5973 3.28445C16.0588 2.94337 14.4681 2.90866 12.9162 3.18231C11.3643 3.45595 9.88147 4.03259 8.5524 4.8793C7.22333 5.72601 6.07405 6.82621 5.17017 8.11708C4.2663 9.40796 3.62553 10.8642 3.28445 12.4027C2.94337 13.9412 2.90866 15.5319 3.18231 17.0838C3.45595 18.6357 4.03259 20.1185 4.8793 21.4476C5.72602 22.7767 6.82621 23.926 8.11709 24.8298C9.40796 25.7337 10.8642 26.3745 12.4027 26.7156C13.9412 27.0566 15.5319 27.0913 17.0838 26.8177C18.6357 26.544 20.1185 25.9674 21.4476 25.1207C22.7767 24.274 23.9259 23.1738 24.8298 21.8829C25.7337 20.592 26.3745 19.1358 26.7156 17.5973C27.0566 16.0588 27.0913 14.4681 26.8177 12.9162C26.544 11.3643 25.9674 9.88147 25.1207 8.5524C24.274 7.22334 23.1738 6.07405 21.8829 5.17017C20.592 4.2663 19.1358 3.62553 17.5973 3.28445ZM13.5 9C13.5 8.17157 14.1716 7.5 15 7.5H15.015C15.8434 7.5 16.515 8.17157 16.515 9C16.515 9.82843 15.8434 10.5 15.015 10.5H15C14.1716 10.5 13.5 9.82843 13.5 9ZM11.25 15C11.25 14.1716 11.9216 13.5 12.75 13.5H15C15.8284 13.5 16.5 14.1716 16.5 15V19.5H18C18.8284 19.5 19.5 20.1716 19.5 21C19.5 21.8284 18.8284 22.5 18 22.5H15C14.1716 22.5 13.5 21.8284 13.5 21V16.5H12.75C11.9216 16.5 11.25 15.8284 11.25 15Z" fill="#F4F2FB"/>
</svg>
