<svg width="31" height="31" viewBox="0 0 31 31" fill="none" xmlns="http://www.w3.org/2000/svg">
<path fill-rule="evenodd" clip-rule="evenodd" d="M12.7642 0.483744C14.7041 0.141686 16.6924 0.18507 18.6155 0.611419C20.5386 1.03777 22.359 1.83873 23.9725 2.96858C25.5861 4.09842 26.9614 5.53503 28.0198 7.19636C29.0782 8.8577 29.799 10.7112 30.141 12.6511C30.4831 14.591 30.4397 16.5793 30.0133 18.5025C29.587 20.4256 28.786 22.2459 27.6562 23.8595C26.5263 25.4731 25.0897 26.8483 23.4284 27.9067C21.7671 28.9651 19.9135 29.6859 17.9736 30.028C16.0337 30.37 14.0454 30.3266 12.1223 29.9003C10.1992 29.474 8.37884 28.673 6.76525 27.5431C5.15166 26.4133 3.77642 24.9767 2.71803 23.3154C1.65964 21.654 0.938838 19.8005 0.596781 17.8606C0.254723 15.9207 0.298107 13.9324 0.724456 12.0093C1.1508 10.0861 1.95177 8.2658 3.08161 6.65222C4.21146 5.03863 5.64806 3.66338 7.3094 2.60499C8.97074 1.5466 10.8243 0.825801 12.7642 0.483744ZM17.9662 3.54031C16.4277 3.19923 14.837 3.16452 13.2851 3.43817C11.7332 3.71181 10.2504 4.28845 8.9213 5.13516C7.59223 5.98187 6.44295 7.08207 5.53907 8.37294C4.63519 9.66382 3.99442 11.1201 3.65334 12.6586C3.31227 14.1971 3.27756 15.7877 3.5512 17.3396C3.82485 18.8916 4.40149 20.3744 5.2482 21.7035C6.09491 23.0325 7.19511 24.1818 8.48598 25.0857C9.77685 25.9896 11.2331 26.6303 12.7716 26.9714C14.3101 27.3125 15.9008 27.3472 17.4527 27.0736C19.0046 26.7999 20.4874 26.2233 21.8165 25.3766C23.1456 24.5298 24.2948 23.4296 25.1987 22.1388C26.1026 20.8479 26.7434 19.3916 27.0845 17.8531C27.4255 16.3146 27.4602 14.724 27.1866 13.1721C26.9129 11.6202 26.3363 10.1373 25.4896 8.80826C24.6429 7.47919 23.5427 6.32991 22.2518 5.42603C20.9609 4.52216 19.5047 3.88139 17.9662 3.54031ZM13.8689 9.25586C13.8689 8.42743 14.5405 7.75586 15.3689 7.75586H15.3839C16.2123 7.75586 16.8839 8.42743 16.8839 9.25586C16.8839 10.0843 16.2123 10.7559 15.3839 10.7559H15.3689C14.5405 10.7559 13.8689 10.0843 13.8689 9.25586ZM11.6189 15.2559C11.6189 14.4274 12.2905 13.7559 13.1189 13.7559H15.3689C16.1973 13.7559 16.8689 14.4274 16.8689 15.2559V19.7559H18.3689C19.1973 19.7559 19.8689 20.4274 19.8689 21.2559C19.8689 22.0843 19.1973 22.7559 18.3689 22.7559H15.3689C14.5405 22.7559 13.8689 22.0843 13.8689 21.2559V16.7559H13.1189C12.2905 16.7559 11.6189 16.0843 11.6189 15.2559Z" fill="#0B0D04"/>
</svg>
