<svg width="30" height="30" viewBox="0 0 30 30" fill="none" xmlns="http://www.w3.org/2000/svg">
<path d="M1.875 7.5C1.875 7.00272 2.07254 6.52581 2.42417 6.17417C2.77581 5.82254 3.25272 5.625 3.75 5.625H7.5C7.99728 5.625 8.47419 5.82254 8.82582 6.17417C9.17746 6.52581 9.375 7.00272 9.375 7.5V11.25C9.375 11.7473 9.17746 12.2242 8.82582 12.5758C8.47419 12.9275 7.99728 13.125 7.5 13.125H3.75C3.25272 13.125 2.77581 12.9275 2.42417 12.5758C2.07254 12.2242 1.875 11.7473 1.875 11.25V7.5ZM11.25 7.5C11.25 7.00272 11.4475 6.52581 11.7992 6.17417C12.1508 5.82254 12.6277 5.625 13.125 5.625H16.875C17.3723 5.625 17.8492 5.82254 18.2008 6.17417C18.5525 6.52581 18.75 7.00272 18.75 7.5V11.25C18.75 11.7473 18.5525 12.2242 18.2008 12.5758C17.8492 12.9275 17.3723 13.125 16.875 13.125H13.125C12.6277 13.125 12.1508 12.9275 11.7992 12.5758C11.4475 12.2242 11.25 11.7473 11.25 11.25V7.5ZM20.625 7.5C20.625 7.00272 20.8225 6.52581 21.1742 6.17417C21.5258 5.82254 22.0027 5.625 22.5 5.625H26.25C26.7473 5.625 27.2242 5.82254 27.5758 6.17417C27.9275 6.52581 28.125 7.00272 28.125 7.5V11.25C28.125 11.7473 27.9275 12.2242 27.5758 12.5758C27.2242 12.9275 26.7473 13.125 26.25 13.125H22.5C22.0027 13.125 21.5258 12.9275 21.1742 12.5758C20.8225 12.2242 20.625 11.7473 20.625 11.25V7.5ZM1.875 16.875C1.875 16.3777 2.07254 15.9008 2.42417 15.5492C2.77581 15.1975 3.25272 15 3.75 15H7.5C7.99728 15 8.47419 15.1975 8.82582 15.5492C9.17746 15.9008 9.375 16.3777 9.375 16.875V20.625C9.375 21.1223 9.17746 21.5992 8.82582 21.9508C8.47419 22.3025 7.99728 22.5 7.5 22.5H3.75C3.25272 22.5 2.77581 22.3025 2.42417 21.9508C2.07254 21.5992 1.875 21.1223 1.875 20.625V16.875ZM11.25 16.875C11.25 16.3777 11.4475 15.9008 11.7992 15.5492C12.1508 15.1975 12.6277 15 13.125 15H16.875C17.3723 15 17.8492 15.1975 18.2008 15.5492C18.5525 15.9008 18.75 16.3777 18.75 16.875V20.625C18.75 21.1223 18.5525 21.5992 18.2008 21.9508C17.8492 22.3025 17.3723 22.5 16.875 22.5H13.125C12.6277 22.5 12.1508 22.3025 11.7992 21.9508C11.4475 21.5992 11.25 21.1223 11.25 20.625V16.875ZM20.625 16.875C20.625 16.3777 20.8225 15.9008 21.1742 15.5492C21.5258 15.1975 22.0027 15 22.5 15H26.25C26.7473 15 27.2242 15.1975 27.5758 15.5492C27.9275 15.9008 28.125 16.3777 28.125 16.875V20.625C28.125 21.1223 27.9275 21.5992 27.5758 21.9508C27.2242 22.3025 26.7473 22.5 26.25 22.5H22.5C22.0027 22.5 21.5258 22.3025 21.1742 21.9508C20.8225 21.5992 20.625 21.1223 20.625 20.625V16.875Z" fill="white"/>
</svg>
