<svg width="78" height="78" viewBox="0 0 78 78" fill="none" xmlns="http://www.w3.org/2000/svg">
<path fill-rule="evenodd" clip-rule="evenodd" d="M1.03847 1.03844C2.42306 -0.346147 4.66791 -0.346147 6.0525 1.03844L20.784 15.7699C20.8207 15.8051 20.8567 15.8411 20.8919 15.8779L35.2337 30.2196C35.2577 30.243 35.2814 30.2667 35.3048 30.2908L76.9616 71.9475C78.3461 73.3321 78.3461 75.577 76.9616 76.9616C75.577 78.3461 73.3321 78.3461 71.9475 76.9616L53.0725 58.0865C51.7442 58.7924 50.0587 58.5954 48.9273 57.4864C46.2763 54.8879 42.7121 53.4324 39 53.4324C35.2879 53.4324 31.7237 54.8879 29.0727 57.4864C27.6744 58.8571 25.4296 58.8346 24.059 57.4362C22.6883 56.0379 22.7107 53.7931 24.1091 52.4225C28.0856 48.5247 33.4318 46.3415 39 46.3415C39.83 46.3415 40.6551 46.39 41.4715 46.4855L31.6185 36.6325C25.9786 38.0221 20.8125 40.9286 16.6889 45.0524C15.3044 46.437 13.0595 46.437 11.6749 45.0525C10.2903 43.6679 10.2902 41.4231 11.6748 40.0385C15.7273 35.9857 20.6036 32.895 25.9425 30.9565L17.5558 22.5698C13.3298 24.6026 9.4095 27.2259 5.91395 30.3639C4.45685 31.672 2.21525 31.5512 0.907184 30.0941C-0.400881 28.637 -0.280069 26.3954 1.17702 25.0873C4.5587 22.0515 8.2882 19.4373 12.283 17.297L1.03847 6.05247C-0.346114 4.66788 -0.346114 2.42303 1.03847 1.03844ZM72.0916 30.1561C61.5014 20.6911 47.8372 16.5215 34.5658 17.713C32.6156 17.888 30.8926 16.449 30.7175 14.4987C30.5425 12.5485 31.9815 10.8255 33.9318 10.6505C49.095 9.28917 64.7162 14.0541 76.8169 24.8691C78.2768 26.174 78.4026 28.4153 77.0978 29.8753C75.7929 31.3352 73.5516 31.461 72.0916 30.1561ZM53.0983 34.6158C54.0511 32.9051 56.2102 32.2907 57.9209 33.2434C61.0983 35.0131 64.0125 37.2184 66.5789 39.7954C67.9606 41.1829 67.956 43.4277 66.5685 44.8095C65.1811 46.1912 62.9362 46.1865 61.5545 44.7991C59.4548 42.6906 57.0704 40.8862 54.4707 39.4384C52.76 38.4856 52.1456 36.3265 53.0983 34.6158ZM35.4546 67.3636C35.4546 65.4055 37.0419 63.8182 39 63.8182H39.0355C40.9936 63.8182 42.5809 65.4055 42.5809 67.3636C42.5809 69.3217 40.9936 70.9091 39.0355 70.9091H39C37.0419 70.9091 35.4546 69.3217 35.4546 67.3636Z" fill="#A3A8B2"/>
</svg>
