<svg width="29" height="29" viewBox="0 0 24 24" fill="none" xmlns="http://www.w3.org/2000/svg">
<path d="M18.59 3.20415C18.1641 2.80296 17.6629 2.49031 17.1153 2.28431C16.5677 2.07832 15.9847 1.98309 15.4 2.00415H8.66999C8.08046 1.98019 7.49206 2.07397 6.93919 2.28001C6.38632 2.48605 5.88006 2.80022 5.44999 3.20415C5.01678 3.60773 4.66748 4.09283 4.42209 4.63165C4.17671 5.17048 4.04006 5.75242 4.01999 6.34415V19.7042C4.04999 20.1522 4.19799 20.5832 4.44999 20.9542C4.70399 21.3142 5.04999 21.6002 5.44999 21.7842C5.85799 21.9642 6.30699 22.0341 6.74999 21.9841C7.18746 21.9276 7.60181 21.755 7.94999 21.4841L11.38 18.9442C11.5601 18.8176 11.7749 18.7498 11.995 18.7498C12.2151 18.7498 12.4299 18.8176 12.61 18.9442L16.02 21.4742C16.372 21.7522 16.794 21.9291 17.24 21.9841H17.54C17.8849 21.9806 18.2254 21.9057 18.54 21.7642C18.9433 21.5847 19.2893 21.2975 19.54 20.9342C19.8065 20.5511 19.9591 20.1003 19.98 19.6342V6.32415C19.968 5.7377 19.8388 5.15957 19.6001 4.62377C19.3614 4.08796 19.0179 3.6053 18.59 3.20415ZM15.31 11.0042L12.94 13.3642C12.8214 13.4862 12.6783 13.5817 12.52 13.6442C12.4129 13.694 12.2977 13.7245 12.18 13.7342H11.88C11.7622 13.7245 11.6471 13.694 11.54 13.6442C11.383 13.5792 11.2403 13.484 11.12 13.3642L8.75999 11.0042C8.62751 10.862 8.55539 10.6739 8.55881 10.4796C8.56224 10.2853 8.64095 10.0999 8.77837 9.96253C8.91578 9.82512 9.10117 9.7464 9.29547 9.74298C9.48977 9.73955 9.67781 9.81167 9.81999 9.94415L11.29 11.4142V7.00415C11.29 6.90566 11.3094 6.80813 11.3471 6.71714C11.3848 6.62614 11.44 6.54347 11.5097 6.47382C11.5793 6.40418 11.662 6.34893 11.753 6.31124C11.844 6.27355 11.9415 6.25415 12.04 6.25415C12.1385 6.25415 12.236 6.27355 12.327 6.31124C12.418 6.34893 12.5007 6.40418 12.5703 6.47382C12.64 6.54347 12.6952 6.62614 12.7329 6.71714C12.7706 6.80813 12.79 6.90566 12.79 7.00415V11.4142L14.27 9.94415C14.4122 9.81167 14.6002 9.73955 14.7945 9.74298C14.9888 9.7464 15.1742 9.82512 15.3116 9.96253C15.449 10.0999 15.5277 10.2853 15.5312 10.4796C15.5346 10.6739 15.4625 10.862 15.33 11.0042H15.31Z" fill="black"/>
</svg>
