<svg width="24" height="24" viewBox="0 0 24 24" fill="none" xmlns="http://www.w3.org/2000/svg">
<path d="M10.94 18.339L7.51 20.887C7.26537 21.0785 6.9732 21.1997 6.66487 21.2377C6.35654 21.2756 6.0437 21.2288 5.75995 21.1024C5.4762 20.9759 5.23225 20.7746 5.05432 20.5199C4.87638 20.2653 4.77118 19.967 4.75 19.657V6.35002C4.7678 5.85969 4.88203 5.37767 5.08617 4.9315C5.29031 4.48533 5.58037 4.08375 5.93976 3.74971C6.29915 3.41568 6.72083 3.15572 7.18072 2.98471C7.6406 2.81369 8.12968 2.73496 8.62 2.75302H15.38C16.3699 2.71789 17.3333 3.07688 18.0588 3.75123C18.7844 4.42558 19.2128 5.3602 19.25 6.35002V19.659C19.2293 19.9692 19.1244 20.2678 18.9465 20.5228C18.7686 20.7777 18.5245 20.9793 18.2406 21.1057C17.9566 21.2322 17.6435 21.2787 17.335 21.2404C17.0265 21.202 16.7344 21.0802 16.49 20.888L13.06 18.34C12.7521 18.1157 12.381 17.9948 12 17.9948C11.619 17.9948 11.2479 18.1147 10.94 18.339Z" stroke="#ffffff" stroke-width="1.5" stroke-linecap="round" stroke-linejoin="round"/>
<path d="M9 9.9181L10.689 11.6071C10.7485 11.667 10.8192 11.7145 10.8971 11.7469C10.975 11.7793 11.0586 11.796 11.143 11.796C11.2274 11.796 11.311 11.7793 11.3889 11.7469C11.4668 11.7145 11.5375 11.667 11.597 11.6071L15 8.2041" stroke="#ffffff" stroke-width="1.5" stroke-linecap="round" stroke-linejoin="round"/>
</svg>
