<svg width="24" height="24" viewBox="0 0 24 24" fill="none" xmlns="http://www.w3.org/2000/svg">
<path d="M18.59 3.20414C18.1648 2.80202 17.6637 2.48877 17.1159 2.28272C16.5682 2.07667 15.9848 1.98196 15.4 2.00414H8.67002C8.07948 1.98276 7.49053 2.07817 6.93694 2.28488C6.38334 2.4916 5.876 2.80556 5.444 3.20876C5.012 3.61196 4.66384 4.09647 4.41948 4.63451C4.17512 5.17255 4.03937 5.75353 4.02002 6.34414V19.7041C4.05002 20.1511 4.19802 20.5831 4.45002 20.9541C4.70402 21.3141 5.05002 21.6001 5.45002 21.7841C5.85802 21.9641 6.30702 22.0331 6.75002 21.9841C7.18749 21.9276 7.60184 21.755 7.95002 21.4841L11.38 18.9441C11.5601 18.8176 11.7749 18.7497 11.995 18.7497C12.2151 18.7497 12.4299 18.8176 12.61 18.9441L16.02 21.4741C16.3725 21.7523 16.7944 21.9287 17.24 21.9841H17.54C17.885 21.9806 18.2254 21.9057 18.54 21.7641C18.943 21.5841 19.289 21.2971 19.54 20.9341C19.8065 20.5511 19.9591 20.1003 19.98 19.6341V6.32414C19.968 5.73769 19.8388 5.15956 19.6001 4.62376C19.3614 4.08795 19.018 3.60528 18.59 3.20414ZM15.59 8.73414L12.19 12.1341C12.0618 12.266 11.9089 12.3714 11.74 12.4441C11.5703 12.5072 11.3911 12.541 11.21 12.5441C11.0252 12.5468 10.8417 12.5128 10.67 12.4441C10.5003 12.3684 10.3473 12.2596 10.22 12.1241L8.53002 10.4441C8.39754 10.302 8.32542 10.1139 8.32884 9.91961C8.33227 9.72531 8.41098 9.53993 8.5484 9.40251C8.68581 9.2651 8.8712 9.18639 9.0655 9.18296C9.2598 9.17953 9.44784 9.25166 9.59002 9.38414L11.21 11.0041L14.53 7.67414C14.6706 7.53369 14.8613 7.4548 15.06 7.4548C15.2588 7.4548 15.4494 7.53369 15.59 7.67414C15.6608 7.74308 15.717 7.8255 15.7554 7.91652C15.7938 8.00755 15.8136 8.10534 15.8136 8.20414C15.8136 8.30293 15.7938 8.40072 15.7554 8.49175C15.717 8.58277 15.6608 8.66519 15.59 8.73414Z" fill="#0B0D04"/>
</svg>
