<svg width="29" height="29" viewBox="0 0 29 29" fill="none" xmlns="http://www.w3.org/2000/svg">
<g>
<path d="M22.4629 3.8713C21.9492 3.38541 21.3436 3.0069 20.6817 2.75792C20.0199 2.50895 19.315 2.3945 18.6083 2.4213H10.4763C9.76269 2.39547 9.05104 2.51075 8.38212 2.76054C7.7132 3.01032 7.10016 3.38969 6.57816 3.87689C6.05616 4.36409 5.63546 4.94954 5.3402 5.59966C5.04493 6.24979 4.8809 6.95181 4.85751 7.66547V23.8088C4.89376 24.3489 5.0726 24.8709 5.3771 25.3192C5.68401 25.7542 6.1021 26.0998 6.58543 26.3221C7.07843 26.5396 7.62097 26.623 8.15626 26.5638C8.68487 26.4955 9.18555 26.2869 9.60626 25.9596L13.7508 22.8905C13.9685 22.7376 14.228 22.6556 14.494 22.6556C14.7599 22.6556 15.0194 22.7376 15.2371 22.8905L19.3575 25.9476C19.7835 26.2837 20.2933 26.4968 20.8317 26.5638H21.1942C21.611 26.5595 22.0224 26.469 22.4025 26.298C22.8899 26.0811 23.308 25.7341 23.6108 25.295C23.9329 24.8322 24.1172 24.2875 24.1425 23.7242V7.6413C24.128 6.93267 23.9719 6.2341 23.6835 5.58667C23.395 4.93924 22.98 4.35602 22.4629 3.8713ZM17.8833 14.1542C17.9688 14.2375 18.0368 14.3371 18.0832 14.4471C18.1296 14.5571 18.1535 14.6753 18.1535 14.7946C18.1535 14.914 18.1296 15.0322 18.0832 15.1422C18.0368 15.2522 17.9688 15.3517 17.8833 15.435C17.8016 15.5231 17.7025 15.5932 17.5922 15.6411C17.482 15.6889 17.3631 15.7134 17.2429 15.713C17.0039 15.7066 16.7758 15.6119 16.6025 15.4471L14.5121 13.3688L12.4458 15.435C12.361 15.5191 12.2603 15.5857 12.1497 15.6309C12.0391 15.6761 11.9207 15.6991 11.8012 15.6985C11.6817 15.698 11.5634 15.6739 11.4533 15.6276C11.3431 15.5814 11.2431 15.5139 11.159 15.429C11.0749 15.3441 11.0083 15.2435 10.9631 15.1329C10.9179 15.0223 10.8949 14.9038 10.8955 14.7843C10.896 14.6648 10.9201 14.5466 10.9664 14.4364C11.0126 14.3262 11.0801 14.2262 11.165 14.1421L13.2313 12.088L11.165 10.0217C11.0049 9.84992 10.9178 9.6227 10.9219 9.38792C10.9261 9.15314 11.0212 8.92913 11.1872 8.76309C11.3533 8.59705 11.5773 8.50194 11.812 8.4978C12.0468 8.49365 12.2741 8.5808 12.4458 8.74088L14.5121 10.8071L16.6025 8.7288C16.7724 8.55909 17.0028 8.46376 17.2429 8.46376C17.4831 8.46376 17.7134 8.55909 17.8833 8.7288C17.9688 8.81211 18.0368 8.91169 18.0832 9.02168C18.1296 9.13167 18.1535 9.24984 18.1535 9.36922C18.1535 9.48859 18.1296 9.60676 18.0832 9.71675C18.0368 9.82674 17.9688 9.92632 17.8833 10.0096L15.805 12.088L17.8833 14.1542Z" fill="black"/>
</g>
</svg>
