<svg width="30" height="30" viewBox="0 0 30 30" fill="none" xmlns="http://www.w3.org/2000/svg">
<path fill-rule="evenodd" clip-rule="evenodd" d="M13.3333 3.33333C7.81049 3.33333 3.33333 7.81049 3.33333 13.3333C3.33333 18.8562 7.81049 23.3333 13.3333 23.3333C18.8562 23.3333 23.3333 18.8562 23.3333 13.3333C23.3333 7.81049 18.8562 3.33333 13.3333 3.33333ZM0 13.3333C0 5.96954 5.96954 0 13.3333 0C20.6971 0 26.6667 5.96954 26.6667 13.3333C26.6667 20.6971 20.6971 26.6667 13.3333 26.6667C5.96954 26.6667 0 20.6971 0 13.3333Z" fill="#384357"/>
<path fill-rule="evenodd" clip-rule="evenodd" d="M22.1548 22.1548C22.8057 21.5039 23.861 21.5039 24.5118 22.1548L29.5118 27.1548C30.1627 27.8057 30.1627 28.861 29.5118 29.5118C28.861 30.1627 27.8057 30.1627 27.1548 29.5118L22.1548 24.5118C21.5039 23.861 21.5039 22.8057 22.1548 22.1548Z" fill="#384357"/>
</svg>
