<svg width="30" height="30" viewBox="0 0 30 30" fill="none" xmlns="http://www.w3.org/2000/svg">
<path fill-rule="evenodd" clip-rule="evenodd" d="M17.9756 0.812416C18.1066 1.06639 18.1392 1.39165 18.2042 2.04216C18.3273 3.27346 18.3889 3.8891 18.6466 4.22689C18.9735 4.65537 19.5051 4.87557 20.0392 4.80372C20.4602 4.74707 20.9391 4.35528 21.8968 3.5717C22.4028 3.15772 22.6558 2.95074 22.928 2.86377C23.2737 2.75332 23.6478 2.77198 23.9808 2.91629C24.243 3.0299 24.4742 3.26104 24.9364 3.7233L26.2766 5.0635C26.7389 5.52578 26.97 5.75691 27.0837 6.01913C27.228 6.35216 27.2466 6.72622 27.1362 7.07196C27.0492 7.34418 26.8422 7.59717 26.4282 8.10315C25.6446 9.06089 25.2528 9.53977 25.1962 9.96083C25.1244 10.4949 25.3445 11.0265 25.773 11.3534C26.1108 11.6111 26.7265 11.6726 27.9578 11.7958C28.6083 11.8608 28.9336 11.8934 29.1876 12.0244C29.5102 12.1907 29.7615 12.4684 29.8949 12.8059C30 13.0717 30 13.3986 30 14.0524V15.9478C30 16.6014 30 16.9282 29.895 17.1939C29.7615 17.5315 29.5101 17.8093 29.1875 17.9757C28.9335 18.1066 28.6083 18.1392 27.9579 18.2042C26.727 18.3273 26.1115 18.3888 25.7738 18.6464C25.3451 18.9733 25.1248 19.5051 25.1968 20.0394C25.2535 20.4603 25.6452 20.939 26.4285 21.8964C26.8423 22.4022 27.0492 22.6551 27.1362 22.9272C27.2467 23.273 27.2281 23.6473 27.0837 23.9804C26.97 24.2425 26.739 24.4736 26.2769 24.9357L24.9365 26.276C24.4742 26.7383 24.2431 26.9694 23.9809 27.083C23.6479 27.2274 23.2738 27.246 22.928 27.1356C22.6558 27.0486 22.4028 26.8416 21.8969 26.4276C20.9392 25.6441 20.4603 25.2523 20.0392 25.1956C19.5051 25.1238 18.9735 25.344 18.6467 25.7724C18.389 26.1102 18.3274 26.726 18.2043 27.9575C18.1392 28.6083 18.1066 28.9337 17.9756 29.1877C17.8092 29.5102 17.5316 29.7614 17.1942 29.8949C16.9284 30 16.6014 30 15.9474 30H14.0524C13.3986 30 13.0717 30 12.8059 29.8949C12.4684 29.7615 12.1907 29.5102 12.0244 29.1876C11.8934 28.9336 11.8608 28.6084 11.7958 27.9578C11.6726 26.7265 11.6111 26.1108 11.3534 25.773C11.0265 25.3446 10.4949 25.1244 9.96086 25.1962C9.53978 25.2528 9.06089 25.6446 8.10311 26.4283C7.59712 26.8423 7.3441 27.0493 7.07187 27.1363C6.72615 27.2467 6.3521 27.228 6.01908 27.0837C5.75685 26.9701 5.52571 26.739 5.06341 26.2767L3.72325 24.9365C3.26097 24.4742 3.02983 24.2431 2.91621 23.9809C2.77191 23.6479 2.75325 23.2738 2.8637 22.9281C2.95066 22.6558 3.15766 22.4028 3.57166 21.8968C4.35526 20.9391 4.74707 20.4602 4.80371 20.0392C4.87556 19.5051 4.65536 18.9735 4.22689 18.6466C3.8891 18.3889 3.27345 18.3273 2.04215 18.2042C1.39165 18.1392 1.06639 18.1066 0.812418 17.9756C0.489837 17.8093 0.238523 17.5316 0.105071 17.194C0 16.9283 0 16.6014 0 15.9477V14.0525C0 13.3986 0 13.0716 0.105126 12.8058C0.238575 12.4684 0.489812 12.1908 0.812284 12.0244C1.06632 11.8934 1.39165 11.8608 2.04233 11.7958C3.27395 11.6726 3.88978 11.611 4.22762 11.3532C4.65593 11.0264 4.87605 10.495 4.8043 9.96099C4.74771 9.53981 4.35578 9.06078 3.57192 8.10273C3.15775 7.59652 2.95066 7.34342 2.8637 7.07108C2.75335 6.72546 2.772 6.35157 2.91619 6.01865C3.02982 5.75631 3.26105 5.52509 3.7235 5.06263L5.06348 3.72265C5.52577 3.26036 5.75692 3.02921 6.01915 2.91559C6.35217 2.7713 6.72622 2.75264 7.07194 2.86308C7.34417 2.95005 7.59721 3.15708 8.1033 3.57114C9.06092 4.35466 9.53973 4.74641 9.96066 4.8031C10.4949 4.87505 11.0267 4.65478 11.3536 4.22613C11.6112 3.8884 11.6727 3.27292 11.7958 2.04196C11.8608 1.39164 11.8934 1.06647 12.0243 0.812556C12.1907 0.489863 12.4685 0.238471 12.8061 0.105014C13.0718 0 13.3986 0 14.0521 0H15.9477C16.6014 0 16.9283 0 17.194 0.105072C17.5316 0.238524 17.8093 0.489836 17.9756 0.812416ZM15 21C18.3137 21 21 18.3137 21 15C21 11.6863 18.3137 9 15 9C11.6863 9 9 11.6863 9 15C9 18.3137 11.6863 21 15 21Z" fill="#F4F2FB"/>
</svg>
