<svg width="30" height="30" viewBox="0 0 30 30" fill="none" xmlns="http://www.w3.org/2000/svg">
<path fill-rule="evenodd" clip-rule="evenodd" d="M14.1038 2.40777e-06H15.8961C16.1633 -2.55522e-05 16.4262 -5.30244e-05 16.6512 0.0149757C16.8995 0.0315582 17.1909 0.0704158 17.496 0.191044C18.1097 0.433685 18.6146 0.890617 18.9171 1.47713C19.0675 1.76871 19.1351 2.05478 19.1763 2.30019C19.2137 2.52261 19.2398 2.78418 19.2664 3.05007L19.2698 3.08446C19.328 3.66703 19.3647 4.02334 19.4102 4.2763C19.4136 4.29537 19.417 4.31282 19.4202 4.32874C19.4337 4.31974 19.4484 4.30976 19.4643 4.2987C19.6753 4.15202 19.9532 3.92598 20.4063 3.55524L20.433 3.53337C20.6398 3.36414 20.8433 3.19765 21.027 3.06678C21.2296 2.92239 21.4798 2.76795 21.7923 2.66811C22.4209 2.46728 23.101 2.5012 23.7066 2.76359C24.0076 2.89403 24.2411 3.07259 24.4284 3.23643C24.5982 3.38494 24.7841 3.57087 24.973 3.75986L24.9974 3.78422L26.2402 5.02707C26.4292 5.21598 26.615 5.40183 26.7635 5.57156C26.9274 5.75886 27.1059 5.99238 27.2364 6.29341C27.4988 6.89894 27.5327 7.57905 27.3319 8.20765C27.232 8.52019 27.0776 8.77032 26.9332 8.97299C26.8023 9.15668 26.6358 9.36015 26.4665 9.56696L26.4447 9.59365C26.074 10.0468 25.8479 10.3246 25.7012 10.5357C25.6902 10.5516 25.6802 10.5663 25.6712 10.5798C25.6871 10.583 25.7045 10.5863 25.7236 10.5898C25.9766 10.6353 26.3329 10.6719 26.9155 10.7302L26.9499 10.7336C27.2158 10.7602 27.4774 10.7863 27.6998 10.8237C27.9452 10.8649 28.2313 10.9326 28.5229 11.083C29.1094 11.3855 29.5663 11.8903 29.8089 12.504C29.9296 12.8091 29.9684 13.1005 29.985 13.3488C30.0001 13.5738 30 13.8367 30 14.104V15.8962C30 16.1634 30.0001 16.4262 29.985 16.6512C29.9685 16.8994 29.9296 17.1907 29.809 17.4958C29.5664 18.1096 29.1093 18.6146 28.5227 18.9172C28.2311 19.0675 27.9451 19.1351 27.6998 19.1763C27.4774 19.2137 27.2158 19.2398 26.9499 19.2664L26.9156 19.2698C26.3332 19.328 25.977 19.3647 25.7241 19.4102C25.705 19.4136 25.6876 19.4169 25.6717 19.4201C25.6807 19.4336 25.6906 19.4483 25.7017 19.4642C25.8483 19.6752 26.0743 19.953 26.4449 20.4059L26.4668 20.4327C26.636 20.6394 26.8024 20.8428 26.9332 21.0264C27.0776 21.229 27.232 21.479 27.3318 21.7914C27.5328 22.4202 27.4988 23.1006 27.2363 23.7063C27.1059 24.0072 26.9273 24.2407 26.7636 24.4279C26.6151 24.5976 26.4293 24.7833 26.2404 24.9722L24.9731 26.2395C24.7841 26.4285 24.5982 26.6145 24.4285 26.763C24.2412 26.9268 24.0077 27.1054 23.7066 27.2358C23.1011 27.4982 22.421 27.5321 21.7923 27.3313C21.4798 27.2314 21.2297 27.077 21.027 26.9326C20.8433 26.8018 20.6399 26.6353 20.4331 26.466L20.4121 26.4489L20.4063 26.4442C19.9532 26.0735 19.6754 25.8474 19.4643 25.7007C19.4484 25.6896 19.4337 25.6797 19.4202 25.6707C19.417 25.6866 19.4137 25.7041 19.4103 25.7231C19.3647 25.9762 19.3281 26.3326 19.2698 26.9152L19.2664 26.9496C19.2398 27.2156 19.2137 27.4773 19.1763 27.6998C19.1351 27.9453 19.0674 28.2315 18.9169 28.5232C18.6145 29.1094 18.1097 29.5662 17.4963 29.8088C17.1911 29.9295 16.8996 29.9684 16.6512 29.985C16.4261 30.0001 16.1632 30 15.8958 30H14.104C13.8367 30 13.5738 30.0001 13.3488 29.985C13.1005 29.9684 12.8091 29.9296 12.504 29.8089C11.8903 29.5663 11.3855 29.1094 11.083 28.5229C10.9326 28.2313 10.8649 27.9452 10.8237 27.6998C10.7863 27.4774 10.7602 27.2158 10.7336 26.9499L10.7302 26.9155C10.6719 26.3329 10.6353 25.9766 10.5898 25.7236C10.5863 25.7046 10.583 25.6871 10.5798 25.6712C10.5663 25.6802 10.5516 25.6902 10.5357 25.7012C10.3251 25.8476 10.048 26.073 9.59666 26.4422L9.56687 26.4666C9.36006 26.6359 9.1566 26.8024 8.97291 26.9332C8.77023 27.0776 8.52009 27.2321 8.20756 27.3319C7.57897 27.5327 6.89889 27.4988 6.29339 27.2365C5.99234 27.106 5.75881 26.9274 5.57151 26.7636C5.40178 26.6151 5.21593 26.4292 5.02703 26.2403L3.78418 24.9974L3.75971 24.973C3.57075 24.7841 3.38485 24.5982 3.23636 24.4285C3.07252 24.2411 2.89395 24.0076 2.76351 23.7066C2.50115 23.1011 2.46723 22.421 2.66804 21.7924C2.76787 21.4798 2.92232 21.2297 3.06672 21.027C3.1976 20.8433 3.3641 20.6399 3.53335 20.4331L3.5552 20.4064C3.92595 19.9532 4.152 19.6753 4.29868 19.4643C4.30975 19.4484 4.31973 19.4337 4.32873 19.4202C4.31281 19.417 4.29537 19.4136 4.27629 19.4102C4.02333 19.3647 3.66702 19.328 3.08445 19.2698L3.05006 19.2664C2.78417 19.2398 2.5226 19.2137 2.30019 19.1763C2.05478 19.1351 1.76871 19.0675 1.47713 18.9171C0.890615 18.6146 0.433683 18.1097 0.191043 17.496C0.0704154 17.1909 0.0315579 16.8995 0.0149756 16.6512C-5.30244e-05 16.4262 -2.55526e-05 16.1633 2.40735e-06 15.8961V14.1041C-2.55526e-05 13.8368 -5.3187e-05 13.5739 0.0149834 13.3488C0.0315747 13.1004 0.0704529 12.809 0.191143 12.5038C0.433775 11.8903 0.89057 11.3855 1.47688 11.0831C1.76853 10.9326 2.05467 10.8649 2.30014 10.8237C2.52262 10.7863 2.78427 10.7602 3.05023 10.7336L3.08462 10.7302C3.66661 10.672 4.02393 10.6352 4.27678 10.5897C4.29585 10.5863 4.3133 10.583 4.32922 10.5798C4.32022 10.5663 4.31023 10.5516 4.29916 10.5356C4.15243 10.3245 3.92631 10.0465 3.55544 9.59326L3.53356 9.56652C3.36424 9.35962 3.19768 9.15609 3.06676 8.97233C2.92231 8.76957 2.76782 8.51933 2.66798 8.20667C2.46734 7.57828 2.50125 6.89847 2.76342 6.29316C2.89387 5.99199 3.07249 5.75837 3.23639 5.571C3.38494 5.40118 3.57092 5.21524 3.75996 5.02624C3.7681 5.01809 3.77625 5.00995 3.7844 5.0018L5.00257 3.78363C5.01072 3.77548 5.01887 3.76733 5.02701 3.75919C5.21594 3.57021 5.40182 3.3843 5.57157 3.23581C5.75887 3.07195 5.9924 2.89338 6.29346 2.76294C6.89895 2.50059 7.57903 2.46667 8.20762 2.66747C8.52018 2.76732 8.77034 2.92178 8.97302 3.06619C9.15672 3.19707 9.36019 3.36358 9.56703 3.53285L9.59378 3.55474C10.0469 3.92544 10.3247 4.15147 10.5357 4.29815C10.5517 4.30922 10.5664 4.31922 10.5799 4.32823C10.5831 4.31231 10.5864 4.29487 10.5899 4.27579C10.6354 4.0229 10.672 3.66669 10.7302 3.08428L10.7337 3.04994C10.7602 2.78411 10.7863 2.5226 10.8237 2.30023C10.8649 2.05489 10.9325 1.76889 11.0828 1.47738C11.3853 0.890669 11.8904 0.433588 12.5043 0.190939C12.8093 0.0703765 13.1006 0.0315407 13.3489 0.0149674C13.5738 -5.30244e-05 13.8366 -2.55522e-05 14.1038 2.40777e-06ZM22.1334 24.3333L22.0946 24.3016C21.6926 23.9727 21.3308 23.6766 21.0208 23.4612C20.7117 23.2463 20.2867 22.9877 19.7629 22.9173C18.7918 22.7866 17.8253 23.187 17.231 23.9661C16.9104 24.3862 16.7928 24.8697 16.7261 25.2402C16.6592 25.6118 16.6127 26.0771 16.5611 26.5941L16.5561 26.6438C16.5247 26.9577 16.5071 27.1267 16.4867 27.2482C16.4858 27.2533 16.485 27.2582 16.4842 27.2628C16.4796 27.2631 16.4746 27.2635 16.4694 27.2638C16.3466 27.272 16.1767 27.2727 15.8613 27.2727H14.1385C13.8232 27.2727 13.6534 27.272 13.5306 27.2638C13.5253 27.2635 13.5204 27.2631 13.5158 27.2628C13.515 27.2582 13.5142 27.2534 13.5133 27.2482C13.4929 27.1268 13.4753 26.9579 13.4439 26.6442L13.439 26.5943C13.3873 26.0774 13.3408 25.6122 13.2739 25.2406C13.2073 24.8701 13.0896 24.3867 12.7691 23.9665C12.1748 23.1875 11.2083 22.7872 10.2372 22.9178C9.71343 22.9882 9.28839 23.2469 8.97928 23.4617C8.66924 23.6772 8.30739 23.9733 7.90536 24.3022L7.8666 24.334C7.86177 24.3379 7.85698 24.3418 7.85224 24.3457C7.61736 24.5378 7.48869 24.642 7.39041 24.7121C7.38616 24.7151 7.38213 24.7179 7.37833 24.7206C7.37482 24.7175 7.3711 24.7143 7.36718 24.7109C7.27451 24.6298 7.15392 24.5102 6.93098 24.2873L5.71265 23.069C5.48972 22.846 5.37012 22.7254 5.28906 22.6328C5.28563 22.6289 5.2824 22.6251 5.27938 22.6216C5.28204 22.6178 5.28488 22.6138 5.28791 22.6095C5.35934 22.5093 5.46635 22.3774 5.666 22.1334L5.69771 22.0946C6.02667 21.6926 6.32275 21.3308 6.53822 21.0207C6.75304 20.7116 7.01166 20.2866 7.08211 19.7629C7.21274 18.7918 6.81239 17.8252 6.03334 17.2309C5.61319 16.9104 5.12978 16.7927 4.75932 16.7261C4.38772 16.6592 3.92249 16.6127 3.40561 16.561L3.35583 16.5561C3.04212 16.5247 2.8732 16.5071 2.7518 16.4867C2.74665 16.4858 2.7418 16.485 2.73724 16.4842C2.73688 16.4796 2.73653 16.4747 2.73619 16.4694C2.72798 16.3466 2.72728 16.1768 2.72728 15.8615V14.1387C2.72728 13.8233 2.72798 13.6534 2.73619 13.5306C2.73654 13.5253 2.73689 13.5204 2.73724 13.5158C2.7418 13.515 2.74665 13.5142 2.7518 13.5133C2.87313 13.4929 3.04188 13.4753 3.35511 13.444L3.40577 13.439C3.9228 13.3873 4.38817 13.3408 4.75986 13.2739C5.13042 13.2072 5.61395 13.0895 6.03417 12.7688C6.8129 12.1746 7.21313 11.2083 7.08268 10.2375C7.01228 9.71359 6.75359 9.28843 6.53872 8.97924C6.32319 8.66911 6.02702 8.30716 5.69795 7.90501L5.66623 7.86625C5.4665 7.62213 5.35945 7.49018 5.28798 7.38986C5.28495 7.38561 5.28211 7.38158 5.27946 7.37778C5.28248 7.37427 5.2857 7.37055 5.28914 7.36662C5.37022 7.27392 5.48986 7.15329 5.71288 6.93027L6.93104 5.71211C7.15398 5.48917 7.27458 5.36957 7.36724 5.28851C7.37117 5.28507 7.37488 5.28185 7.3784 5.27883C7.3822 5.28149 7.38623 5.28433 7.39049 5.28736C7.49078 5.35882 7.62271 5.46585 7.86677 5.66553L7.90548 5.69721C8.30746 6.02614 8.66926 6.32219 8.97924 6.53764C9.28825 6.75241 9.71318 7.01101 10.2368 7.08153C11.2082 7.21235 12.175 6.81186 12.7694 6.03249C13.0898 5.6124 13.2074 5.12913 13.274 4.75877C13.3409 4.38728 13.3873 3.92218 13.439 3.40545L13.444 3.35565C13.4753 3.04203 13.4929 2.87316 13.5133 2.75179C13.5142 2.74664 13.515 2.74179 13.5158 2.73723C13.5204 2.73688 13.5253 2.73653 13.5305 2.73618C13.6533 2.72798 13.8231 2.72728 14.1383 2.72728H15.8615C16.1768 2.72728 16.3466 2.72798 16.4694 2.73619C16.4747 2.73653 16.4796 2.73688 16.4842 2.73724C16.485 2.7418 16.4858 2.74665 16.4867 2.7518C16.5071 2.87321 16.5247 3.04213 16.5561 3.35583L16.561 3.40561C16.6127 3.9225 16.6592 4.38773 16.7261 4.75933C16.7927 5.12978 16.9104 5.61319 17.2309 6.03334C17.8252 6.8124 18.7918 7.21276 19.7629 7.08212C20.2866 7.01166 20.7116 6.75305 21.0207 6.53824C21.3308 6.32276 21.6926 6.02667 22.0946 5.69771L22.1333 5.66603C22.3773 5.4664 22.5092 5.3594 22.6095 5.28796C22.6137 5.28494 22.6178 5.2821 22.6216 5.27945C22.6251 5.28246 22.6288 5.28569 22.6327 5.28912C22.7254 5.37018 22.846 5.48977 23.0689 5.71269L24.2873 6.93106C24.5102 7.15399 24.6298 7.27458 24.7108 7.36724C24.7143 7.37116 24.7175 7.37488 24.7205 7.3784C24.7179 7.38219 24.715 7.38622 24.712 7.39047C24.6406 7.49074 24.5336 7.62263 24.3339 7.86663L24.3022 7.90537C23.9733 8.30739 23.6772 8.66924 23.4617 8.97928C23.2469 9.28838 22.9883 9.71341 22.9178 10.2372C22.7872 11.2082 23.1875 12.1748 23.9665 12.7691C24.3867 13.0896 24.8701 13.2073 25.2406 13.2739C25.6122 13.3408 26.0775 13.3873 26.5944 13.439L26.6441 13.4439C26.9579 13.4753 27.1268 13.4929 27.2482 13.5133C27.2533 13.5142 27.2582 13.515 27.2628 13.5158C27.2631 13.5204 27.2635 13.5253 27.2638 13.5306C27.272 13.6534 27.2727 13.8232 27.2727 14.1385V15.8617C27.2727 16.1769 27.272 16.3466 27.2638 16.4695C27.2635 16.4747 27.2631 16.4796 27.2628 16.4842C27.2582 16.485 27.2534 16.4858 27.2482 16.4867C27.1268 16.5071 26.9579 16.5247 26.6443 16.556L26.5945 16.561C26.0778 16.6127 25.6127 16.6591 25.2412 16.726C24.8708 16.7926 24.3876 16.9102 23.9675 17.2305C23.188 17.8249 22.7875 18.7919 22.9184 19.7633C22.9889 20.2869 23.2475 20.7117 23.4622 21.0207C23.6776 21.3307 23.9736 21.6924 24.3025 22.0943L24.3341 22.1329C24.5337 22.3769 24.6406 22.5087 24.7121 22.6089C24.7151 22.6132 24.7179 22.6172 24.7206 22.621C24.7176 22.6245 24.7143 22.6282 24.7109 22.6322C24.6299 22.7248 24.5103 22.8453 24.2875 23.0682L23.0689 24.2867C22.846 24.5096 22.7254 24.6292 22.6328 24.7103C22.6289 24.7137 22.6251 24.7169 22.6216 24.7199C22.6178 24.7173 22.6138 24.7145 22.6095 24.7114C22.5093 24.64 22.3774 24.533 22.1334 24.3333ZM15 10.9091C12.7407 10.9091 10.9091 12.7407 10.9091 15C10.9091 17.2593 12.7407 19.0909 15 19.0909C17.2593 19.0909 19.0909 17.2593 19.0909 15C19.0909 12.7407 17.2593 10.9091 15 10.9091ZM8.18182 15C8.18182 11.2344 11.2344 8.18182 15 8.18182C18.7656 8.18182 21.8182 11.2344 21.8182 15C21.8182 18.7656 18.7656 21.8182 15 21.8182C11.2344 21.8182 8.18182 18.7656 8.18182 15ZM4.3797 10.6007L4.92972 11.3215L4.3797 10.6007Z" fill="#F4F2FB"/>
</svg>
