<svg width="31" height="31" viewBox="0 0 31 31" fill="none" xmlns="http://www.w3.org/2000/svg">
<path fill-rule="evenodd" clip-rule="evenodd" d="M14.4727 0.255862H16.265C16.5322 0.255834 16.7951 0.255806 17.0201 0.270835C17.2684 0.287418 17.5598 0.326275 17.8649 0.446903C18.4786 0.689545 18.9835 1.14648 19.286 1.73298C19.4364 2.02457 19.504 2.31064 19.5452 2.55605C19.5826 2.77846 19.6087 3.04004 19.6353 3.30593L19.6387 3.34032C19.6969 3.92289 19.7336 4.2792 19.7791 4.53216C19.7825 4.55123 19.7859 4.56868 19.7891 4.5846C19.8026 4.5756 19.8173 4.56562 19.8332 4.55456C20.0442 4.40788 20.3221 4.18184 20.7752 3.8111L20.8019 3.78923C21.0087 3.62 21.2122 3.45351 21.3959 3.32264C21.5985 3.17825 21.8486 3.02381 22.1612 2.92397C22.7898 2.72314 23.4699 2.75706 24.0755 3.01945C24.3765 3.14989 24.61 3.32845 24.7973 3.49229C24.9671 3.6408 25.1529 3.82673 25.3419 4.01572L25.3663 4.04008L26.6091 5.28293C26.7981 5.47184 26.9839 5.65769 27.1324 5.82742C27.2963 6.01472 27.4748 6.24824 27.6053 6.54927C27.8676 7.1548 27.9016 7.83491 27.7008 8.46351C27.6009 8.77605 27.4465 9.02618 27.3021 9.22885C27.1712 9.41254 27.0047 9.61601 26.8354 9.82282L26.8136 9.84951C26.4429 10.3026 26.2168 10.5805 26.0701 10.7916C26.0591 10.8075 26.0491 10.8222 26.0401 10.8357C26.056 10.8389 26.0734 10.8422 26.0925 10.8456C26.3455 10.8912 26.7018 10.9278 27.2844 10.9861L27.3188 10.9895C27.5847 11.0161 27.8463 11.0422 28.0687 11.0795C28.3141 11.1208 28.6002 11.1884 28.8918 11.3388C29.4783 11.6413 29.9352 12.1462 30.1778 12.7599C30.2985 13.065 30.3373 13.3564 30.3539 13.6047C30.369 13.8297 30.3689 14.0926 30.3689 14.3598V16.1521C30.3689 16.4192 30.369 16.682 30.3539 16.907C30.3374 17.1552 30.2985 17.4466 30.1779 17.7516C29.9353 18.3655 29.4782 18.8705 28.8916 19.173C28.6 19.3234 28.314 19.391 28.0687 19.4322C27.8463 19.4695 27.5847 19.4957 27.3188 19.5222L27.2845 19.5256C26.7021 19.5839 26.3459 19.6205 26.093 19.666C26.0739 19.6695 26.0565 19.6728 26.0406 19.676C26.0496 19.6895 26.0595 19.7042 26.0706 19.7201C26.2172 19.9311 26.4432 20.2088 26.8138 20.6618L26.8357 20.6886C27.0049 20.8953 27.1713 21.0986 27.3021 21.2822C27.4465 21.4848 27.6008 21.7348 27.7007 22.0472C27.9017 22.6761 27.8677 23.3565 27.6052 23.9622C27.4748 24.2631 27.2962 24.4965 27.1325 24.6837C26.984 24.8534 26.7982 25.0392 26.6093 25.228L25.342 26.4954C25.153 26.6844 24.9671 26.8703 24.7974 27.0188C24.6101 27.1827 24.3766 27.3612 24.0755 27.4917C23.47 27.754 22.7899 27.788 22.1612 27.5871C21.8487 27.4873 21.5986 27.3329 21.3959 27.1885C21.2122 27.0576 21.0088 26.8911 20.802 26.7219L20.781 26.7047L20.7752 26.7001C20.3221 26.3293 20.0443 26.1032 19.8332 25.9566C19.8173 25.9455 19.8026 25.9355 19.7891 25.9265C19.7859 25.9424 19.7826 25.9599 19.7792 25.979C19.7336 26.232 19.697 26.5884 19.6387 27.1711L19.6353 27.2054C19.6087 27.4715 19.5826 27.7332 19.5452 27.9557C19.504 28.2012 19.4363 28.4874 19.2858 28.779C18.9833 29.3653 18.4786 29.8221 17.8652 30.0647C17.56 30.1854 17.2685 30.2243 17.0201 30.2409C16.795 30.2559 16.5321 30.2559 16.2647 30.2559H14.4729C14.2056 30.2559 13.9427 30.2559 13.7177 30.2409C13.4694 30.2243 13.178 30.1854 12.8729 30.0648C12.2592 29.8222 11.7543 29.3653 11.4518 28.7788C11.3015 28.4872 11.2338 28.2011 11.1926 27.9557C11.1552 27.7333 11.1291 27.4717 11.1025 27.2058L11.0991 27.1714C11.0408 26.5888 11.0042 26.2325 10.9587 25.9795C10.9552 25.9604 10.9519 25.943 10.9487 25.9271C10.9352 25.9361 10.9205 25.946 10.9046 25.9571C10.694 26.1035 10.4169 26.3288 9.96556 26.6981L9.93576 26.7225C9.72896 26.8917 9.5255 27.0582 9.34181 27.1891C9.13913 27.3335 8.88899 27.488 8.57645 27.5878C7.94787 27.7886 7.26779 27.7547 6.66229 27.4923C6.36124 27.3619 6.12771 27.1833 5.9404 27.0195C5.77067 26.871 5.58483 26.6851 5.39592 26.4962L4.15307 25.2533L4.12861 25.2288C3.93965 25.0399 3.75375 24.8541 3.60526 24.6843C3.44141 24.497 3.26285 24.2635 3.13241 23.9624C2.87004 23.3569 2.83612 22.6768 3.03693 22.0482C3.13677 21.7357 3.29122 21.4856 3.43562 21.2829C3.56649 21.0992 3.733 20.8957 3.90224 20.6889L3.9241 20.6622C4.29485 20.2091 4.52089 19.9312 4.66758 19.7201C4.67864 19.7042 4.68863 19.6895 4.69763 19.676C4.68171 19.6728 4.66426 19.6695 4.64519 19.6661C4.39223 19.6205 4.03592 19.5839 3.45335 19.5257L3.41896 19.5222C3.15307 19.4957 2.8915 19.4695 2.66908 19.4322C2.42368 19.391 2.1376 19.3233 1.84603 19.1729C1.25951 18.8704 0.802579 18.3655 0.559939 17.7518C0.439312 17.4467 0.400454 17.1553 0.383872 16.907C0.368843 16.682 0.368871 16.4191 0.368899 16.1519V14.3599C0.368871 14.0927 0.368843 13.8297 0.38388 13.6046C0.400471 13.3563 0.439349 13.0648 0.560039 12.7596C0.802672 12.1461 1.25947 11.6414 1.84578 11.3389C2.13742 11.1885 2.42357 11.1208 2.66904 11.0796C2.89152 11.0422 3.15317 11.0161 3.41913 10.9895L3.45352 10.9861C4.03551 10.9279 4.39283 10.8911 4.64568 10.8456C4.66475 10.8422 4.6822 10.8388 4.69812 10.8356C4.68911 10.8221 4.67912 10.8074 4.66806 10.7915C4.52133 10.5804 4.29521 10.3024 3.92434 9.84912L3.90245 9.82238C3.73314 9.61548 3.56658 9.41195 3.43566 9.22819C3.29121 9.02543 3.13671 8.77519 3.03688 8.46253C2.83624 7.83414 2.87014 7.15433 3.13232 6.54902C3.26276 6.24785 3.44139 6.01423 3.60529 5.82686C3.75384 5.65704 3.93982 5.4711 4.12886 5.2821C4.137 5.27395 4.14515 5.26581 4.1533 5.25766L5.37146 4.03949C5.37961 4.03134 5.38776 4.02319 5.39591 4.01505C5.58484 3.82607 5.77071 3.64016 5.94047 3.49166C6.12777 3.32781 6.3613 3.14924 6.66235 3.0188C7.26785 2.75645 7.94793 2.72253 8.57652 2.92333C8.88907 3.02318 9.13923 3.17764 9.34191 3.32205C9.52561 3.45293 9.72909 3.61944 9.93593 3.78871L9.96267 3.8106C10.4158 4.1813 10.6936 4.40733 10.9046 4.55401C10.9206 4.56508 10.9353 4.57508 10.9488 4.58409C10.952 4.56817 10.9553 4.55073 10.9587 4.53165C11.0043 4.27876 11.0409 3.92255 11.0991 3.34014L11.1026 3.3058C11.1291 3.03997 11.1552 2.77845 11.1926 2.55609C11.2338 2.31075 11.3014 2.02475 11.4517 1.73324C11.7542 1.14653 12.2593 0.689447 12.8732 0.446799C13.1782 0.326236 13.4695 0.2874 13.7178 0.270827C13.9427 0.255806 14.2055 0.255834 14.4727 0.255862ZM22.5023 24.5892L22.4635 24.5574C22.0615 24.2285 21.6997 23.9325 21.3897 23.717C21.0806 23.5022 20.6556 23.2436 20.1318 23.1731C19.1607 23.0425 18.1942 23.4429 17.5999 24.2219C17.2793 24.6421 17.1617 25.1255 17.095 25.496C17.0281 25.8677 16.9816 26.333 16.93 26.8499L16.925 26.8997C16.8936 27.2135 16.876 27.3826 16.8556 27.504C16.8547 27.5092 16.8539 27.514 16.8531 27.5186C16.8485 27.519 16.8435 27.5193 16.8383 27.5197C16.7155 27.5279 16.5456 27.5286 16.2302 27.5286H14.5074C14.1921 27.5286 14.0223 27.5279 13.8995 27.5197C13.8942 27.5193 13.8893 27.519 13.8847 27.5186C13.8839 27.5141 13.8831 27.5092 13.8822 27.5041C13.8618 27.3827 13.8442 27.2137 13.8128 26.9L13.8079 26.8502C13.7562 26.3333 13.7097 25.8681 13.6428 25.4965C13.5762 25.126 13.4585 24.6426 13.1379 24.2224C12.5437 23.4434 11.5772 23.0431 10.6061 23.1737C10.0823 23.2441 9.65729 23.5027 9.34818 23.7176C9.03813 23.933 8.67628 24.2291 8.27425 24.5581L8.2355 24.5898C8.23067 24.5938 8.22587 24.5977 8.22113 24.6016C7.98626 24.7937 7.85759 24.8979 7.75931 24.9679C7.75506 24.9709 7.75103 24.9738 7.74723 24.9764C7.74372 24.9734 7.74 24.9702 7.73607 24.9668C7.64341 24.8857 7.52281 24.7661 7.29987 24.5431L6.08155 23.3248C5.85861 23.1019 5.73902 22.9813 5.65796 22.8886C5.65452 22.8847 5.6513 22.881 5.64828 22.8775C5.65094 22.8737 5.65377 22.8697 5.6568 22.8654C5.72824 22.7651 5.83524 22.6332 6.03489 22.3892L6.0666 22.3505C6.39556 21.9485 6.69165 21.5866 6.90712 21.2766C7.12193 20.9675 7.38055 20.5425 7.45101 20.0187C7.58164 19.0476 7.18128 18.0811 6.40224 17.4868C5.98208 17.1662 5.49868 17.0486 5.12822 16.9819C4.75662 16.915 4.29139 16.8685 3.7745 16.8169L3.72472 16.8119C3.41102 16.7805 3.2421 16.7629 3.12069 16.7426C3.11555 16.7417 3.1107 16.7409 3.10613 16.74C3.10578 16.7354 3.10543 16.7305 3.10508 16.7253C3.09688 16.6025 3.09617 16.4326 3.09617 16.1174V14.3945C3.09617 14.0792 3.09688 13.9093 3.10509 13.7864C3.10543 13.7812 3.10579 13.7763 3.10614 13.7717C3.1107 13.7709 3.11555 13.77 3.1207 13.7692C3.24202 13.7488 3.41077 13.7312 3.72401 13.6999L3.77466 13.6948C4.2917 13.6431 4.75706 13.5966 5.12876 13.5297C5.49932 13.463 5.98285 13.3453 6.40307 13.0247C7.1818 12.4304 7.58202 11.4642 7.45157 10.4933C7.38118 9.96945 7.12249 9.54429 6.90762 9.2351C6.69209 8.92497 6.39591 8.56302 6.06684 8.16087L6.03513 8.12211C5.8354 7.87799 5.72835 7.74604 5.65688 7.64572C5.65385 7.64147 5.65101 7.63744 5.64835 7.63364C5.65137 7.63013 5.6546 7.62641 5.65803 7.62248C5.73912 7.52978 5.85875 7.40915 6.08177 7.18613L7.29994 5.96797C7.52288 5.74502 7.64347 5.62543 7.73614 5.54437C7.74006 5.54093 7.74378 5.53771 7.7473 5.53469C7.7511 5.53735 7.75513 5.54019 7.75939 5.54322C7.85968 5.61468 7.99161 5.72171 8.23566 5.92139L8.27438 5.95307C8.67636 6.282 9.03815 6.57805 9.34814 6.7935C9.65715 7.00827 10.0821 7.26687 10.6057 7.33739C11.5771 7.46821 12.5439 7.06772 13.1383 6.28835C13.4587 5.86826 13.5763 5.38499 13.6429 5.01463C13.7098 4.64313 13.7562 4.17804 13.8079 3.66131L13.8129 3.61151C13.8442 3.29789 13.8618 3.12902 13.8822 3.00765C13.8831 3.0025 13.8839 2.99765 13.8847 2.99309C13.8893 2.99274 13.8942 2.99239 13.8994 2.99204C14.0222 2.98384 14.192 2.98314 14.5072 2.98314H16.2304C16.5457 2.98314 16.7155 2.98384 16.8383 2.99204C16.8436 2.99239 16.8485 2.99274 16.8531 2.9931C16.8539 2.99766 16.8547 3.00251 16.8556 3.00766C16.876 3.12907 16.8936 3.29799 16.925 3.61169L16.9299 3.66147C16.9816 4.17836 17.0281 4.64359 17.095 5.01518C17.1616 5.38564 17.2793 5.86904 17.5998 6.2892C18.1941 7.06826 19.1607 7.46862 20.1318 7.33798C20.6555 7.26752 21.0805 7.00891 21.3896 6.79409C21.6997 6.57862 22.0615 6.28253 22.4635 5.95357L22.5022 5.92189C22.7462 5.72225 22.8781 5.61526 22.9784 5.54382C22.9826 5.5408 22.9866 5.53796 22.9904 5.5353C22.994 5.53832 22.9977 5.54155 23.0016 5.54498C23.0943 5.62604 23.2149 5.74563 23.4378 5.96855L24.6561 7.18692C24.8791 7.40985 24.9987 7.53044 25.0797 7.6231C25.0832 7.62702 25.0864 7.63074 25.0894 7.63425C25.0867 7.63805 25.0839 7.64208 25.0809 7.64633C25.0095 7.74659 24.9025 7.87849 24.7028 8.12249L24.6711 8.16123C24.3421 8.56325 24.0461 8.9251 23.8306 9.23514C23.6158 9.54424 23.3571 9.96927 23.2867 10.493C23.1561 11.4641 23.5564 12.4306 24.3354 13.0249C24.7556 13.3455 25.239 13.4631 25.6095 13.5298C25.9811 13.5967 26.4464 13.6432 26.9633 13.6948L27.013 13.6998C27.3268 13.7312 27.4957 13.7488 27.6171 13.7692C27.6222 13.77 27.6271 13.7709 27.6317 13.7717C27.632 13.7763 27.6324 13.7812 27.6327 13.7864C27.6409 13.9093 27.6416 14.0791 27.6416 14.3944V16.1175C27.6416 16.4327 27.6409 16.6025 27.6327 16.7253C27.6324 16.7305 27.632 16.7354 27.6317 16.74C27.6271 16.7408 27.6222 16.7417 27.6171 16.7426C27.4957 16.7629 27.3268 16.7805 27.0132 16.8119L26.9634 16.8169C26.4467 16.8685 25.9816 16.915 25.6101 16.9818C25.2397 17.0485 24.7565 17.1661 24.3364 17.4864C23.5569 18.0808 23.1564 19.0477 23.2873 20.0192C23.3578 20.5427 23.6164 20.9676 23.8311 21.2766C24.0465 21.5865 24.3425 21.9483 24.6714 22.3502L24.703 22.3888C24.9026 22.6327 25.0095 22.7646 25.081 22.8648C25.084 22.869 25.0868 22.8731 25.0895 22.8768C25.0865 22.8804 25.0832 22.8841 25.0798 22.888C24.9988 22.9806 24.8792 23.1012 24.6564 23.324L23.4378 24.5426C23.2149 24.7655 23.0943 24.8851 23.0017 24.9661C22.9977 24.9696 22.994 24.9728 22.9905 24.9758C22.9867 24.9732 22.9827 24.9703 22.9784 24.9673C22.8782 24.8959 22.7463 24.7889 22.5023 24.5892ZM15.3689 11.165C13.1096 11.165 11.278 12.9965 11.278 15.2559C11.278 17.5152 13.1096 19.3468 15.3689 19.3468C17.6282 19.3468 19.4598 17.5152 19.4598 15.2559C19.4598 12.9965 17.6282 11.165 15.3689 11.165ZM8.55072 15.2559C8.55072 11.4903 11.6033 8.43768 15.3689 8.43768C19.1345 8.43768 22.1871 11.4903 22.1871 15.2559C22.1871 19.0214 19.1345 22.074 15.3689 22.074C11.6033 22.074 8.55072 19.0214 8.55072 15.2559ZM4.74859 10.8565L5.29861 11.5773Z" fill="#0B0D04"/>
</svg>
