<svg width="31" height="31" viewBox="0 0 31 31" fill="none" xmlns="http://www.w3.org/2000/svg">
<path fill-rule="evenodd" clip-rule="evenodd" d="M18.3445 1.34122C18.4755 1.5952 18.5081 1.92046 18.5731 2.57097C18.6962 3.80226 18.7578 4.41791 19.0155 4.7557C19.3424 5.18418 19.874 5.40438 20.4081 5.33253C20.8291 5.27588 21.308 4.88409 22.2657 4.1005C22.7717 3.68653 23.0247 3.47955 23.2969 3.39258C23.6426 3.28213 24.0167 3.30078 24.3497 3.4451C24.6119 3.55871 24.8431 3.78984 25.3053 4.25211L26.6455 5.59231C27.1078 6.05458 27.3389 6.28572 27.4526 6.54794C27.5969 6.88097 27.6155 7.25503 27.5051 7.60077C27.4181 7.87299 27.2111 8.12598 26.7971 8.63196C26.0135 9.5897 25.6217 10.0686 25.5651 10.4896C25.4932 11.0237 25.7134 11.5553 26.1419 11.8822C26.4797 12.1399 27.0954 12.2015 28.3267 12.3246C28.9772 12.3896 29.3025 12.4222 29.5565 12.5532C29.8791 12.7195 30.1304 12.9972 30.2638 13.3347C30.3689 13.6005 30.3689 13.9274 30.3689 14.5812V16.4766C30.3689 17.1302 30.3689 17.457 30.2639 17.7227C30.1304 18.0604 29.879 18.3381 29.5564 18.5045C29.3024 18.6355 28.9772 18.668 28.3268 18.733C27.0959 18.8561 26.4804 18.9177 26.1427 19.1752C25.714 19.5021 25.4937 20.0339 25.5657 20.5682C25.6224 20.9891 26.0141 21.4678 26.7974 22.4252C27.2112 22.931 27.4181 23.1839 27.5051 23.456C27.6156 23.8018 27.597 24.1761 27.4525 24.5092C27.3389 24.7713 27.1079 25.0024 26.6458 25.4645L25.3054 26.8048C24.8431 27.2671 24.612 27.4982 24.3498 27.6119C24.0168 27.7562 23.6427 27.7748 23.2969 27.6644C23.0247 27.5774 22.7717 27.3704 22.2658 26.9564C21.3081 26.1729 20.8292 25.7811 20.4081 25.7244C19.874 25.6526 19.3424 25.8728 19.0156 26.3013C18.7579 26.639 18.6963 27.2548 18.5731 28.4863C18.5081 29.1371 18.4755 29.4625 18.3445 29.7165C18.1781 30.039 17.9005 30.2902 17.5631 30.4237C17.2973 30.5288 16.9703 30.5288 16.3163 30.5288H14.4213C13.7675 30.5288 13.4406 30.5288 13.1748 30.4237C12.8373 30.2903 12.5596 30.039 12.3933 29.7164C12.2623 29.4624 12.2297 29.1372 12.1647 28.4866C12.0415 27.2553 11.98 26.6396 11.7223 26.3018C11.3954 25.8734 10.8638 25.6532 10.3298 25.725C9.90867 25.7816 9.42979 26.1735 8.47201 26.9571C7.96602 27.3711 7.713 27.5781 7.44077 27.6651C7.09504 27.7755 6.721 27.7568 6.38798 27.6126C6.12575 27.4989 5.8946 27.2678 5.43231 26.8055L4.09215 25.4653C3.62987 25.003 3.39872 24.7719 3.28511 24.5097C3.14081 24.1767 3.12215 23.8026 3.2326 23.4569C3.31956 23.1846 3.52656 22.9316 3.94055 22.4257C4.72416 21.4679 5.11596 20.989 5.1726 20.568C5.24445 20.0339 5.02426 19.5023 4.59578 19.1754C4.258 18.9177 3.64234 18.8562 2.41104 18.733C1.76054 18.668 1.43529 18.6354 1.18131 18.5045C0.858733 18.3381 0.60742 18.0604 0.473967 17.7228C0.368896 17.4571 0.368896 17.1302 0.368896 16.4765V14.5813C0.368896 13.9274 0.368896 13.6004 0.474023 13.3346C0.607471 12.9972 0.858708 12.7196 1.18118 12.5532C1.43521 12.4222 1.76055 12.3896 2.41122 12.3246C3.64285 12.2014 4.25868 12.1398 4.59652 11.882C5.02482 11.5552 5.24495 11.0238 5.1732 10.4898C5.1166 10.0686 4.72467 9.58959 3.94081 8.63154C3.52664 8.12533 3.31956 7.87223 3.2326 7.59989C3.12225 7.25427 3.14089 6.88037 3.28509 6.54746C3.39872 6.28512 3.62994 6.0539 4.0924 5.59144L5.43238 4.25146C5.89467 3.78917 6.12582 3.55802 6.38805 3.4444C6.72107 3.30011 7.09511 3.28145 7.44084 3.39189C7.71307 3.47885 7.96611 3.68589 8.47219 4.09995C9.42982 4.88346 9.90863 5.27522 10.3296 5.33191C10.8638 5.40386 11.3956 5.18359 11.7225 4.75494C11.9801 4.41721 12.0416 3.80173 12.1647 2.57077C12.2297 1.92044 12.2622 1.59528 12.3932 1.34136C12.5596 1.01867 12.8374 0.767279 13.175 0.633822C13.4407 0.528809 13.7675 0.528809 14.421 0.528809H16.3166C16.9703 0.528809 17.2972 0.528809 17.5629 0.63388C17.9005 0.767333 18.1782 1.01865 18.3445 1.34122ZM15.3689 21.5288C18.6826 21.5288 21.3689 18.8425 21.3689 15.5288C21.3689 12.2151 18.6826 9.52881 15.3689 9.52881C12.0552 9.52881 9.3689 12.2151 9.3689 15.5288C9.3689 18.8425 12.0552 21.5288 15.3689 21.5288Z" fill="#0B0D04"/>
</svg>
