<svg width="46" height="46" viewBox="0 0 46 46" fill="none" xmlns="http://www.w3.org/2000/svg">
<g filter="url(#filter0_d_514_196)">
<path fill-rule="evenodd" clip-rule="evenodd" d="M22.6843 12.2318C22.2736 14.9009 21.6572 17.4203 21.1603 18.4599C20.2987 20.263 19.1375 21.1855 16.7881 21.9334C15.622 22.3046 12.4025 22.8741 11.4583 22.8762C10.6278 22.878 10.9805 23.0596 12.0778 23.1951C13.6593 23.3904 16.1028 23.9511 17.2556 24.3833C17.81 24.5911 18.6573 25.0402 19.1386 25.3814C20.9022 26.6313 21.6767 28.3151 22.4733 32.6314C22.7248 33.9936 22.9741 35.0584 23.0276 34.9975C23.081 34.9365 23.177 34.4091 23.241 33.8254C23.4193 32.1989 23.9772 29.5141 24.3437 28.5189C25.4647 25.475 28.0498 23.9833 33.4583 23.2591C34.3062 23.1456 35 23.0197 35 22.9794C35 22.9391 34.5608 22.8727 34.0242 22.832C33.4875 22.7914 32.3657 22.6355 31.5312 22.4858C26.593 21.6 24.8928 20.0624 23.9342 15.6156C23.7952 14.9705 23.555 13.6885 23.4005 12.7668C23.246 11.8452 23.0673 11.0514 23.0033 11.003C22.9393 10.9545 22.7958 11.5075 22.6843 12.2318Z" fill="white"/>
<path d="M22.1901 12.1558L22.1901 12.1558C22.2475 11.7832 22.3143 11.4462 22.3777 11.202C22.4082 11.0842 22.4432 10.9674 22.4827 10.8754C22.4988 10.8379 22.5345 10.7582 22.5973 10.6854C22.6267 10.6514 22.7022 10.5708 22.8293 10.5275C22.993 10.4718 23.1705 10.5024 23.3052 10.6044C23.3948 10.6723 23.4407 10.7544 23.4525 10.7757L23.4531 10.7768C23.4724 10.8112 23.4866 10.8441 23.4963 10.8684C23.5163 10.9181 23.5343 10.974 23.5503 11.0282C23.5829 11.1388 23.6188 11.2834 23.6558 11.4476C23.7302 11.7784 23.8152 12.2166 23.8936 12.6842C24.0473 13.6011 24.2861 14.875 24.4229 15.5103C24.8937 17.6939 25.5281 19.0678 26.5757 20.0152C27.6312 20.9698 29.1758 21.5554 31.6194 21.9937C32.4456 22.1419 33.549 22.2946 34.0619 22.3335C34.3388 22.3545 34.5956 22.3824 34.788 22.4115C34.882 22.4257 34.9724 22.4418 35.0455 22.4603C35.0787 22.4687 35.13 22.4828 35.1817 22.5056C35.205 22.5159 35.2562 22.5397 35.3096 22.583C35.3462 22.6126 35.5 22.7438 35.5 22.9794C35.5 23.1637 35.4031 23.2825 35.3623 23.3258C35.3163 23.3749 35.2705 23.4039 35.2488 23.417C35.2028 23.4445 35.16 23.4607 35.1399 23.4681C35.0933 23.4851 35.0418 23.4989 34.9977 23.5097C34.9045 23.5326 34.7795 23.5578 34.6364 23.5838C34.3473 23.6363 33.9539 23.6973 33.5247 23.7547C30.8455 24.1134 28.9225 24.6562 27.5431 25.4522C26.184 26.2364 25.3338 27.2771 24.8128 28.6917C24.4658 29.6341 23.914 32.2745 23.738 33.8799C23.705 34.1811 23.6634 34.4708 23.6222 34.697C23.6018 34.8092 23.5803 34.9126 23.5583 34.9968C23.5475 35.0382 23.5345 35.0833 23.5189 35.1259L23.5181 35.1281C23.5088 35.1536 23.4754 35.2451 23.4041 35.3266L23.4032 35.3276C23.3181 35.4245 23.1605 35.5226 22.9566 35.4956C22.7951 35.4743 22.6963 35.3837 22.6633 35.351C22.5944 35.2827 22.5585 35.2074 22.5485 35.1865L22.5478 35.1852C22.5186 35.1242 22.4947 35.0527 22.4762 34.9929C22.4361 34.8632 22.3888 34.6796 22.3379 34.4622C22.2351 34.0232 22.1083 33.4082 21.9816 32.7221L21.9816 32.7221C21.1877 28.4207 20.44 26.9166 18.8495 25.7893L18.8495 25.7893C18.4034 25.4731 17.5943 25.0443 17.0801 24.8515L17.0801 24.8515C15.9731 24.4365 13.5698 23.8831 12.0165 23.6914L12.0602 23.3381L12.0165 23.6914C11.7331 23.6564 11.4913 23.6176 11.2999 23.578C11.1272 23.5422 10.9444 23.4961 10.8162 23.43C10.7818 23.4123 10.7223 23.3788 10.6648 23.3237C10.6155 23.2764 10.4906 23.1381 10.5005 22.9193C10.5111 22.6883 10.6613 22.5587 10.7295 22.5118C10.8014 22.4623 10.8721 22.4389 10.9106 22.4277C11.0539 22.3859 11.2546 22.3766 11.4572 22.3762L22.1901 12.1558ZM22.1901 12.1558C21.9868 13.4775 21.7327 14.7602 21.469 15.8381C21.2027 16.9263 20.9341 17.7737 20.7092 18.2443L21.1429 18.4516M22.1901 12.1558L21.1429 18.4516M21.1429 18.4516L20.7092 18.2443C20.3037 19.0928 19.8412 19.7082 19.2211 20.2009M21.1429 18.4516L19.2211 20.2009M19.2211 20.2009C18.5949 20.6983 17.7802 21.0929 16.6365 21.457M19.2211 20.2009L16.6365 21.457M16.6365 21.457C16.0876 21.6317 15.0195 21.8622 13.9529 22.0508M16.6365 21.457L13.9529 22.0508M13.9529 22.0508C12.8783 22.2409 11.8793 22.3752 11.4572 22.3762L13.9529 22.0508ZM23.4016 11.2699C23.4046 11.2628 23.4047 11.2639 23.4013 11.2706L23.4016 11.2699Z" stroke="white"/>
</g>
<defs>
<filter id="filter0_d_514_196" x="-6.10352e-05" y="0" width="46.0001" height="46.0005" filterUnits="userSpaceOnUse" color-interpolation-filters="sRGB">
<feFlood flood-opacity="0" result="BackgroundImageFix"/>
<feColorMatrix in="SourceAlpha" type="matrix" values="0 0 0 0 0 0 0 0 0 0 0 0 0 0 0 0 0 0 127 0" result="hardAlpha"/>
<feOffset/>
<feGaussianBlur stdDeviation="5"/>
<feComposite in2="hardAlpha" operator="out"/>
<feColorMatrix type="matrix" values="0 0 0 0 1 0 0 0 0 0.72 0 0 0 0 0 0 0 0 1 0"/>
<feBlend mode="normal" in2="BackgroundImageFix" result="effect1_dropShadow_514_196"/>
<feBlend mode="normal" in="SourceGraphic" in2="effect1_dropShadow_514_196" result="shape"/>
</filter>
</defs>
</svg>
