<svg width="754" height="234" viewBox="0 0 754 234" fill="none" xmlns="http://www.w3.org/2000/svg">
<mask id="path-1-outside-1_527_239" maskUnits="userSpaceOnUse" x="175.848" y="-0.200195" width="61" height="64" fill="black">
<rect fill="white" x="175.848" y="-0.200195" width="61" height="64"/>
<path fill-rule="evenodd" clip-rule="evenodd" d="M206.12 7.59331C205.232 13.646 203.899 19.3594 202.824 21.717C200.96 25.806 198.449 27.8979 193.367 29.594C190.845 30.4359 183.882 31.7272 181.839 31.732C180.043 31.736 180.806 32.148 183.179 32.4553C186.6 32.8981 191.885 34.1697 194.378 35.1499C195.577 35.6211 197.41 36.6395 198.451 37.4132C202.266 40.2477 203.941 44.0661 205.664 53.8543C206.208 56.9436 206.747 59.3582 206.863 59.2201C206.978 59.0818 207.186 57.8858 207.324 56.562C207.71 52.8736 208.916 46.7852 209.709 44.5282C212.134 37.6255 217.725 34.2426 229.423 32.6004C231.257 32.343 232.758 32.0575 232.758 31.9661C232.758 31.8746 231.808 31.7241 230.647 31.6319C229.486 31.5397 227.06 31.1863 225.255 30.8468C214.574 28.838 210.897 25.351 208.823 15.2669C208.523 13.8038 208.003 10.8967 207.669 8.80657C207.335 6.71648 206.949 4.91647 206.81 4.80652C206.672 4.69657 206.361 5.95062 206.12 7.59331Z"/>
</mask>
<path fill-rule="evenodd" clip-rule="evenodd" d="M206.12 7.59331C205.232 13.646 203.899 19.3594 202.824 21.717C200.96 25.806 198.449 27.8979 193.367 29.594C190.845 30.4359 183.882 31.7272 181.839 31.732C180.043 31.736 180.806 32.148 183.179 32.4553C186.6 32.8981 191.885 34.1697 194.378 35.1499C195.577 35.6211 197.41 36.6395 198.451 37.4132C202.266 40.2477 203.941 44.0661 205.664 53.8543C206.208 56.9436 206.747 59.3582 206.863 59.2201C206.978 59.0818 207.186 57.8858 207.324 56.562C207.71 52.8736 208.916 46.7852 209.709 44.5282C212.134 37.6255 217.725 34.2426 229.423 32.6004C231.257 32.343 232.758 32.0575 232.758 31.9661C232.758 31.8746 231.808 31.7241 230.647 31.6319C229.486 31.5397 227.06 31.1863 225.255 30.8468C214.574 28.838 210.897 25.351 208.823 15.2669C208.523 13.8038 208.003 10.8967 207.669 8.80657C207.335 6.71648 206.949 4.91647 206.81 4.80652C206.672 4.69657 206.361 5.95062 206.12 7.59331Z" fill="white"/>
<path d="M206.12 7.59331L202.163 7.01229L202.163 7.01252L206.12 7.59331ZM202.824 21.717L199.184 20.058L199.184 20.0581L202.824 21.717ZM193.367 29.594L194.634 33.3882L194.634 33.3882L193.367 29.594ZM181.839 31.732L181.848 35.732H181.849L181.839 31.732ZM183.179 32.4553L182.666 36.4222L182.666 36.4222L183.179 32.4553ZM194.378 35.1499L192.915 38.8725L192.915 38.8726L194.378 35.1499ZM198.451 37.4132L196.065 40.6237L196.065 40.6238L198.451 37.4132ZM205.664 53.8543L201.724 54.5478L201.724 54.5479L205.664 53.8543ZM206.863 59.2201L209.929 61.7894L209.935 61.7819L206.863 59.2201ZM207.324 56.562L203.346 56.146L203.346 56.146L207.324 56.562ZM209.709 44.5282L205.935 43.2025L205.935 43.2027L209.709 44.5282ZM229.423 32.6004L228.867 28.6393L228.867 28.6393L229.423 32.6004ZM225.255 30.8468L225.994 26.9157L225.994 26.9157L225.255 30.8468ZM208.823 15.2669L204.905 16.072L204.905 16.0725L208.823 15.2669ZM202.163 7.01252C201.275 13.0603 200 18.2674 199.184 20.058L206.464 23.376C207.797 20.4514 209.189 14.2317 210.078 8.17409L202.163 7.01252ZM199.184 20.0581C198.44 21.6915 197.674 22.7028 196.742 23.4794C195.769 24.2898 194.381 25.0387 192.101 25.7998L194.634 33.3882C197.435 32.4531 199.843 31.3081 201.862 29.6263C203.922 27.9106 205.344 25.8316 206.464 23.376L199.184 20.0581ZM192.101 25.7998C191.123 26.126 188.988 26.6186 186.694 27.0439C184.332 27.4819 182.431 27.7306 181.83 27.732L181.849 35.732C183.29 35.7286 185.892 35.3292 188.153 34.9098C190.482 34.4779 193.089 33.9038 194.634 33.3882L192.101 25.7998ZM181.83 27.732C181.422 27.7329 180.572 27.7386 179.789 27.978C179.568 28.0453 179.066 28.2133 178.535 28.5961C178.012 28.9741 176.927 29.9753 176.852 31.7076C176.781 33.3411 177.674 34.3859 178.035 34.749C178.445 35.1605 178.853 35.3956 179.045 35.4997C179.73 35.869 180.501 36.0425 180.867 36.1221C181.386 36.2348 181.996 36.3355 182.666 36.4222L183.693 28.4884C183.176 28.4214 182.8 28.3554 182.565 28.3043C182.177 28.2201 182.425 28.2327 182.846 28.4601C182.973 28.5288 183.332 28.7296 183.708 29.1082C184.037 29.4385 184.914 30.4518 184.844 32.0556C184.77 33.7581 183.705 34.7313 183.217 35.0831C182.723 35.4399 182.274 35.5836 182.126 35.629C181.63 35.7804 181.358 35.7331 181.848 35.732L181.83 27.732ZM182.666 36.4222C185.849 36.8343 190.8 38.041 192.915 38.8725L195.842 31.4272C192.97 30.2983 187.351 28.962 183.693 28.4884L182.666 36.4222ZM192.915 38.8726C193.783 39.2138 195.306 40.0594 196.065 40.6237L200.837 34.2028C199.514 33.2196 197.372 32.0284 195.842 31.4271L192.915 38.8726ZM196.065 40.6238C198.531 42.4559 200.016 44.8416 201.724 54.5478L209.603 53.1608C207.866 43.2905 206 38.0394 200.837 34.2026L196.065 40.6238ZM201.724 54.5479C202.003 56.1304 202.286 57.5695 202.52 58.6196C202.634 59.129 202.752 59.6196 202.867 60.0067C202.912 60.1606 203.01 60.4856 203.162 60.818C203.193 60.8866 203.436 61.4519 203.953 61.9892C204.184 62.2294 204.971 63.0035 206.302 63.1878C208.013 63.4249 209.288 62.5538 209.928 61.7894L203.797 56.6508C204.43 55.8951 205.697 55.0277 207.399 55.2635C208.721 55.4466 209.499 56.2146 209.719 56.4439C210.215 56.9595 210.434 57.4841 210.439 57.4938C210.537 57.7086 210.569 57.8434 210.54 57.7421C210.503 57.6187 210.431 57.3385 210.328 56.8753C210.128 55.9803 209.869 54.6674 209.603 53.1606L201.724 54.5479ZM209.935 61.7819C210.46 61.1517 210.67 60.4869 210.685 60.4421C210.76 60.2296 210.812 60.0339 210.846 59.8976C210.916 59.6143 210.976 59.306 211.026 59.0198C211.128 58.4327 211.226 57.7115 211.303 56.9781L203.346 56.146C203.284 56.7363 203.209 57.275 203.144 57.6514C203.128 57.7428 203.114 57.8172 203.102 57.8749C203.096 57.9034 203.092 57.9257 203.088 57.9422C203.086 57.9504 203.085 57.9566 203.084 57.9611C203.083 57.9655 203.082 57.9676 203.082 57.9676C203.082 57.9675 203.082 57.9668 203.083 57.9655C203.083 57.9641 203.084 57.9621 203.084 57.9593C203.086 57.9539 203.088 57.9448 203.092 57.9325C203.098 57.9108 203.112 57.8636 203.135 57.7989C203.155 57.7411 203.198 57.622 203.27 57.4715C203.306 57.394 203.361 57.2859 203.435 57.1604C203.507 57.0402 203.623 56.8598 203.791 56.6583L209.935 61.7819ZM211.303 56.9781C211.671 53.4498 212.834 47.7021 213.483 45.8536L205.935 43.2027C204.999 45.8683 203.748 52.2973 203.346 56.146L211.303 56.9781ZM213.483 45.8538C214.405 43.23 215.832 41.422 218.159 40.014C220.645 38.5102 224.345 37.3526 229.979 36.5616L228.867 28.6393C222.804 29.4904 217.859 30.8454 214.018 33.1693C210.019 35.5889 207.438 38.9237 205.935 43.2025L213.483 45.8538ZM229.979 36.5616C230.94 36.4267 231.841 36.2809 232.526 36.1505C232.857 36.0876 233.2 36.0166 233.493 35.941C233.619 35.9084 233.859 35.8442 234.119 35.7451C234.223 35.7051 234.525 35.5878 234.867 35.3736C235.029 35.2714 235.38 35.0382 235.732 34.645C236.053 34.2869 236.758 33.366 236.758 31.9661H228.758C228.758 30.5719 229.46 29.657 229.775 29.3054C230.121 28.9187 230.463 28.6923 230.614 28.5972C230.933 28.3975 231.201 28.2959 231.261 28.2729C231.431 28.208 231.539 28.1831 231.496 28.1942C231.451 28.2059 231.304 28.2394 231.031 28.2915C230.507 28.3911 229.74 28.5168 228.867 28.6393L229.979 36.5616ZM236.758 31.9661C236.758 30.1761 235.635 29.1532 235.336 28.8993C234.93 28.5542 234.547 28.3693 234.392 28.2981C234.047 28.1384 233.74 28.0546 233.616 28.0218C233.313 27.9414 233.001 27.8862 232.763 27.8485C232.251 27.7673 231.615 27.6962 230.964 27.6445L230.33 35.6193C230.84 35.6598 231.26 35.7101 231.512 35.75C231.657 35.773 231.655 35.7783 231.566 35.7547C231.55 35.7503 231.326 35.694 231.037 35.5604C230.911 35.5022 230.55 35.33 230.158 34.9972C229.873 34.7556 228.758 33.7446 228.758 31.9661H236.758ZM230.964 27.6445C230.002 27.568 227.73 27.2421 225.994 26.9157L224.516 34.7779C226.39 35.1304 228.971 35.5114 230.33 35.6193L230.964 27.6445ZM225.994 26.9157C220.88 25.9539 218.227 24.7591 216.564 23.1825C214.935 21.6384 213.719 19.2136 212.741 14.4612L204.905 16.0725C206.002 21.4042 207.661 25.7651 211.059 28.9877C214.424 32.1778 218.949 33.731 224.516 34.7779L225.994 26.9157ZM212.742 14.4617C212.457 13.0744 211.947 10.2288 211.619 8.17507L203.719 9.43808C204.059 11.5646 204.589 14.5332 204.905 16.072L212.742 14.4617ZM211.619 8.17507C211.444 7.07812 211.251 6.03395 211.077 5.22419C210.992 4.82784 210.9 4.43515 210.807 4.10229C210.763 3.94537 210.697 3.72328 210.608 3.49241C210.566 3.38166 210.487 3.18749 210.369 2.96546C210.318 2.87 209.991 2.22475 209.298 1.67435L204.322 7.93868C203.929 7.62654 203.687 7.31083 203.573 7.15296C203.445 6.97423 203.358 6.82086 203.309 6.72774C203.212 6.54517 203.156 6.40299 203.138 6.35606C203.099 6.25284 203.088 6.20575 203.105 6.26569C203.133 6.36658 203.185 6.57513 203.255 6.9038C203.393 7.54405 203.561 8.44493 203.719 9.43808L211.619 8.17507ZM209.298 1.67435C208.238 0.832256 206.785 0.553426 205.438 1.03439C204.425 1.39592 203.852 2.05448 203.662 2.28517C203.238 2.80025 203.03 3.31671 202.976 3.44851C202.81 3.85387 202.695 4.28075 202.621 4.58146C202.455 5.25216 202.295 6.11184 202.163 7.01229L210.078 8.17432C210.187 7.43208 210.302 6.8434 210.386 6.50389C210.437 6.29949 210.441 6.3308 210.379 6.48062C210.378 6.48465 210.219 6.90833 209.839 7.36946C209.671 7.57318 209.12 8.21446 208.127 8.5689C207.569 8.76796 206.876 8.87267 206.118 8.74213C205.364 8.61237 204.761 8.28707 204.322 7.93868L209.298 1.67435Z" fill="white" mask="url(#path-1-outside-1_527_239)"/>
<mask id="path-3-outside-2_527_239" maskUnits="userSpaceOnUse" x="-0.428223" y="188.668" width="43" height="45" fill="black">
<rect fill="white" x="-0.428223" y="188.668" width="43" height="45"/>
<path fill-rule="evenodd" clip-rule="evenodd" d="M21.0688 195.5C20.489 199.468 19.6186 203.214 18.9171 204.76C17.7005 207.441 16.061 208.812 12.744 209.924C11.0975 210.476 6.55192 211.323 5.21886 211.326C4.04628 211.329 4.54421 211.599 6.09353 211.8C8.32644 212.091 11.7764 212.924 13.4041 213.567C14.1867 213.876 15.3831 214.544 16.0627 215.051C18.5526 216.909 19.6461 219.413 20.7709 225.83C21.126 227.855 21.478 229.439 21.5535 229.348C21.6289 229.257 21.7644 228.473 21.8548 227.605C22.1065 225.187 22.8941 221.195 23.4116 219.716C24.9943 215.19 28.6443 212.972 36.2806 211.895C37.4776 211.727 38.4572 211.539 38.4572 211.479C38.4572 211.419 37.8372 211.321 37.0795 211.26C36.3217 211.2 34.7378 210.968 33.5596 210.746C26.5874 209.429 24.187 207.142 22.8334 200.531C22.6372 199.572 22.2981 197.666 22.08 196.295C21.8618 194.925 21.6096 193.745 21.5192 193.673C21.4288 193.601 21.2262 194.423 21.0688 195.5Z"/>
</mask>
<path fill-rule="evenodd" clip-rule="evenodd" d="M21.0688 195.5C20.489 199.468 19.6186 203.214 18.9171 204.76C17.7005 207.441 16.061 208.812 12.744 209.924C11.0975 210.476 6.55192 211.323 5.21886 211.326C4.04628 211.329 4.54421 211.599 6.09353 211.8C8.32644 212.091 11.7764 212.924 13.4041 213.567C14.1867 213.876 15.3831 214.544 16.0627 215.051C18.5526 216.909 19.6461 219.413 20.7709 225.83C21.126 227.855 21.478 229.439 21.5535 229.348C21.6289 229.257 21.7644 228.473 21.8548 227.605C22.1065 225.187 22.8941 221.195 23.4116 219.716C24.9943 215.19 28.6443 212.972 36.2806 211.895C37.4776 211.727 38.4572 211.539 38.4572 211.479C38.4572 211.419 37.8372 211.321 37.0795 211.26C36.3217 211.2 34.7378 210.968 33.5596 210.746C26.5874 209.429 24.187 207.142 22.8334 200.531C22.6372 199.572 22.2981 197.666 22.08 196.295C21.8618 194.925 21.6096 193.745 21.5192 193.673C21.4288 193.601 21.2262 194.423 21.0688 195.5Z" fill="white"/>
<path d="M21.0688 195.5L17.1109 194.921L17.1108 194.922L21.0688 195.5ZM18.9171 204.76L15.2746 203.107L15.2746 203.107L18.9171 204.76ZM12.744 209.924L14.0154 213.717L14.0155 213.717L12.744 209.924ZM5.21886 211.326L5.22792 215.326H5.22833L5.21886 211.326ZM6.09353 211.8L5.5777 215.767L5.57775 215.767L6.09353 211.8ZM13.4041 213.567L11.9352 217.287L11.9354 217.287L13.4041 213.567ZM16.0627 215.051L13.67 218.256L13.6702 218.256L16.0627 215.051ZM20.7709 225.83L16.831 226.521L16.831 226.521L20.7709 225.83ZM21.5535 229.348L24.6248 231.911L24.631 231.903L21.5535 229.348ZM21.8548 227.605L17.8763 227.191L17.8763 227.191L21.8548 227.605ZM23.4116 219.716L19.6359 218.395L19.6358 218.395L23.4116 219.716ZM36.2806 211.895L35.7222 207.935L35.7221 207.935L36.2806 211.895ZM33.5596 210.746L34.3021 206.815L34.3021 206.815L33.5596 210.746ZM22.8334 200.531L18.9146 201.333L18.9147 201.333L22.8334 200.531ZM17.1108 194.922C16.5317 198.885 15.7195 202.127 15.2746 203.107L22.5595 206.413C23.5176 204.302 24.4463 200.051 25.0268 196.078L17.1108 194.922ZM15.2746 203.107C14.8523 204.038 14.4653 204.516 14.0516 204.862C13.5979 205.242 12.8692 205.663 11.4726 206.132L14.0155 213.717C15.9359 213.073 17.6854 212.253 19.1848 210.998C20.7243 209.71 21.7653 208.163 22.5596 206.413L15.2746 203.107ZM11.4727 206.132C10.934 206.312 9.62237 206.621 8.13145 206.899C7.42312 207.03 6.74153 207.143 6.17742 207.221C5.89531 207.26 5.65936 207.288 5.47453 207.306C5.27371 207.325 5.19674 207.326 5.20939 207.326L5.22833 215.326C6.31664 215.323 8.13807 215.035 9.59635 214.763C11.1231 214.479 12.9076 214.088 14.0154 213.717L11.4727 206.132ZM5.20979 207.326C4.95757 207.327 4.2059 207.323 3.46971 207.549C3.26085 207.613 2.76694 207.778 2.24248 208.158C1.72285 208.535 0.650107 209.531 0.575553 211.251C0.505282 212.872 1.38849 213.909 1.74466 214.269C2.14753 214.676 2.54676 214.906 2.72877 215.005C3.3684 215.352 4.05015 215.498 4.28612 215.55C4.67457 215.634 5.114 215.706 5.5777 215.767L6.60936 207.834C6.2984 207.793 6.09459 207.756 5.99057 207.733C5.73407 207.677 6.07413 207.718 6.54219 207.972C6.6813 208.048 7.04827 208.255 7.42981 208.641C7.76466 208.979 8.63748 209.996 8.56805 211.597C8.49434 213.298 7.43368 214.276 6.93767 214.635C6.43683 214.998 5.97809 215.147 5.81622 215.197C5.26804 215.365 4.89385 215.327 5.22792 215.326L5.20979 207.326ZM5.57775 215.767C7.57216 216.026 10.6868 216.794 11.9352 217.287L14.873 209.846C12.8661 209.054 9.08072 208.155 6.6093 207.834L5.57775 215.767ZM11.9354 217.287C12.3862 217.465 13.2721 217.959 13.67 218.256L18.4554 211.845C17.4941 211.128 15.9873 210.286 14.8728 209.846L11.9354 217.287ZM13.6702 218.256C14.8146 219.111 15.72 220.182 16.831 226.521L24.7108 225.139C23.5722 218.643 22.2905 214.708 18.4552 211.845L13.6702 218.256ZM16.831 226.521C17.0151 227.571 17.2035 228.536 17.3625 229.251C17.4385 229.593 17.5238 229.95 17.6116 230.249C17.6439 230.359 17.73 230.651 17.8718 230.962C17.898 231.02 18.1357 231.578 18.6471 232.112C18.8744 232.349 19.6606 233.128 20.9945 233.313C22.7131 233.553 23.9885 232.673 24.6248 231.911L18.4823 226.785C19.1139 226.028 20.384 225.152 22.0968 225.39C23.425 225.575 24.2049 226.349 24.4254 226.579C24.9231 227.099 25.1451 227.631 25.1538 227.65C25.219 227.793 25.2563 227.901 25.2668 227.931C25.2745 227.954 25.2798 227.97 25.2826 227.979C25.2841 227.984 25.2853 227.988 25.2859 227.99C25.2866 227.992 25.287 227.993 25.2871 227.994C25.2871 227.994 25.2861 227.99 25.2842 227.983C25.2823 227.976 25.2796 227.967 25.2763 227.954C25.2695 227.929 25.2607 227.895 25.2501 227.851C25.2285 227.764 25.2022 227.652 25.1716 227.514C25.047 226.954 24.8817 226.114 24.7108 225.139L16.831 226.521ZM24.631 231.903C25.1493 231.279 25.352 230.627 25.3615 230.599C25.4296 230.404 25.4753 230.23 25.5025 230.121C25.5595 229.89 25.605 229.652 25.6401 229.449C25.7128 229.029 25.7807 228.525 25.8333 228.02L17.8763 227.191C17.8385 227.554 17.7934 227.876 17.757 228.087C17.7375 228.2 17.7292 228.229 17.7368 228.198C17.7393 228.188 17.7614 228.098 17.8073 227.966C17.8302 227.9 17.8762 227.775 17.9496 227.619C17.9874 227.538 18.0429 227.428 18.1184 227.3C18.1907 227.178 18.3074 226.996 18.4761 226.793L24.631 231.903ZM25.8333 228.02C26.0684 225.761 26.8124 222.108 27.1874 221.036L19.6358 218.395C18.9759 220.282 18.1447 224.613 17.8763 227.191L25.8333 228.02ZM27.1874 221.036C27.6903 219.598 28.425 218.677 29.6533 217.93C31.0392 217.088 33.2364 216.364 36.839 215.856L35.7221 207.935C31.6885 208.503 28.2426 209.426 25.4988 211.094C22.5973 212.857 20.7156 215.308 19.6359 218.395L27.1874 221.036ZM36.839 215.856C37.4816 215.766 38.0928 215.666 38.5685 215.576C38.7944 215.532 39.053 215.479 39.288 215.418C39.385 215.393 39.6028 215.335 39.8471 215.242C39.9443 215.204 40.241 215.089 40.5787 214.876C40.7399 214.775 41.0882 214.542 41.4388 214.149C41.7588 213.79 42.4572 212.872 42.4572 211.479H34.4572C34.4572 210.09 35.1537 209.176 35.47 208.822C35.8168 208.433 36.1594 208.205 36.3132 208.108C36.6359 207.905 36.9105 207.8 36.9786 207.774C37.0874 207.732 37.1703 207.706 37.2056 207.696C37.2467 207.683 37.2743 207.676 37.283 207.674C37.2969 207.67 37.2357 207.685 37.0671 207.718C36.7537 207.778 36.2765 207.856 35.7222 207.935L36.839 215.856ZM42.4572 211.479C42.4572 209.699 41.3445 208.679 41.0458 208.424C40.6422 208.08 40.2626 207.896 40.1128 207.827C39.7763 207.671 39.4833 207.591 39.3775 207.563C39.1108 207.492 38.8524 207.447 38.6808 207.42C38.3005 207.359 37.8479 207.309 37.3976 207.273L36.7613 215.248C37.0687 215.272 37.3051 215.302 37.4242 215.32C37.5023 215.333 37.4463 215.328 37.3195 215.294C37.2838 215.284 37.0451 215.223 36.7454 215.084C36.614 215.023 36.2486 214.847 35.8544 214.511C35.5652 214.265 34.4572 213.253 34.4572 211.479H42.4572ZM37.3976 207.273C36.8393 207.228 35.4104 207.025 34.3021 206.815L32.8171 214.676C34.0653 214.912 35.8042 215.171 36.7613 215.248L37.3976 207.273ZM34.3021 206.815C31.0443 206.2 29.6385 205.48 28.8481 204.727C28.0894 204.005 27.3701 202.747 26.7522 199.729L18.9147 201.333C19.6503 204.926 20.808 208.118 23.331 210.52C25.8223 212.893 29.1028 213.974 32.8172 214.676L34.3021 206.815ZM26.7523 199.729C26.5714 198.845 26.2426 197.001 26.0302 195.667L18.1297 196.924C18.3536 198.331 18.7029 200.298 18.9146 201.333L26.7523 199.729ZM26.0302 195.667C25.9129 194.93 25.7829 194.221 25.6633 193.661C25.6052 193.39 25.5385 193.101 25.4664 192.843C25.4331 192.724 25.3769 192.532 25.2973 192.324C25.2593 192.224 25.1855 192.039 25.0714 191.824C25.0249 191.737 24.7024 191.095 24.0137 190.546L19.0247 196.8C18.8158 196.633 18.6568 196.472 18.5439 196.346C18.4291 196.218 18.3394 196.1 18.2729 196.007C18.1436 195.826 18.0556 195.67 18.0045 195.574C17.9042 195.385 17.8453 195.234 17.8233 195.176C17.7756 195.052 17.7557 194.975 17.7621 194.998C17.7695 195.024 17.7965 195.13 17.8401 195.334C17.9236 195.725 18.0289 196.291 18.1297 196.924L26.0302 195.667ZM24.0137 190.546C22.9562 189.702 21.5015 189.42 20.1512 189.904C19.1397 190.267 18.5712 190.926 18.3866 191.151C17.9721 191.657 17.7735 192.157 17.729 192.266C17.5819 192.627 17.488 192.985 17.4354 193.198C17.3131 193.694 17.2011 194.304 17.1109 194.921L25.0267 196.079C25.0939 195.619 25.1619 195.279 25.2029 195.113C25.2319 194.995 25.2154 195.094 25.1367 195.287C25.1263 195.312 24.9597 195.752 24.5741 196.222C24.404 196.43 23.8493 197.077 22.8507 197.435C22.2895 197.636 21.5914 197.742 20.8285 197.61C20.0705 197.479 19.4643 197.15 19.0247 196.8L24.0137 190.546Z" fill="white" mask="url(#path-3-outside-2_527_239)"/>
<path d="M69.3075 55.0728C71.7461 55.3866 74.0627 55.7486 76.4281 55.99C79.2756 56.0296 82.0642 55.1856 84.4022 53.5763C84.9046 53.3395 85.3252 52.9613 85.6115 52.489C85.8977 52.0168 86.0369 51.4714 86.0116 50.9212C85.9434 50.3285 86.0066 49.7282 86.1968 49.1621C86.3869 48.596 86.6995 48.0778 87.1127 47.6435C87.5259 47.2093 88.0298 46.8694 88.5893 46.6476C89.1488 46.4258 89.7504 46.3274 90.3523 46.3594C93.4005 46.5524 94.4247 44.0905 95.2294 41.8457C96.7347 37.9854 97.0654 33.7732 96.1804 29.729C98.5905 30.1759 100.813 31.3179 102.569 33.0116C106.096 35.809 108.563 39.7052 109.568 44.0663C110.471 47.501 110.471 51.1071 109.568 54.5418C109.418 55.0427 109.426 55.5773 109.591 56.0735C109.757 56.5698 110.072 57.0039 110.495 57.3175C117.368 63.5515 123.262 70.7678 127.979 78.727C130.474 82.7982 132.363 87.2043 133.588 91.8092C133.905 93.5864 133.955 95.4003 133.734 97.1917C133.735 97.5234 133.667 97.8517 133.534 98.1562C133.401 98.4606 133.206 98.7346 132.961 98.9611C132.716 99.1876 132.426 99.3617 132.111 99.4726C131.795 99.5834 131.459 99.6287 131.125 99.6054C127.99 99.625 124.911 98.7899 122.224 97.1917C113.095 92.1553 105.064 85.3792 98.5946 77.2546C97.1315 75.5409 95.8146 73.7065 94.4734 71.8962C94.2362 71.4627 93.8627 71.1174 93.4095 70.9127C92.9563 70.7081 92.4481 70.6551 91.9617 70.7618C89.5125 71.2913 86.9755 71.2804 84.531 70.7297C82.0865 70.1791 79.7946 69.1022 77.8181 67.5757C73.5531 64.756 70.522 60.4453 69.3319 55.5073C69.3071 55.3638 69.2989 55.2181 69.3075 55.0728Z" fill="white"/>
<path fill-rule="evenodd" clip-rule="evenodd" d="M60.1822 50.983C60.0386 50.6934 59.8976 50.4025 59.759 50.1103C58.8386 48.2805 58.0734 46.377 57.4714 44.4197C56.9728 43.1441 56.8085 41.7627 56.9941 40.4056C57.1796 39.0485 57.7089 37.7605 58.532 36.6631C59.2234 35.8918 60.0771 35.2822 61.0321 34.8779C61.9872 34.4736 63.0199 34.2846 64.0563 34.3245C64.7667 34.3629 65.477 34.2609 66.1676 34.1616L65.9688 34.0787C58.8807 31.1215 51.8252 28.1779 44.1365 27.2946L44.0776 27.2861C40.5402 26.7767 37.0416 26.2729 33.5548 27.7915C32.4247 28.1956 31.4177 28.8826 30.6305 29.7863C29.8434 30.69 29.3026 31.78 29.0601 32.9516C28.4888 36.5287 29.0504 40.1931 30.6668 43.435C32.121 46.8254 33.8627 50.0858 35.873 53.1806C38.5972 57.4241 41.4933 61.6027 44.6204 65.5676C47.4936 69.2306 50.555 72.7351 53.6135 76.2363L53.6153 76.2384C54.3216 77.0469 55.0277 77.8552 55.7312 78.6652C44.8951 93.0666 39.5716 111.612 42.337 130.861C47.8507 169.242 83.4339 195.885 121.814 190.372C135.497 188.406 147.688 182.619 157.462 174.245C157.564 174.338 157.667 174.459 157.775 174.612C158.208 175.227 158.685 175.807 159.161 176.387L159.161 176.387C159.742 177.095 160.323 177.802 160.821 178.569C161.099 179.001 161.377 179.433 161.655 179.866L161.656 179.866C163.742 183.107 165.829 186.347 167.685 189.621C168.392 190.893 168.88 192.284 169.369 193.679L169.369 193.679C169.688 194.587 170.007 195.497 170.387 196.376C170.958 198.045 171.042 199.842 170.628 201.558C170.113 205.123 165.406 206.702 162.734 206.323C162.466 206.302 162.196 206.301 161.928 206.319C162.304 206.843 162.824 207.249 163.425 207.488L164.109 207.754C171.579 210.654 179.039 213.551 187.144 214.333C190.161 214.894 193.277 214.565 196.111 213.386C197.705 212.706 198.967 211.429 199.628 209.831C200.345 207.884 200.51 205.777 200.102 203.744C199.716 201.405 199.01 199.13 198.003 196.983C195.995 192.81 193.726 188.767 191.21 184.877C185.098 176.035 178.296 167.687 170.868 159.91C170.712 159.791 170.578 159.647 170.471 159.484C179.581 145.658 183.864 128.573 181.325 110.894C176.705 78.7403 150.982 54.8238 120.189 51.1523C120.16 51.6354 120.119 52.1181 120.067 52.5998C126.449 58.8458 131.989 65.8927 136.545 73.5666C139.525 78.4435 141.785 83.7216 143.252 89.2397C143.323 89.5076 143.383 89.7783 143.432 90.0512C143.899 92.6667 143.993 95.3339 143.71 97.9741C143.619 99.418 143.276 100.835 142.696 102.162C142.009 103.735 141.004 105.143 139.751 106.302C138.499 107.461 137.024 108.346 135.422 108.909C133.974 109.417 132.446 109.652 130.916 109.606C126.118 109.588 121.405 108.304 117.264 105.876C107.087 100.24 98.1206 92.6777 90.8754 83.6141C90.1846 82.799 89.5197 81.9605 88.8943 81.1452C86.6949 81.1916 84.4915 80.9717 82.3334 80.4855C78.5915 79.6426 75.0693 78.0182 72.0024 75.7164C65.7997 71.5085 61.3692 65.1489 59.6103 57.8505C59.5595 57.64 59.5157 57.428 59.4787 57.2148C59.3223 56.3123 59.2707 55.3942 59.3252 54.4789C59.3978 53.2586 59.6924 52.0757 60.1822 50.983ZM72.6241 62.6184C81.1253 56.8885 91.0192 52.9395 101.847 51.3839C104.65 50.9814 107.437 50.7502 110.199 50.6826C110.112 51.9809 109.902 53.2732 109.568 54.542C109.418 55.043 109.426 55.5776 109.591 56.0738C109.757 56.5701 110.072 57.0042 110.495 57.3178C117.368 63.5518 123.262 70.768 127.979 78.7272C130.474 82.7985 132.363 87.2045 133.588 91.8095C133.905 93.5866 133.955 95.4005 133.734 97.192C133.735 97.5237 133.667 97.852 133.534 98.1564C133.401 98.4609 133.206 98.7349 132.961 98.9614C132.716 99.1879 132.426 99.362 132.111 99.4728C131.795 99.5837 131.459 99.6289 131.125 99.6057C127.99 99.6253 124.911 98.7902 122.224 97.192C113.095 92.1555 105.064 85.3795 98.5946 77.2549C97.3539 75.8017 96.2184 74.2617 95.0841 72.7233L95.0839 72.7231C94.8806 72.4474 94.6773 72.1717 94.4734 71.8965C94.2362 71.463 93.8627 71.1177 93.4095 70.913C92.9563 70.7083 92.4481 70.6553 91.9617 70.7621C89.5125 71.2916 86.9755 71.2807 84.531 70.73C82.0865 70.1793 79.7946 69.1025 77.8181 67.576C77.0718 67.0826 76.3632 66.5435 75.6957 65.9634C75.6078 65.887 75.5206 65.8098 75.434 65.732C74.3877 64.7905 73.4467 63.7464 72.6241 62.6184Z" fill="white"/>
<path d="M327.357 130.295V129.655C327.342 129.064 327.231 128.479 327.029 127.923C326.966 127.659 326.815 127.425 326.601 127.258C326.387 127.091 326.123 127.002 325.852 127.006H304.556C302.515 127.046 300.506 126.505 298.76 125.447C297.048 124.423 295.545 123.084 294.331 121.5C293.101 119.943 292.147 118.186 291.511 116.305C290.891 114.482 290.569 112.569 290.56 110.643C290.632 108.625 291.14 106.646 292.048 104.843C293.065 102.633 294.349 100.557 295.871 98.6611C297.382 96.7552 299.179 95.0962 301.2 93.7437C302.953 92.5176 305.029 91.837 307.168 91.7871H361.491C359.77 94.3066 357.905 96.7232 355.903 99.0247C353.718 101.557 351.408 103.978 348.983 106.28H313.829C313.033 106.28 312.375 106.816 311.804 107.873C311.324 108.649 311.028 109.526 310.939 110.435V110.972C310.939 110.972 311.095 111.197 311.372 111.457L312.012 112.028C312.37 112.37 312.786 112.646 313.24 112.842C313.529 112.991 313.83 113.112 314.14 113.206H334.381C336.454 113.106 338.509 113.631 340.281 114.712C341.892 115.799 343.25 117.223 344.26 118.885C345.296 120.552 346.072 122.368 346.561 124.27C347.035 126.003 347.285 127.789 347.304 129.586V130.295C347.263 132.333 346.828 134.344 346.024 136.217C345.179 138.302 344.05 140.26 342.668 142.035C341.328 143.764 339.708 145.256 337.876 146.45C336.224 147.564 334.28 148.167 332.288 148.182H278C278.642 146.976 279.371 145.819 280.18 144.719C281.287 143.143 282.446 141.567 283.64 139.975C284.834 138.382 286.045 136.944 287.1 135.698C288.155 134.451 288.83 133.845 289.02 133.845H325.229C326.285 133.845 326.959 133.516 327.081 132.875C327.262 132.215 327.355 131.534 327.357 130.85V130.295Z" fill="white"/>
<path d="M379.327 106.054H359.189C359.609 105.208 360.132 104.417 360.746 103.7C361.698 102.418 362.84 100.998 364.207 99.44C365.573 97.8817 366.871 96.358 368.255 94.9035C369.318 93.7249 370.514 92.6733 371.819 91.7695H425.051C424.355 93.1339 423.544 94.4372 422.629 95.6654C421.453 97.2757 420.207 98.8513 418.892 100.41C417.704 101.796 416.427 103.103 415.069 104.323C413.823 105.466 412.924 106.054 412.353 106.054H399.776L384.448 148.164H363.982L379.327 106.054Z" fill="white"/>
<path d="M491.276 91.7177C490.546 93.0982 489.707 94.4183 488.767 95.6655C487.591 97.2758 486.363 98.8515 485.048 100.41C483.859 101.801 482.575 103.108 481.207 104.323C479.962 105.466 479.062 106.054 478.491 106.054H445.621L439.548 122.781L449.738 112.98H474.339L459.098 127.369H437.905L435.569 133.758H476.363C476.363 133.897 476.104 134.191 475.827 134.659C475.55 135.126 475.256 135.594 474.979 136.096C474.702 136.598 474.408 137.048 474.131 137.481C473.967 137.739 473.788 137.988 473.595 138.226C472.784 139.269 471.912 140.264 470.983 141.204C469.876 142.347 468.803 143.437 467.73 144.459C466.658 145.481 465.724 146.364 464.91 147.074C464.501 147.473 464.055 147.832 463.578 148.147H409.948L430.5 91.6484L491.276 91.7177Z" fill="white"/>
<path d="M476.572 148.216L497.124 91.7178H517.469L502.141 133.758H535.894C535.553 134.377 535.147 134.957 534.683 135.49C533.783 136.702 532.676 138.104 531.327 139.697C529.977 141.29 528.559 142.901 527.054 144.494C525.904 145.779 524.661 146.977 523.334 148.078L476.572 148.216Z" fill="white"/>
<path d="M536.223 148.216L556.775 91.7178H577.12L561.723 133.758H595.493C595.148 134.379 594.736 134.959 594.265 135.49C593.382 136.702 592.258 138.104 590.908 139.697C589.559 141.29 588.14 142.901 586.652 144.494C585.503 145.779 584.26 146.977 582.933 148.078L536.223 148.216Z" fill="white"/>
<path d="M650.403 148.217L648.171 136.096C647.753 136.97 647.23 137.79 646.614 138.538C645.732 139.75 644.745 141.031 643.638 142.381C642.531 143.732 641.458 144.979 640.386 146.122C639.723 146.92 638.934 147.604 638.05 148.147H593.07C593.108 147.891 593.177 147.641 593.277 147.403V147.074L631.615 98.038C631.974 97.4141 632.404 96.8332 632.895 96.3065C633.535 95.6139 634.227 94.9039 634.971 94.2287C635.685 93.6062 636.436 93.028 637.22 92.4972C637.744 92.0538 638.389 91.7765 639.071 91.7007H656.873C657.268 91.7236 657.651 91.8409 657.991 92.0428C658.331 92.2446 658.618 92.5251 658.828 92.8608C659.484 93.7443 660.008 94.7183 660.385 95.7524C660.818 96.9204 661.188 98.1111 661.492 99.3193C661.821 100.566 662.08 101.605 662.305 102.471L669.329 148.199L650.403 148.217ZM626.546 133.932H648.223L644.486 108.877L626.546 132.858V133.932Z" fill="white"/>
<path d="M694.813 91.7179H742.319C744.318 91.5912 746.309 92.0639 748.038 93.0756C749.766 94.0872 751.155 95.5919 752.025 97.3972C752.854 99.0716 753.392 100.875 753.616 102.73C753.849 104.499 753.97 106.28 753.979 108.063C754.108 111.258 753.177 114.405 751.333 117.015C749.557 119.353 747.281 121.264 744.672 122.608C741.89 124.037 738.91 125.041 735.832 125.586C732.818 126.165 729.774 126.575 726.714 126.815L747.596 148.251H724.863L702.909 127.993L701.733 128.841L694.709 148.251H674.26L694.813 91.7179ZM733.375 108.029C733.39 107.526 733.283 107.027 733.064 106.574C732.844 106.193 732.308 106.003 731.455 106.003H710.054L703.982 122.625L713.359 113.136H730.399C730.881 113.158 731.357 113.032 731.765 112.775C732.173 112.518 732.493 112.143 732.683 111.699C733.099 110.925 733.335 110.067 733.375 109.189V108.029Z" fill="white"/>
</svg>
