<svg width="740" height="171" viewBox="0 0 740 171" fill="none" xmlns="http://www.w3.org/2000/svg">
<path d="M254.073 98.5912V97.8615C254.056 97.1882 253.929 96.5221 253.699 95.8894C253.627 95.5888 253.455 95.3216 253.212 95.1316C252.968 94.9416 252.667 94.8403 252.359 94.8442H228.103C225.78 94.89 223.491 94.2745 221.503 93.0694C219.552 91.9032 217.841 90.3775 216.458 88.5731C215.057 86.7998 213.97 84.7986 213.247 82.6569C212.539 80.5801 212.173 78.4023 212.163 76.2082C212.245 73.9096 212.823 71.6559 213.857 69.6018C215.016 67.0855 216.478 64.721 218.212 62.5615C219.932 60.3908 221.98 58.5013 224.281 56.9609C226.278 55.5644 228.643 54.7892 231.079 54.7324H292.949C290.989 57.6019 288.864 60.3544 286.584 62.9757C284.096 65.8594 281.466 68.6172 278.703 71.2386H238.665C237.758 71.2386 237.009 71.8499 236.359 73.0529C235.812 73.9376 235.475 74.9361 235.374 75.9716V76.5829C235.374 76.5829 235.551 76.8393 235.867 77.1351L236.596 77.7859C237.004 78.1751 237.477 78.489 237.995 78.7127C238.323 78.8819 238.666 79.0205 239.019 79.1269H262.073C264.433 79.0138 266.774 79.6114 268.792 80.8426C270.628 82.0807 272.174 83.7021 273.324 85.5952C274.504 87.4943 275.387 89.5625 275.944 91.7284C276.485 93.7018 276.769 95.7365 276.791 97.7826V98.5912C276.744 100.912 276.249 103.202 275.333 105.336C274.371 107.711 273.085 109.94 271.511 111.962C269.984 113.931 268.139 115.63 266.053 116.991C264.171 118.259 261.958 118.945 259.689 118.963H197.858C198.589 117.59 199.419 116.272 200.341 115.018C201.602 113.224 202.922 111.429 204.281 109.615C205.641 107.801 207.02 106.164 208.222 104.744C209.424 103.324 210.193 102.634 210.409 102.634H251.649C252.851 102.634 253.62 102.259 253.758 101.53C253.964 100.778 254.07 100.002 254.073 99.2222V98.5912Z" fill="#0D1520"/>
<path d="M313.263 70.9824H290.328C290.805 70.0181 291.401 69.1171 292.101 68.3004C293.185 66.8411 294.485 65.224 296.042 63.4491C297.598 61.6743 299.076 59.9389 300.652 58.2823C301.864 56.9399 303.226 55.7422 304.711 54.7129H365.34C364.547 56.2669 363.624 57.7512 362.582 59.15C361.242 60.9841 359.823 62.7786 358.326 64.5535C356.973 66.1323 355.518 67.6211 353.971 69.0104C352.552 70.3119 351.528 70.9824 350.878 70.9824H336.553L319.095 118.943H295.786L313.263 70.9824Z" fill="#0D1520"/>
<path d="M440.767 54.6536C439.935 56.2259 438.98 57.7294 437.91 59.1499C436.57 60.9839 435.171 62.7785 433.673 64.5534C432.319 66.1374 430.857 67.6266 429.299 69.0102C427.881 70.3118 426.856 70.9823 426.206 70.9823H388.768L381.852 90.0325L393.458 78.8706H421.477L404.118 95.2585H379.981L377.321 102.535H423.782C423.782 102.693 423.487 103.028 423.171 103.561C422.856 104.093 422.521 104.626 422.206 105.198C421.891 105.77 421.556 106.282 421.24 106.775C421.053 107.069 420.849 107.352 420.629 107.623C419.706 108.812 418.712 109.945 417.654 111.015C416.393 112.317 415.172 113.559 413.95 114.723C412.728 115.886 411.664 116.892 410.738 117.701C410.272 118.155 409.764 118.564 409.221 118.923H348.139L371.547 54.5747L440.767 54.6536Z" fill="#0D1520"/>
<path d="M424.019 119.002L447.427 54.6538H470.599L453.141 102.536H491.583C491.195 103.24 490.732 103.901 490.204 104.508C489.18 105.888 487.918 107.485 486.382 109.3C484.845 111.114 483.229 112.948 481.515 114.762C480.205 116.226 478.789 117.59 477.278 118.845L424.019 119.002Z" fill="#0D1520"/>
<path d="M491.958 119.002L515.366 54.6538H538.537L521.001 102.536H559.463C559.07 103.242 558.601 103.903 558.064 104.508C557.059 105.888 555.778 107.485 554.241 109.3C552.704 111.114 551.089 112.948 549.394 114.762C548.085 116.226 546.669 117.59 545.158 118.845L491.958 119.002Z" fill="#0D1520"/>
<path d="M622.002 119.002L619.46 105.198C618.984 106.193 618.388 107.127 617.687 107.978C616.682 109.359 615.559 110.818 614.298 112.356C613.037 113.894 611.815 115.314 610.594 116.616C609.839 117.525 608.94 118.305 607.934 118.923H556.704C556.747 118.632 556.826 118.347 556.94 118.075V117.7L600.604 61.8516C601.014 61.141 601.503 60.4794 602.062 59.8795C602.791 59.0907 603.579 58.2821 604.426 57.513C605.239 56.8041 606.095 56.1455 606.988 55.5409C607.585 55.0359 608.319 54.7201 609.096 54.6338H629.371C629.821 54.6599 630.258 54.7935 630.645 55.0234C631.033 55.2533 631.359 55.5728 631.598 55.9551C632.345 56.9614 632.942 58.0707 633.371 59.2484C633.865 60.5787 634.286 61.9349 634.632 63.3109C635.007 64.7308 635.302 65.914 635.558 66.9L643.558 118.982L622.002 119.002ZM594.831 102.732H619.519L615.263 74.1967L594.831 101.51V102.732Z" fill="#0D1520"/>
<path d="M672.583 54.6538H726.69C728.966 54.5095 731.234 55.0479 733.203 56.2001C735.172 57.3523 736.753 59.066 737.743 61.1222C738.688 63.0292 739.301 65.0832 739.556 67.1962C739.821 69.2102 739.959 71.2388 739.97 73.2701C740.116 76.9084 739.056 80.493 736.955 83.4657C734.933 86.1283 732.341 88.3046 729.369 89.8355C726.201 91.4629 722.807 92.6063 719.301 93.2275C715.868 93.8868 712.401 94.3543 708.917 94.6276L732.699 119.042H706.808L681.804 95.9686L680.464 96.9349L672.464 119.042H649.174L672.583 54.6538ZM716.503 73.2307C716.52 72.658 716.398 72.0896 716.148 71.5742C715.898 71.1403 715.288 70.9234 714.315 70.9234H689.942L683.026 89.8552L693.705 79.0483H713.114C713.662 79.0725 714.205 78.9288 714.669 78.6363C715.134 78.3439 715.499 77.9166 715.714 77.4115C716.188 76.5294 716.457 75.5522 716.503 74.552V73.2307Z" fill="#0D1520"/>
<path d="M85.6441 100.741C82.1959 96.5207 76.7577 90.3087 72.5016 86.049C69.7562 83.1172 66.9386 80.1722 64.0487 77.2141C35.3008 46.6274 18.1584 18.0916 25.0548 11.1893C26.6705 9.57223 29.4881 9.21726 33.2516 10.1441C17.9023 0.914858 6.37551 -2.53626 1.92244 1.96005C-7.61423 11.4654 19.2618 53.8649 61.901 96.6193L62.433 97.1912V97.2898L64.1866 99.2619C64.6989 99.8535 65.1718 100.406 65.5659 100.8C90.2154 128.508 104.166 153.119 97.8211 159.449C96.2054 161.066 93.3877 161.421 89.644 160.475C104.993 169.724 116.52 173.155 120.953 168.718C128.5 161.185 113.348 133.201 85.6441 100.741Z" fill="#0D1520"/>
<path d="M55.1824 32.5272L56.0494 33.6315C57.9568 36.0059 59.9892 38.277 62.1378 40.4352C75.4576 53.7466 86.1962 56.3695 87.6346 55.344C88.6198 53.9438 85.9992 43.1961 72.6794 29.8649C70.5202 27.7028 68.2373 25.6681 65.8422 23.7712L64.7388 22.9035L65.0934 21.5428C65.7807 18.8715 65.7625 16.0674 65.0405 13.4053C64.3186 10.7433 62.9177 8.3147 60.9753 6.35784C59.8162 5.21321 58.4868 4.25526 57.0345 3.51807C57.803 9.8484 56.7981 13.6151 54.0199 15.2124C53.1534 15.6937 52.1911 15.9766 51.2022 16.0407C50.6098 16.0293 50.0295 16.209 49.5471 16.5534C48.9605 17.1547 48.6046 17.9438 48.5422 18.7819C48.3579 19.9009 47.9563 20.9728 47.36 21.9372C45.5275 24.6192 41.8035 25.6052 35.7544 24.9347C37.4186 28.093 40.104 30.5929 43.3717 32.0257C46.6394 33.4586 50.296 33.7396 53.744 32.823L55.1824 32.5272Z" fill="#0D1520"/>
<path d="M53.8224 32.8819L55.1819 32.5269L56.0489 33.6313C57.9564 36.0057 59.9887 38.2768 62.1374 40.4349C75.4572 53.7464 86.1958 56.3693 87.6342 55.3438C88.6194 53.9436 86.0185 43.2747 72.8366 30.0027C69.0881 29.2409 65.2727 28.8577 61.4478 28.8589C55.2256 28.8569 49.0464 29.8899 43.1626 31.9156C46.4992 33.4546 50.2638 33.7958 53.8224 32.8819V32.8819Z" fill="#0D1520"/>
<path d="M80.7972 32.271C84.3148 36.3248 87.3011 40.8114 89.6837 45.6219C92.5407 51.6761 92.8954 56.2316 90.6886 58.4403C90.1386 58.9315 89.4965 59.3082 88.7996 59.5486C88.1028 59.789 87.3651 59.8882 86.6296 59.8405C80.147 59.8405 69.0143 53.4707 59.0442 43.5118C57.0738 41.5397 55.2217 39.5676 53.4877 37.4181C50.8117 37.9017 48.066 37.8437 45.4128 37.2476C42.7596 36.6514 40.2526 35.5292 38.0399 33.9473C26.1542 39.3759 16.5207 48.7666 10.7849 60.515C5.0491 72.2635 3.56704 85.6407 6.59189 98.3613C9.61673 111.082 16.9608 122.357 27.3694 130.26C37.7781 138.163 50.6055 142.203 63.6603 141.691C76.715 141.179 89.1872 136.146 98.946 127.452C108.705 118.758 115.145 106.943 117.166 94.0244C119.187 81.1058 116.663 67.8857 110.026 56.6226C103.39 45.3594 93.0512 36.7521 80.7775 32.271H80.7972Z" fill="#0D1520"/>
</svg>
