<svg width="171" height="740" viewBox="0 0 171 740" fill="none" xmlns="http://www.w3.org/2000/svg">
<path d="M98.5912 485.91L97.8615 485.91C97.1882 485.928 96.5221 486.054 95.8894 486.285C95.5888 486.356 95.3216 486.528 95.1316 486.772C94.9416 487.015 94.8403 487.316 94.8442 487.625L94.8442 511.88C94.89 514.204 94.2745 516.493 93.0694 518.481C91.9032 520.431 90.3775 522.143 88.5731 523.525C86.7998 524.927 84.7986 526.013 82.6569 526.737C80.5801 527.444 78.4023 527.81 76.2082 527.82C73.9096 527.738 71.6559 527.16 69.6018 526.126C67.0855 524.968 64.721 523.505 62.5615 521.771C60.3908 520.051 58.5013 518.004 56.9609 515.703C55.5644 513.705 54.7892 511.341 54.7324 508.905L54.7324 447.035C57.6019 448.994 60.3544 451.119 62.9757 453.399C65.8594 455.887 68.6172 458.518 71.2386 461.281L71.2386 501.319C71.2386 502.225 71.8499 502.974 73.0529 503.624C73.9376 504.171 74.9361 504.508 75.9716 504.609L76.5829 504.609C76.5829 504.609 76.8393 504.432 77.1351 504.117L77.7859 503.388C78.1751 502.98 78.489 502.506 78.7127 501.989C78.8819 501.661 79.0205 501.318 79.1269 500.964L79.1269 477.911C79.0137 475.55 79.6114 473.21 80.8426 471.192C82.0807 469.356 83.7021 467.81 85.5952 466.66C87.4943 465.48 89.5625 464.596 91.7284 464.039C93.7018 463.499 95.7365 463.214 97.7826 463.192L98.5912 463.192C100.912 463.239 103.202 463.734 105.336 464.65C107.711 465.612 109.94 466.899 111.962 468.473C113.931 469.999 115.63 471.844 116.991 473.93C118.259 475.812 118.945 478.026 118.963 480.295L118.963 542.125C117.59 541.394 116.272 540.564 115.018 539.643C113.224 538.382 111.429 537.062 109.615 535.702C107.801 534.342 106.164 532.963 104.744 531.761C103.324 530.559 102.634 529.791 102.634 529.574L102.634 488.334C102.634 487.132 102.259 486.364 101.53 486.226C100.778 486.019 100.002 485.913 99.2222 485.91L98.5912 485.91Z" fill="#0D1520"/>
<path d="M70.9822 426.72L70.9822 449.656C70.0178 449.178 69.1169 448.583 68.3002 447.882C66.8409 446.799 65.2238 445.498 63.4489 443.942C61.674 442.385 59.9386 440.907 58.2821 439.331C56.9397 438.12 55.7419 436.758 54.7126 435.272L54.7126 374.643C56.2666 375.437 57.7509 376.359 59.1498 377.402C60.9838 378.742 62.7784 380.16 64.5533 381.658C66.1321 383.011 67.6209 384.466 69.0101 386.012C70.3117 387.431 70.9822 388.456 70.9822 389.106L70.9822 403.431L118.943 420.888L118.943 444.198L70.9822 426.72Z" fill="#0D1520"/>
<path d="M54.6536 299.217C56.2259 300.048 57.7294 301.004 59.1499 302.074C60.9839 303.413 62.7785 304.812 64.5534 306.31C66.1374 307.664 67.6265 309.126 69.0102 310.684C70.3118 312.103 70.9823 313.127 70.9823 313.778L70.9823 351.215L90.0325 358.131L78.8706 346.525L78.8706 318.507L95.2585 335.866L95.2585 360.003L102.535 362.663L102.535 316.201C102.693 316.201 103.028 316.497 103.561 316.812C104.093 317.127 104.626 317.462 105.198 317.778C105.77 318.093 106.282 318.428 106.775 318.743C107.069 318.931 107.352 319.135 107.623 319.354C108.812 320.278 109.945 321.271 111.015 322.329C112.317 323.59 113.559 324.812 114.723 326.033C115.886 327.255 116.892 328.319 117.701 329.245C118.155 329.711 118.564 330.219 118.923 330.762L118.923 391.844L54.5747 368.436L54.6536 299.217Z" fill="#0D1520"/>
<path d="M119.002 315.964L54.6538 292.556L54.6538 269.385L102.536 286.842L102.536 248.4C103.24 248.789 103.901 249.251 104.508 249.779C105.888 250.804 107.485 252.065 109.3 253.602C111.114 255.139 112.948 256.754 114.762 258.469C116.226 259.778 117.59 261.194 118.845 262.705L119.002 315.964Z" fill="#0D1520"/>
<path d="M119.002 248.026L54.6538 224.618L54.6538 201.446L102.536 218.982L102.536 180.521C103.242 180.913 103.903 181.383 104.508 181.92C105.888 182.924 107.485 184.205 109.3 185.742C111.114 187.279 112.948 188.895 114.762 190.589C116.226 191.899 117.59 193.315 118.845 194.826L119.002 248.026Z" fill="#0D1520"/>
<path d="M119.002 117.981L105.198 120.523C106.193 120.999 107.127 121.595 107.978 122.296C109.359 123.301 110.818 124.424 112.356 125.685C113.895 126.946 115.315 128.168 116.616 129.39C117.525 130.145 118.305 131.043 118.923 132.05L118.923 183.28C118.632 183.237 118.347 183.157 118.075 183.043L117.701 183.043L61.8518 139.38C61.1413 138.97 60.4797 138.481 59.8797 137.921C59.0909 137.192 58.2824 136.404 57.5133 135.557C56.8044 134.744 56.1458 133.889 55.5412 132.996C55.0362 132.398 54.7204 131.664 54.634 130.887L54.634 110.612C54.6601 110.162 54.7937 109.726 55.0236 109.338C55.2535 108.951 55.573 108.624 55.9553 108.385C56.9616 107.638 58.0709 107.041 59.2487 106.612C60.579 106.119 61.9351 105.698 63.3111 105.351C64.731 104.977 65.9143 104.681 66.9003 104.425L118.983 96.4252L119.002 117.981ZM102.733 145.153L102.733 120.464L74.1969 124.72L101.51 145.153L102.733 145.153Z" fill="#0D1520"/>
<path d="M54.6538 67.4008L54.6538 13.2938C54.5095 11.0175 55.0479 8.74987 56.2001 6.78084C57.3523 4.8118 59.066 3.23082 61.1222 2.23994C63.0292 1.2957 65.0832 0.682664 67.1962 0.42715C69.2102 0.162558 71.2388 0.0243767 73.2701 0.0133847C76.9084 -0.132833 80.493 0.927079 83.4657 3.02808C86.1282 5.05088 88.3046 7.64275 89.8355 10.6141C91.4629 13.7823 92.6063 17.1762 93.2275 20.6828C93.8868 24.1154 94.3543 27.5822 94.6276 31.0668L119.042 7.28413L119.042 33.1751L95.9686 58.1794L96.9349 59.5192L119.042 67.519L119.042 90.8091L54.6538 67.4008ZM73.2307 23.4808C72.658 23.4637 72.0896 23.5853 71.5742 23.8354C71.1403 24.085 70.9234 24.6959 70.9234 25.6679L70.9234 50.0417L89.8552 56.9577L79.0483 46.2782L79.0483 26.8698C79.0725 26.3214 78.9288 25.7787 78.6363 25.314C78.3439 24.8493 77.9166 24.4847 77.4115 24.2689C76.5294 23.7956 75.5522 23.5262 74.552 23.4808L73.2307 23.4808Z" fill="#0D1520"/>
<path d="M100.741 654.339C96.5207 657.787 90.3087 663.226 86.049 667.482C83.1172 670.227 80.1722 673.045 77.2141 675.935C46.6274 704.683 18.0916 721.825 11.1893 714.929C9.57223 713.313 9.21726 710.495 10.1441 706.732C0.914857 722.081 -2.53626 733.608 1.96005 738.061C11.4654 747.598 53.8649 720.722 96.6193 678.082L97.1912 677.55L97.2898 677.55L99.2618 675.797C99.8535 675.284 100.406 674.812 100.8 674.418C128.508 649.768 153.119 635.818 159.449 642.162C161.066 643.778 161.421 646.596 160.475 650.339C169.724 634.99 173.155 623.463 168.718 619.03C161.185 611.483 133.201 626.636 100.741 654.339Z" fill="#0D1520"/>
<path d="M32.5272 684.801L33.6315 683.934C36.0059 682.027 38.277 679.994 40.4352 677.846C53.7466 664.526 56.3695 653.787 55.344 652.349C53.9438 651.364 43.1961 653.984 29.8649 667.304C27.7028 669.463 25.6681 671.746 23.7712 674.141L22.9035 675.245L21.5428 674.89C18.8715 674.203 16.0674 674.221 13.4053 674.943C10.7433 675.665 8.3147 677.066 6.35784 679.008C5.21321 680.167 4.25526 681.497 3.51807 682.949C9.8484 682.18 13.6151 683.185 15.2124 685.964C15.6937 686.83 15.9766 687.792 16.0407 688.781C16.0293 689.374 16.209 689.954 16.5534 690.436C17.1547 691.023 17.9438 691.379 18.7819 691.441C19.9009 691.625 20.9728 692.027 21.9372 692.623C24.6192 694.456 25.6052 698.18 24.9347 704.229C28.093 702.565 30.5929 699.879 32.0257 696.612C33.4586 693.344 33.7396 689.687 32.823 686.239L32.5272 684.801Z" fill="#0D1520"/>
<path d="M32.8819 686.161L32.5269 684.801L33.6313 683.934C36.0057 682.027 38.2768 679.995 40.4349 677.846C53.7464 664.526 56.3692 653.788 55.3438 652.349C53.9436 651.364 43.2747 653.965 30.0027 667.147C29.2409 670.895 28.8577 674.711 28.8589 678.536C28.8569 684.758 29.8899 690.937 31.9156 696.821C33.4546 693.484 33.7958 689.72 32.8819 686.161V686.161Z" fill="#0D1520"/>
<path d="M32.271 659.186C36.3248 655.669 40.8114 652.682 45.6219 650.3C51.6761 647.443 56.2316 647.088 58.4403 649.295C58.9315 649.845 59.3082 650.487 59.5486 651.184C59.789 651.881 59.8882 652.618 59.8405 653.354C59.8405 659.836 53.4707 670.969 43.5118 680.939C41.5397 682.91 39.5676 684.762 37.4181 686.496C37.9017 689.172 37.8437 691.917 37.2476 694.571C36.6514 697.224 35.5292 699.731 33.9472 701.943C39.3759 713.829 48.7666 723.463 60.515 729.199C72.2635 734.934 85.6407 736.416 98.3613 733.392C111.082 730.367 122.357 723.023 130.26 712.614C138.163 702.205 142.203 689.378 141.691 676.323C141.179 663.268 136.146 650.796 127.452 641.037C118.758 631.279 106.943 624.839 94.0244 622.818C81.1058 620.797 67.8857 623.32 56.6226 629.957C45.3594 636.594 36.7521 646.932 32.271 659.206L32.271 659.186Z" fill="#0D1520"/>
</svg>
