<svg width="233" height="754" viewBox="0 0 233 754" fill="none" xmlns="http://www.w3.org/2000/svg">
<path d="M6.50311 550.05L6.50299 550.05C5.6421 549.924 4.85016 549.775 4.26226 549.629C3.98563 549.561 3.6733 549.474 3.40673 549.364C3.30889 549.324 3.02747 549.208 2.75644 548.985C2.63435 548.884 2.30075 548.593 2.11821 548.081C1.87596 547.403 2.01614 546.672 2.44063 546.137C2.71116 545.797 3.0295 545.628 3.10051 545.59L3.10622 545.587C3.22711 545.523 3.33718 545.478 3.40852 545.451C3.55587 545.394 3.71066 545.347 3.84334 545.31C4.1182 545.233 4.46486 545.151 4.84428 545.07C5.61167 544.905 6.62002 544.719 7.69101 544.547C9.76291 544.216 12.6393 543.702 14.0645 543.409C18.9616 542.402 21.8703 541.075 23.834 539.004C25.814 536.916 27.0983 533.794 28.0814 528.567L30.047 528.936L28.0815 528.567C28.4144 526.797 28.7541 524.447 28.8384 523.386C28.8873 522.77 28.9532 522.188 29.0241 521.741C29.0581 521.526 29.1008 521.293 29.1552 521.088C29.1787 520.999 29.2275 520.825 29.3138 520.638C29.3527 520.554 29.4483 520.357 29.624 520.15C29.754 519.997 30.2684 519.434 31.1663 519.434C31.8676 519.434 32.3296 519.787 32.5103 519.949C32.7085 520.126 32.8268 520.304 32.8797 520.388C32.9904 520.564 33.053 520.724 33.0773 520.787C33.1354 520.939 33.1773 521.092 33.2045 521.198C33.2641 521.429 33.3258 521.723 33.386 522.039C33.5087 522.684 33.6494 523.551 33.7812 524.49C34.5873 530.232 35.7942 534.243 37.503 537.067C39.1639 539.813 41.3536 541.528 44.3911 542.595L6.50311 550.05ZM6.50311 550.05C12.5533 550.938 18.0136 552.242 20.0877 553.187L20.0877 553.187M6.50311 550.05L20.0877 553.187M20.0877 553.187C21.9267 554.026 23.205 554.955 24.2163 556.169M20.0877 553.187L24.2163 556.169M24.2163 556.169C25.2446 557.404 26.0925 559.047 26.8971 561.457L24.2163 556.169ZM28.9322 572.357C28.9331 572.785 28.9492 573.355 29.0909 573.818C29.1301 573.947 29.2201 574.211 29.4181 574.486C29.6136 574.757 30.1212 575.303 30.9948 575.341C31.819 575.377 32.3492 574.927 32.539 574.738C32.7529 574.525 32.8791 574.309 32.94 574.196C33.1601 573.788 33.2871 573.272 33.3678 572.9C33.4651 572.452 33.5572 571.9 33.6389 571.269L33.6389 571.269C34.0664 567.967 35.3055 562.849 36.2114 560.545L36.2114 560.544C36.6176 559.511 37.5497 557.833 38.2187 556.933L38.2187 556.933C40.552 553.793 43.654 552.213 53.4012 550.497L53.4013 550.497C54.9649 550.222 56.3724 549.945 57.3837 549.719C57.8816 549.608 58.3196 549.501 58.6407 549.406C58.7815 549.365 58.9915 549.3 59.1872 549.21L59.1933 549.207C59.2569 549.179 59.5387 549.051 59.8031 548.797C59.9259 548.679 60.3145 548.283 60.4069 547.615C60.5257 546.757 60.0893 546.118 59.705 545.796L59.7012 545.793C59.3915 545.534 59.0584 545.42 58.9893 545.396C58.9861 545.395 58.9835 545.394 58.9815 545.394C58.851 545.348 58.7215 545.313 58.6153 545.286C58.3975 545.232 58.1414 545.182 57.8779 545.136C57.3435 545.043 56.6679 544.951 55.9702 544.878C52.3619 544.501 46.444 543.316 44.3912 542.595L28.9322 572.357Z" fill="#262121" stroke="#262121" stroke-width="4"/>
<path d="M194.411 735.102L194.411 735.102C193.833 735.017 193.291 734.916 192.877 734.814C192.688 734.767 192.444 734.701 192.222 734.611L192.22 734.61C192.142 734.578 191.879 734.471 191.619 734.258C191.502 734.162 191.17 733.874 190.987 733.365C190.744 732.687 190.886 731.957 191.31 731.425C191.578 731.089 191.891 730.924 191.957 730.89C191.959 730.889 191.961 730.888 191.962 730.887C192.076 730.826 192.177 730.786 192.237 730.763C192.362 730.715 192.487 730.678 192.582 730.651C192.782 730.595 193.025 730.538 193.28 730.484C193.797 730.373 194.47 730.25 195.181 730.136C196.534 729.921 198.409 729.587 199.331 729.399C202.493 728.751 204.233 727.922 205.376 726.723C206.533 725.507 207.344 723.633 207.981 720.261L207.981 720.261C208.197 719.117 208.415 717.611 208.467 716.953C208.5 716.538 208.545 716.14 208.595 715.825C208.619 715.676 208.651 715.497 208.696 715.328C208.715 715.258 208.759 715.098 208.842 714.92C208.878 714.841 208.972 714.648 209.147 714.443C209.276 714.292 209.788 713.734 210.68 713.734C211.377 713.734 211.837 714.084 212.018 714.245C212.215 714.421 212.333 714.597 212.385 714.679C212.493 714.852 212.554 715.006 212.575 715.061C212.628 715.198 212.663 715.329 212.683 715.405C212.727 715.577 212.771 715.787 212.812 715.998C212.895 716.433 212.989 717.011 213.076 717.632C213.599 721.342 214.373 723.851 215.422 725.577C216.422 727.223 217.726 728.245 219.576 728.892C220.852 729.338 224.674 730.104 227.013 730.347C227.482 730.396 227.941 730.458 228.309 730.522C228.49 730.553 228.675 730.589 228.84 730.63C228.92 730.65 229.028 730.679 229.141 730.718C229.143 730.719 229.145 730.72 229.147 730.72C229.201 730.738 229.522 730.847 229.826 731.099L229.83 731.102C230.213 731.422 230.653 732.061 230.533 732.921C230.44 733.59 230.05 733.984 229.929 734.1C229.669 734.349 229.395 734.472 229.34 734.497C229.338 734.498 229.336 734.498 229.334 734.499C229.159 734.579 228.982 734.633 228.886 734.661C228.653 734.729 228.348 734.803 228.017 734.877C227.341 735.027 226.407 735.21 225.376 735.39L225.376 735.39C218.998 736.508 217.21 737.508 215.854 739.325L215.854 739.325C215.452 739.864 214.871 740.905 214.628 741.522L214.628 741.522C214.06 742.96 213.259 746.242 212.984 748.356L212.984 748.356C212.929 748.781 212.865 749.162 212.796 749.479C212.743 749.72 212.644 750.147 212.447 750.509C212.392 750.611 212.271 750.819 212.062 751.025C211.877 751.209 211.353 751.653 210.538 751.618C209.673 751.58 209.17 751.041 208.978 750.775C208.783 750.507 208.697 750.251 208.661 750.135C208.534 749.72 208.527 749.25 208.526 748.977C208.525 748.522 208.351 747.228 208.065 745.694C207.786 744.194 207.457 742.764 207.228 742.083L194.411 735.102ZM194.411 735.102C198.377 735.681 201.871 736.522 203.134 737.096L203.134 737.096M194.411 735.102L203.134 737.096M203.134 737.096C204.269 737.611 205.015 738.161 205.597 738.857M203.134 737.096L205.597 738.857M205.597 738.857C206.195 739.572 206.716 740.556 207.228 742.083L205.597 738.857ZM227.79 730.813C227.79 730.813 227.788 730.814 227.782 730.816C227.788 730.814 227.79 730.813 227.79 730.813ZM208.809 716.403C208.808 716.399 208.807 716.396 208.807 716.396C208.807 716.395 208.808 716.397 208.809 716.403Z" fill="#262121" stroke="#262121" stroke-width="4"/>
<path d="M54.273 684.884C54.5868 682.445 54.9488 680.129 55.1902 677.763C55.2298 674.916 54.3858 672.127 52.7765 669.789C52.5397 669.287 52.1615 668.866 51.6892 668.58C51.2169 668.294 50.6716 668.154 50.1214 668.18C49.5287 668.248 48.9284 668.185 48.3623 667.995C47.7962 667.804 47.278 667.492 46.8437 667.079C46.4094 666.665 46.0696 666.162 45.8478 665.602C45.626 665.043 45.5276 664.441 45.5595 663.839C45.7526 660.791 43.2907 659.767 41.0459 658.962C37.1855 657.457 32.9734 657.126 28.9292 658.011C29.3761 655.601 30.5181 653.378 32.2118 651.622C35.0092 648.095 38.9054 645.629 43.2665 644.623C46.7012 643.721 50.3073 643.721 53.742 644.623C54.2429 644.774 54.7775 644.766 55.2737 644.6C55.77 644.434 56.2041 644.119 56.5177 643.697C62.7517 636.823 69.968 630.93 77.9272 626.212C81.9984 623.717 86.4045 621.828 91.0094 620.604C92.7865 620.286 94.6005 620.237 96.3919 620.457C96.7236 620.456 97.0519 620.525 97.3564 620.658C97.6608 620.791 97.9348 620.986 98.1613 621.231C98.3878 621.476 98.5619 621.765 98.6728 622.081C98.7836 622.397 98.8288 622.732 98.8056 623.066C98.8252 626.201 97.9901 629.28 96.3919 631.967C91.3555 641.096 84.5794 649.127 76.4548 655.597C74.7411 657.06 72.9067 658.377 71.0964 659.718C70.6629 659.955 70.3176 660.329 70.1129 660.782C69.9082 661.235 69.8553 661.743 69.962 662.23C70.4915 664.679 70.4806 667.216 69.9299 669.66C69.3793 672.105 68.3024 674.397 66.7759 676.373C63.9562 680.638 59.6455 683.669 54.7074 684.859C54.564 684.884 54.4183 684.893 54.273 684.884Z" fill="#262121"/>
<path fill-rule="evenodd" clip-rule="evenodd" d="M50.1832 694.009C49.8936 694.153 49.6027 694.294 49.3105 694.432C47.4807 695.353 45.5772 696.118 43.6199 696.72C42.3443 697.219 40.9629 697.383 39.6058 697.197C38.2487 697.012 36.9607 696.482 35.8633 695.659C35.092 694.968 34.4824 694.114 34.0781 693.159C33.6738 692.204 33.4848 691.172 33.5247 690.135C33.5631 689.425 33.461 688.714 33.3618 688.024L33.2789 688.223C30.3217 695.311 27.378 702.366 26.4948 710.055L26.4863 710.114C25.9769 713.651 25.4731 717.15 26.9917 720.637C27.3958 721.767 28.0828 722.774 28.9865 723.561C29.8902 724.348 30.9802 724.889 32.1518 725.131C35.7289 725.703 39.3933 725.141 42.6352 723.525C46.0256 722.07 49.2859 720.329 52.3808 718.318C56.6243 715.594 60.8029 712.698 64.7678 709.571C68.4308 706.698 71.9353 703.636 75.4365 700.578L75.4386 700.576C76.2471 699.87 77.0554 699.164 77.8654 698.46C92.2668 709.296 110.812 714.62 130.062 711.854C168.442 706.341 195.086 670.757 189.572 632.377C187.606 618.694 181.819 606.503 173.445 596.729C173.538 596.628 173.66 596.524 173.812 596.416C174.427 595.983 175.008 595.507 175.587 595.031L175.587 595.031C176.295 594.449 177.002 593.868 177.769 593.371C178.201 593.093 178.634 592.815 179.066 592.536L179.066 592.536C182.307 590.449 185.548 588.363 188.821 586.507C190.093 585.8 191.484 585.312 192.879 584.822L192.879 584.822C193.787 584.504 194.697 584.185 195.576 583.804C197.245 583.233 199.042 583.15 200.758 583.563C204.323 584.078 205.902 588.785 205.524 591.458C205.502 591.726 205.501 591.995 205.519 592.264C206.044 591.887 206.449 591.368 206.688 590.767L206.954 590.082C209.854 582.612 212.751 575.152 213.534 567.047C214.094 564.03 213.765 560.914 212.587 558.081C211.906 556.487 210.629 555.224 209.032 554.564C207.084 553.846 204.978 553.682 202.944 554.089C200.605 554.475 198.33 555.182 196.183 556.188C192.01 558.197 187.967 560.466 184.077 562.982C175.235 569.094 166.887 575.895 159.111 583.324C158.992 583.479 158.847 583.613 158.684 583.72C144.858 574.61 127.773 570.327 110.094 572.867C77.9405 577.486 54.024 603.21 50.3525 634.002C50.8356 634.031 51.3183 634.072 51.8 634.124C58.046 627.743 65.0928 622.202 72.7668 617.646C77.6437 614.666 82.9218 612.407 88.4399 610.939C88.7078 610.868 88.9785 610.808 89.2514 610.759C91.8669 610.292 94.5341 610.199 97.1743 610.482C98.6182 610.572 100.036 610.915 101.362 611.495C102.935 612.183 104.343 613.187 105.502 614.44C106.661 615.693 107.547 617.167 108.109 618.769C108.617 620.218 108.853 621.745 108.806 623.275C108.788 628.073 107.504 632.786 105.076 636.928C99.4399 647.104 91.8779 656.071 82.8143 663.316C81.9992 664.007 81.1607 664.672 80.3454 665.297C80.3918 667.496 80.1719 669.7 79.6857 671.858C78.8428 675.6 77.2184 679.122 74.9166 682.189C70.7087 688.392 64.3491 692.822 57.0507 694.581C56.8402 694.632 56.6282 694.676 56.4149 694.713C55.5124 694.869 54.5944 694.921 53.6791 694.866C52.4588 694.794 51.2759 694.499 50.1832 694.009ZM61.8186 681.567C56.0887 673.066 52.1397 663.172 50.5841 652.344C50.1816 649.542 49.9504 646.754 49.8827 643.993C51.1811 644.08 52.4734 644.29 53.7422 644.623C54.2432 644.774 54.7778 644.766 55.274 644.6C55.7702 644.434 56.2044 644.119 56.518 643.697C62.752 636.823 69.9682 630.93 77.9274 626.212C81.9986 623.717 86.4047 621.828 91.0097 620.604C92.7868 620.286 94.6007 620.237 96.3922 620.457C96.7239 620.456 97.0522 620.525 97.3566 620.658C97.6611 620.791 97.9351 620.986 98.1616 621.231C98.3881 621.476 98.5622 621.765 98.673 622.081C98.7839 622.397 98.8291 622.732 98.8059 623.066C98.8255 626.201 97.9904 629.28 96.3922 631.967C91.3557 641.096 84.5797 649.127 76.4551 655.597C75.0019 656.838 73.4619 657.973 71.9235 659.107L71.9233 659.107C71.6476 659.311 71.3719 659.514 71.0967 659.718C70.6631 659.955 70.3179 660.329 70.1132 660.782C69.9085 661.235 69.8555 661.743 69.9623 662.23C70.4918 664.679 70.4808 667.216 69.9302 669.66C69.3795 672.105 68.3027 674.397 66.7762 676.373C66.2828 677.12 65.7437 677.828 65.1636 678.496C65.0872 678.584 65.01 678.671 64.9322 678.757C63.9907 679.804 62.9466 680.745 61.8186 681.567Z" fill="#262121"/>
<path d="M129.495 426.834L128.855 426.834C128.264 426.849 127.679 426.96 127.123 427.163C126.859 427.226 126.625 427.376 126.458 427.59C126.291 427.804 126.202 428.068 126.206 428.339L126.206 449.636C126.246 451.676 125.705 453.686 124.647 455.431C123.623 457.144 122.284 458.646 120.699 459.86C119.143 461.091 117.385 462.044 115.505 462.68C113.682 463.301 111.769 463.622 109.843 463.631C107.825 463.559 105.846 463.052 104.043 462.144C101.833 461.127 99.7572 459.843 97.8611 458.32C95.9552 456.81 94.2962 455.012 92.9436 452.992C91.7176 451.238 91.0369 449.162 90.9871 447.023L90.9871 392.701C93.5065 394.421 95.9232 396.287 98.2247 398.289C100.757 400.474 103.178 402.783 105.48 405.209L105.48 440.363C105.48 441.159 106.016 441.816 107.073 442.387C107.849 442.867 108.726 443.163 109.635 443.252L110.172 443.252C110.172 443.252 110.397 443.096 110.657 442.819L111.228 442.179C111.57 441.821 111.846 441.405 112.042 440.951C112.191 440.663 112.312 440.362 112.406 440.051L112.406 419.81C112.306 417.738 112.831 415.683 113.912 413.911C114.999 412.299 116.423 410.942 118.085 409.932C119.752 408.896 121.568 408.12 123.47 407.631C125.203 407.156 126.989 406.906 128.786 406.887L129.495 406.887C131.533 406.929 133.544 407.363 135.417 408.167C137.502 409.012 139.46 410.141 141.235 411.523C142.964 412.864 144.456 414.484 145.65 416.316C146.764 417.968 147.367 419.911 147.382 421.904L147.382 476.191C146.176 475.549 145.019 474.821 143.919 474.012C142.343 472.904 140.767 471.745 139.174 470.552C137.582 469.358 136.144 468.147 134.898 467.092C133.651 466.036 133.045 465.362 133.045 465.171L133.045 428.962C133.045 427.907 132.716 427.232 132.075 427.111C131.415 426.929 130.734 426.836 130.05 426.834L129.495 426.834Z" fill="#262121"/>
<path d="M105.255 374.865L105.255 395.002C104.408 394.583 103.617 394.06 102.9 393.445C101.618 392.493 100.199 391.352 98.6402 389.985C97.0819 388.618 95.5582 387.321 94.1037 385.937C92.9251 384.873 91.8735 383.677 90.9697 382.373L90.9697 329.14C92.3341 329.837 93.6374 330.647 94.8656 331.562C96.4759 332.739 98.0515 333.984 99.6099 335.299C100.996 336.487 102.303 337.764 103.523 339.122C104.666 340.368 105.255 341.268 105.255 341.839L105.255 354.416L147.364 369.744L147.364 390.21L105.255 374.865Z" fill="#262121"/>
<path d="M90.9179 262.916C92.2984 263.646 93.6185 264.485 94.8657 265.424C96.476 266.601 98.0516 267.829 99.61 269.144C101.001 270.333 102.308 271.616 103.523 272.984C104.666 274.23 105.255 275.13 105.255 275.701L105.255 308.571L121.981 314.643L112.181 304.453L112.181 279.853L126.569 295.094L126.569 316.287L132.959 318.622L132.959 277.828C133.097 277.828 133.391 278.088 133.859 278.365C134.326 278.642 134.794 278.936 135.296 279.212C135.798 279.489 136.248 279.783 136.681 280.06C136.939 280.225 137.188 280.404 137.426 280.596C138.469 281.408 139.464 282.28 140.404 283.209C141.547 284.316 142.638 285.389 143.659 286.461C144.681 287.534 145.564 288.468 146.274 289.281C146.673 289.69 147.032 290.136 147.347 290.613L147.347 344.244L90.8486 323.691L90.9179 262.916Z" fill="#262121"/>
<path d="M147.417 277.62L90.918 257.067L90.918 236.722L132.959 252.05L132.959 218.297C133.577 218.639 134.157 219.045 134.69 219.509C135.902 220.408 137.305 221.515 138.898 222.865C140.491 224.214 142.101 225.633 143.694 227.138C144.979 228.288 146.177 229.531 147.278 230.857L147.417 277.62Z" fill="#262121"/>
<path d="M147.417 217.969L90.918 197.416L90.918 177.071L132.959 192.468L132.959 158.698C133.579 159.043 134.16 159.455 134.69 159.927C135.902 160.809 137.305 161.934 138.898 163.283C140.491 164.632 142.101 166.051 143.694 167.539C144.979 168.689 146.177 169.932 147.278 171.258L147.417 217.969Z" fill="#262121"/>
<path d="M147.417 103.789L135.296 106.021C136.17 106.439 136.99 106.962 137.738 107.578C138.95 108.46 140.231 109.446 141.581 110.553C142.932 111.66 144.179 112.733 145.321 113.806C146.12 114.468 146.804 115.257 147.347 116.141L147.347 161.122C147.091 161.084 146.841 161.014 146.603 160.914L146.274 160.914L97.2379 122.577C96.6141 122.217 96.0332 121.787 95.5064 121.297C94.8138 120.656 94.1039 119.964 93.4286 119.221C92.8062 118.507 92.228 117.756 91.6971 116.972C91.2537 116.447 90.9764 115.803 90.9006 115.12L90.9006 97.3186C90.9236 96.9238 91.0409 96.5403 91.2427 96.2002C91.4446 95.86 91.7251 95.5732 92.0607 95.3637C92.9443 94.7078 93.9182 94.1834 94.9523 93.8067C96.1204 93.3734 97.3111 93.0037 98.5192 92.6994C99.7659 92.3707 100.805 92.1112 101.671 91.8863L147.399 84.8624L147.417 103.789ZM133.132 127.646L133.132 105.969L108.077 109.706L132.058 127.646L133.132 127.646Z" fill="#262121"/>
<path d="M90.9181 59.3785L90.9181 11.872C90.7914 9.87338 91.2641 7.8824 92.2758 6.15357C93.2874 4.42473 94.7921 3.03662 96.5974 2.16662C98.2718 1.33757 100.075 0.799317 101.93 0.574973C103.699 0.342659 105.48 0.221334 107.263 0.211683C110.458 0.083302 113.605 1.01391 116.215 2.85861C118.553 4.63465 120.464 6.91034 121.808 9.51921C123.237 12.3009 124.241 15.2808 124.786 18.3596C125.365 21.3735 125.775 24.4173 126.015 27.4769L147.451 6.59547L147.451 29.328L127.193 51.282L128.041 52.4584L147.451 59.4823L147.451 79.9311L90.9181 59.3785ZM107.229 20.8163C106.726 20.8012 106.227 20.9081 105.774 21.1276C105.393 21.3468 105.203 21.8831 105.203 22.7366L105.203 44.137L121.825 50.2093L112.337 40.8326L112.337 23.7919C112.358 23.3104 112.232 22.8339 111.975 22.4259C111.718 22.0178 111.343 21.6978 110.9 21.5083C110.125 21.0926 109.267 20.8562 108.389 20.8163L107.229 20.8163Z" fill="#262121"/>
</svg>
