<svg width="47" height="198" viewBox="0 0 47 198" fill="none" xmlns="http://www.w3.org/2000/svg">
<path d="M25.4531 125.446L25.2647 125.446C25.0909 125.451 24.9189 125.483 24.7556 125.543C24.678 125.561 24.609 125.606 24.56 125.668C24.5109 125.731 24.4848 125.809 24.4858 125.889L24.4858 132.151C24.4976 132.751 24.3387 133.342 24.0276 133.855C23.7265 134.358 23.3326 134.8 22.8668 135.157C22.409 135.519 21.8923 135.799 21.3394 135.986C20.8032 136.169 20.241 136.263 19.6746 136.266C19.0811 136.245 18.4993 136.095 17.969 135.828C17.3194 135.529 16.709 135.152 16.1515 134.704C15.5911 134.26 15.1032 133.732 14.7056 133.137C14.345 132.622 14.1449 132.011 14.1302 131.383L14.1302 115.41C14.8711 115.916 15.5816 116.464 16.2584 117.053C17.0029 117.695 17.7148 118.374 18.3916 119.088L18.3916 129.424C18.3916 129.658 18.5494 129.851 18.86 130.019C19.0884 130.16 19.3462 130.247 19.6135 130.274L19.7713 130.274C19.7713 130.274 19.8375 130.228 19.9139 130.146L20.0819 129.958C20.1824 129.853 20.2634 129.731 20.3212 129.597C20.3648 129.512 20.4006 129.424 20.4281 129.333L20.4281 123.381C20.3989 122.771 20.5532 122.167 20.871 121.646C21.1907 121.172 21.6092 120.773 22.098 120.476C22.5883 120.172 23.1222 119.943 23.6814 119.8C24.1908 119.66 24.7161 119.587 25.2444 119.581L25.4531 119.581C26.0523 119.593 26.6436 119.721 27.1943 119.957C27.8074 120.206 28.3831 120.538 28.9049 120.944C29.4133 121.338 29.8521 121.815 30.2032 122.353C30.5308 122.839 30.7079 123.411 30.7123 123.996L30.7123 139.959C30.3579 139.77 30.0176 139.556 29.6941 139.318C29.2308 138.992 28.7675 138.652 28.2991 138.301C27.8307 137.95 27.4081 137.594 27.0416 137.283C26.675 136.973 26.4968 136.775 26.4968 136.719L26.4968 126.072C26.4968 125.762 26.4001 125.563 26.2117 125.528C26.0176 125.474 25.8173 125.447 25.616 125.446L25.4531 125.446Z" fill="#101010"/>
<path d="M18.3255 110.165L18.3255 116.086C18.0765 115.963 17.8439 115.809 17.6331 115.629C17.2563 115.349 16.8389 115.013 16.3807 114.611C15.9224 114.209 15.4744 113.828 15.0468 113.421C14.7002 113.108 14.391 112.757 14.1252 112.373L14.1252 96.7207C14.5264 96.9255 14.9096 97.1637 15.2708 97.4329C15.7442 97.7788 16.2076 98.145 16.6658 98.5316C17.0734 98.881 17.4577 99.2565 17.8164 99.6558C18.1524 100.022 18.3255 100.287 18.3255 100.454L18.3255 104.153L30.7073 108.66L30.7073 114.677L18.3255 110.165Z" fill="#101010"/>
<path d="M14.11 77.2483C14.5159 77.463 14.904 77.7096 15.2708 77.9859C15.7442 78.3318 16.2075 78.6929 16.6658 79.0795C17.0747 79.4292 17.4591 79.8065 17.8164 80.2088C18.1524 80.5751 18.3255 80.8396 18.3255 81.0075L18.3255 90.6725L23.2436 92.458L20.362 89.4618L20.362 82.2283L24.5928 86.7098L24.5928 92.9413L26.4714 93.628L26.4714 81.6331C26.5122 81.6331 26.5987 81.7094 26.7362 81.7908C26.8736 81.8722 27.0111 81.9587 27.1588 82.0401C27.3064 82.1215 27.4388 82.208 27.5661 82.2894C27.6419 82.3378 27.715 82.3904 27.785 82.447C28.0918 82.6855 28.3842 82.942 28.6607 83.2152C28.9967 83.5407 29.3174 83.8561 29.6178 84.1715C29.9182 84.4869 30.1778 84.7616 30.3866 85.0007C30.5039 85.121 30.6096 85.2521 30.7022 85.3923L30.7022 101.162L14.0896 95.1184L14.11 77.2483Z" fill="#101010"/>
<path d="M30.7226 81.5718L14.11 75.5286L14.11 69.5464L26.4715 74.0534L26.4715 64.1289C26.6533 64.2293 26.8239 64.3487 26.9806 64.485C27.337 64.7495 27.7494 65.0751 28.2177 65.4719C28.6861 65.8686 29.1596 66.2858 29.628 66.7283C30.0059 67.0664 30.3581 67.4319 30.6819 67.822L30.7226 81.5718Z" fill="#101010"/>
<path d="M30.7226 64.0322L14.11 57.989L14.11 52.0069L26.4715 56.5342L26.4715 46.6046C26.6539 46.7061 26.8246 46.8272 26.9806 46.9658C27.337 47.2252 27.7494 47.5559 28.2177 47.9526C28.6861 48.3494 29.1596 48.7665 29.628 49.204C30.0059 49.5421 30.3581 49.9076 30.6819 50.2977L30.7226 64.0322Z" fill="#101010"/>
<path d="M30.7226 30.459L27.1587 31.1152C27.4157 31.2382 27.6567 31.3919 27.8766 31.573C28.233 31.8324 28.6097 32.1224 29.0068 32.448C29.404 32.7735 29.7705 33.0889 30.1065 33.4043C30.3413 33.5992 30.5425 33.8312 30.7022 34.091L30.7022 47.3169C30.627 47.3058 30.5534 47.2853 30.4833 47.2559L30.3866 47.2559L15.9682 35.9833C15.7848 35.8775 15.614 35.7512 15.4591 35.6069C15.2555 35.4187 15.0467 35.2152 14.8482 34.9965C14.6652 34.7866 14.4951 34.5658 14.3391 34.3352C14.2087 34.181 14.1272 33.9915 14.1049 33.7909L14.1049 28.5565C14.1116 28.4404 14.1461 28.3277 14.2054 28.2276C14.2648 28.1276 14.3473 28.0433 14.446 27.9817C14.7058 27.7888 14.9921 27.6346 15.2962 27.5239C15.6396 27.3965 15.9898 27.2878 16.345 27.1983C16.7116 27.1017 17.017 27.0254 17.2716 26.9592L30.7175 24.894L30.7226 30.459ZM26.5223 37.4738L26.5223 31.0999L19.1553 32.1987L26.2067 37.4738L26.5223 37.4738Z" fill="#101010"/>
<path d="M14.1101 17.4011L14.1101 3.43249C14.0728 2.84482 14.2118 2.2594 14.5093 1.75106C14.8067 1.24272 15.2491 0.834563 15.78 0.578752C16.2723 0.334981 16.8026 0.176716 17.3481 0.110751C17.868 0.0424419 18.3917 0.00676807 18.9162 0.00393031C19.8554 -0.0338183 20.7809 0.239815 21.5483 0.782224C22.2357 1.30444 22.7975 1.97358 23.1928 2.74068C23.6129 3.55861 23.9081 4.43478 24.0685 5.34007C24.2387 6.22627 24.3594 7.12127 24.43 8.02088L30.7329 1.88099L30.7329 8.56518L24.7762 15.0204L25.0256 15.3663L30.7329 17.4316L30.7329 23.4443L14.1101 17.4011ZM18.906 6.06242C18.7581 6.05801 18.6114 6.08942 18.4783 6.15398C18.3663 6.21841 18.3103 6.37612 18.3103 6.62707L18.3103 12.9196L23.1979 14.705L20.4079 11.948L20.4079 6.93737C20.4141 6.79579 20.377 6.65567 20.3015 6.5357C20.226 6.41573 20.1157 6.32161 19.9853 6.26589C19.7576 6.14369 19.5053 6.07416 19.2471 6.06242L18.906 6.06242Z" fill="#101010"/>
<path d="M27.6577 195.543C27.6577 194.495 26.8074 193.646 25.7586 193.646C24.7098 193.646 23.8596 194.495 23.8596 195.543C23.8596 196.591 24.7098 197.44 25.7586 197.44C26.8074 197.44 27.6577 196.591 27.6577 195.543Z" fill="#101010"/>
<path d="M33.8893 156.018C33.8893 154.97 33.0391 154.121 31.9903 154.121C30.9415 154.121 30.0913 154.97 30.0913 156.018C30.0913 157.066 30.9415 157.916 31.9903 157.916C33.0391 157.916 33.8893 157.066 33.8893 156.018Z" fill="#101010"/>
<path d="M46.4697 179.367C46.4697 176.903 44.4706 174.906 42.0047 174.906C39.5387 174.906 37.5397 176.903 37.5397 179.367C37.5397 181.831 39.5387 183.828 42.0047 183.828C44.4706 183.828 46.4697 181.831 46.4697 179.367Z" fill="#101010"/>
<path d="M12.2871 159.314C12.2871 157.825 11.079 156.618 9.58873 156.618C8.09847 156.618 6.89038 157.825 6.89038 159.314C6.89038 160.803 8.09847 162.01 9.58873 162.01C11.079 162.01 12.2871 160.803 12.2871 159.314Z" fill="#101010"/>
<path d="M26.008 168.929C24.9185 169.819 23.3148 171.223 22.2151 172.322C21.4582 173.03 20.6979 173.758 19.9342 174.504C12.0377 181.926 4.67076 186.351 2.88883 184.571C2.47135 184.154 2.37971 183.426 2.619 182.455C0.236308 186.417 -0.654655 189.393 0.506142 190.543C2.96011 193.005 13.9062 186.066 24.944 175.058L25.0916 174.921L25.1171 174.921L25.6262 174.468C25.7789 174.336 25.9215 174.214 26.0233 174.112C33.1765 167.748 39.5303 164.147 41.1646 165.785C41.5821 166.202 41.6737 166.929 41.4293 167.896C43.8171 163.933 44.703 160.957 43.5575 159.813C41.6126 157.865 34.3882 161.776 26.008 168.929Z" fill="#101010"/>
<path d="M8.39751 176.793L8.68261 176.569C9.2956 176.077 9.88192 175.552 10.4391 174.997C13.8757 171.559 14.5528 168.786 14.288 168.415C13.9266 168.161 11.1519 168.837 7.71019 172.276C7.15201 172.833 6.62673 173.423 6.13701 174.041L5.91299 174.326L5.5617 174.234C4.87207 174.057 4.14813 174.062 3.46088 174.248C2.77363 174.434 2.14666 174.796 1.64146 175.297C1.34596 175.597 1.09864 175.94 0.908325 176.315C2.54261 176.116 3.51503 176.376 3.92742 177.093C4.05166 177.317 4.12469 177.565 4.14125 177.82C4.1383 177.973 4.18471 178.123 4.27362 178.248C4.42884 178.399 4.63257 178.491 4.84893 178.507C5.13781 178.555 5.41456 178.658 5.66352 178.812C6.35593 179.286 6.61049 180.247 6.43739 181.809C7.25275 181.379 7.89813 180.686 8.26804 179.842C8.63796 178.998 8.71052 178.054 8.47387 177.164L8.39751 176.793Z" fill="#101010"/>
<path d="M8.48917 177.144L8.39753 176.793L8.68264 176.569C9.29562 176.077 9.88194 175.552 10.4391 174.997C13.8757 171.559 14.5528 168.786 14.2881 168.415C13.9266 168.161 11.1722 168.832 7.74585 172.235C7.54918 173.203 7.45025 174.188 7.45056 175.175C7.45004 176.782 7.71672 178.377 8.2397 179.896C8.63701 179.035 8.72511 178.063 8.48917 177.144V177.144Z" fill="#101010"/>
<path d="M8.33142 170.18C9.37798 169.272 10.5363 168.501 11.7782 167.886C13.3412 167.148 14.5172 167.057 15.0875 167.626C15.2143 167.768 15.3115 167.934 15.3736 168.114C15.4357 168.294 15.4613 168.484 15.4489 168.674C15.4489 170.348 13.8045 173.222 11.2334 175.796C10.7243 176.305 10.2152 176.783 9.66023 177.23C9.78507 177.921 9.7701 178.63 9.6162 179.315C9.4623 180 9.17259 180.647 8.76417 181.218C10.1657 184.287 12.59 186.774 15.6231 188.255C18.6561 189.736 22.1097 190.118 25.3937 189.337C28.6778 188.556 31.5886 186.66 33.6288 183.973C35.6691 181.286 36.7122 177.974 36.58 174.604C36.4478 171.234 35.1485 168.014 32.9041 165.495C30.6596 162.975 27.6092 161.313 24.2741 160.791C20.9389 160.269 17.5259 160.921 14.6182 162.634C11.7104 164.347 9.48829 167.016 8.33142 170.185L8.33142 170.18Z" fill="#101010"/>
</svg>
