<svg width="234" height="754" viewBox="0 0 234 754" fill="none" xmlns="http://www.w3.org/2000/svg">
<mask id="path-1-outside-1_527_240" maskUnits="userSpaceOnUse" x="-0.200198" y="517.143" width="64" height="61" fill="black">
<rect fill="white" x="-0.200198" y="517.143" width="64" height="61"/>
<path fill-rule="evenodd" clip-rule="evenodd" d="M7.59331 547.871C13.646 548.759 19.3594 550.093 21.717 551.167C25.806 553.031 27.8979 555.542 29.594 560.624C30.4359 563.146 31.7272 570.11 31.732 572.152C31.736 573.948 32.148 573.185 32.4553 570.812C32.8981 567.391 34.1697 562.106 35.1499 559.613C35.6211 558.414 36.6395 556.581 37.4132 555.54C40.2476 551.726 44.0661 550.051 53.8543 548.327C56.9436 547.783 59.3582 547.244 59.2201 547.128C59.0818 547.013 57.8858 546.805 56.562 546.667C52.8736 546.281 46.7852 545.075 44.5282 544.282C37.6255 541.857 34.2426 536.266 32.6004 524.568C32.343 522.734 32.0575 521.233 31.9661 521.233C31.8746 521.233 31.7241 522.183 31.6319 523.344C31.5397 524.505 31.1863 526.931 30.8468 528.736C28.838 539.417 25.351 543.094 15.2669 545.168C13.8038 545.468 10.8967 545.988 8.80657 546.322C6.71648 546.656 4.91647 547.043 4.80652 547.181C4.69656 547.319 5.95062 547.63 7.59331 547.871Z"/>
</mask>
<path fill-rule="evenodd" clip-rule="evenodd" d="M7.59331 547.871C13.646 548.759 19.3594 550.093 21.717 551.167C25.806 553.031 27.8979 555.542 29.594 560.624C30.4359 563.146 31.7272 570.11 31.732 572.152C31.736 573.948 32.148 573.185 32.4553 570.812C32.8981 567.391 34.1697 562.106 35.1499 559.613C35.6211 558.414 36.6395 556.581 37.4132 555.54C40.2476 551.726 44.0661 550.051 53.8543 548.327C56.9436 547.783 59.3582 547.244 59.2201 547.128C59.0818 547.013 57.8858 546.805 56.562 546.667C52.8736 546.281 46.7852 545.075 44.5282 544.282C37.6255 541.857 34.2426 536.266 32.6004 524.568C32.343 522.734 32.0575 521.233 31.9661 521.233C31.8746 521.233 31.7241 522.183 31.6319 523.344C31.5397 524.505 31.1863 526.931 30.8468 528.736C28.838 539.417 25.351 543.094 15.2669 545.168C13.8038 545.468 10.8967 545.988 8.80657 546.322C6.71648 546.656 4.91647 547.043 4.80652 547.181C4.69656 547.319 5.95062 547.63 7.59331 547.871Z" fill="white"/>
<path d="M7.59331 547.871L7.01229 551.829L7.01252 551.829L7.59331 547.871ZM21.717 551.167L20.058 554.807L20.0581 554.807L21.717 551.167ZM29.594 560.624L33.3882 559.357L33.3882 559.357L29.594 560.624ZM31.732 572.152L35.732 572.143L35.732 572.142L31.732 572.152ZM32.4553 570.812L36.4222 571.325L36.4222 571.325L32.4553 570.812ZM35.1499 559.613L38.8725 561.076L38.8726 561.076L35.1499 559.613ZM37.4132 555.54L40.6237 557.926L40.6238 557.926L37.4132 555.54ZM53.8543 548.327L54.5478 552.267L54.5479 552.267L53.8543 548.327ZM59.2201 547.128L61.7894 544.063L61.7819 544.056L59.2201 547.128ZM56.562 546.667L56.146 550.645L56.146 550.645L56.562 546.667ZM44.5282 544.282L43.2025 548.056L43.2027 548.056L44.5282 544.282ZM32.6004 524.568L28.6393 525.124L28.6393 525.124L32.6004 524.568ZM30.8468 528.736L26.9157 527.997L26.9157 527.997L30.8468 528.736ZM15.2669 545.168L16.072 549.086L16.0725 549.086L15.2669 545.168ZM7.01252 551.829C13.0603 552.716 18.2674 553.991 20.058 554.807L23.376 547.528C20.4514 546.195 14.2317 544.802 8.17409 543.913L7.01252 551.829ZM20.0581 554.807C21.6915 555.552 22.7028 556.317 23.4794 557.249C24.2898 558.222 25.0387 559.61 25.7998 561.89L33.3882 559.357C32.4531 556.556 31.3081 554.148 29.6263 552.129C27.9106 550.069 25.8316 548.647 23.376 547.528L20.0581 554.807ZM25.7998 561.89C26.126 562.868 26.6186 565.004 27.0439 567.297C27.4819 569.659 27.7306 571.56 27.732 572.161L35.732 572.142C35.7286 570.701 35.3292 568.1 34.9098 565.839C34.4779 563.509 33.9038 560.902 33.3882 559.357L25.7998 561.89ZM27.732 572.161C27.7329 572.569 27.7386 573.419 27.978 574.203C28.0453 574.423 28.2133 574.925 28.5961 575.456C28.9741 575.98 29.9753 577.064 31.7076 577.139C33.3411 577.21 34.3859 576.317 34.749 575.956C35.1605 575.547 35.3956 575.139 35.4997 574.946C35.869 574.262 36.0425 573.49 36.1221 573.124C36.2348 572.605 36.3355 571.995 36.4222 571.325L28.4884 570.298C28.4214 570.816 28.3554 571.191 28.3043 571.426C28.2201 571.814 28.2327 571.566 28.4601 571.145C28.5288 571.018 28.7296 570.659 29.1082 570.283C29.4385 569.955 30.4518 569.077 32.0556 569.147C33.7581 569.221 34.7313 570.287 35.0831 570.774C35.4399 571.268 35.5836 571.717 35.629 571.865C35.7804 572.361 35.7331 572.633 35.732 572.143L27.732 572.161ZM36.4222 571.325C36.8343 568.142 38.041 563.191 38.8725 561.076L31.4272 558.149C30.2983 561.021 28.962 566.64 28.4884 570.298L36.4222 571.325ZM38.8726 561.076C39.2138 560.208 40.0594 558.685 40.6237 557.926L34.2028 553.154C33.2196 554.477 32.0284 556.62 31.4271 558.15L38.8726 561.076ZM40.6238 557.926C42.4559 555.46 44.8416 553.975 54.5478 552.267L53.1608 544.388C43.2905 546.126 38.0394 547.991 34.2026 553.154L40.6238 557.926ZM54.5479 552.267C56.1304 551.988 57.5695 551.706 58.6196 551.471C59.129 551.357 59.6196 551.239 60.0067 551.124C60.1606 551.079 60.4856 550.981 60.818 550.829C60.8866 550.798 61.4519 550.555 61.9892 550.038C62.2294 549.807 63.0035 549.02 63.1878 547.689C63.4248 545.978 62.5538 544.703 61.7894 544.063L56.6508 550.194C55.8951 549.561 55.0277 548.294 55.2635 546.592C55.4466 545.27 56.2146 544.492 56.4439 544.272C56.9595 543.776 57.4841 543.557 57.4938 543.553C57.7086 543.454 57.8434 543.422 57.7421 543.452C57.6187 543.488 57.3385 543.56 56.8753 543.664C55.9803 543.864 54.6674 544.123 53.1606 544.388L54.5479 552.267ZM61.7819 544.056C61.1517 543.531 60.4869 543.321 60.4421 543.306C60.2296 543.231 60.0339 543.179 59.8976 543.145C59.6143 543.075 59.306 543.015 59.0198 542.965C58.4327 542.863 57.7115 542.765 56.9781 542.689L56.146 550.645C56.7363 550.707 57.275 550.782 57.6514 550.847C57.7428 550.863 57.8172 550.877 57.8749 550.889C57.9034 550.895 57.9257 550.899 57.9422 550.903C57.9504 550.905 57.9566 550.906 57.9611 550.907C57.9655 550.908 57.9676 550.909 57.9676 550.909C57.9675 550.909 57.9668 550.909 57.9655 550.908C57.9641 550.908 57.9621 550.908 57.9593 550.907C57.9539 550.905 57.9448 550.903 57.9325 550.899C57.9108 550.893 57.8636 550.879 57.7989 550.857C57.7411 550.836 57.622 550.793 57.4715 550.722C57.394 550.685 57.2859 550.63 57.1604 550.556C57.0402 550.484 56.8598 550.368 56.6583 550.2L61.7819 544.056ZM56.9781 542.689C53.4498 542.32 47.7021 541.157 45.8536 540.508L43.2027 548.056C45.8683 548.992 52.2973 550.243 56.146 550.645L56.9781 542.689ZM45.8538 540.508C43.23 539.586 41.422 538.159 40.014 535.832C38.5102 533.346 37.3526 529.647 36.5616 524.012L28.6393 525.124C29.4904 531.187 30.8454 536.132 33.1693 539.973C35.5889 543.972 38.9237 546.553 43.2025 548.056L45.8538 540.508ZM36.5616 524.012C36.4267 523.051 36.2809 522.151 36.1505 521.465C36.0876 521.135 36.0166 520.791 35.941 520.498C35.9084 520.372 35.8442 520.132 35.7451 519.873C35.7051 519.768 35.5878 519.466 35.3736 519.125C35.2714 518.962 35.0382 518.612 34.645 518.259C34.2869 517.938 33.366 517.233 31.9661 517.233L31.9661 525.233C30.5719 525.233 29.657 524.532 29.3054 524.216C28.9187 523.87 28.6923 523.528 28.5972 523.377C28.3975 523.058 28.2959 522.79 28.2729 522.73C28.208 522.56 28.1831 522.452 28.1942 522.495C28.2059 522.54 28.2394 522.687 28.2915 522.961C28.3911 523.484 28.5168 524.251 28.6393 525.124L36.5616 524.012ZM31.9661 517.233C30.1761 517.233 29.1532 518.356 28.8993 518.655C28.5542 519.062 28.3693 519.445 28.2981 519.599C28.1384 519.944 28.0546 520.251 28.0217 520.375C27.9414 520.678 27.8862 520.99 27.8485 521.228C27.7673 521.74 27.6962 522.376 27.6445 523.027L35.6193 523.661C35.6598 523.152 35.7101 522.732 35.75 522.479C35.773 522.334 35.7783 522.336 35.7547 522.425C35.7503 522.442 35.694 522.665 35.5604 522.954C35.5022 523.08 35.33 523.442 34.9972 523.834C34.7556 524.118 33.7446 525.233 31.9661 525.233L31.9661 517.233ZM27.6445 523.027C27.568 523.99 27.2421 526.261 26.9157 527.997L34.7779 529.476C35.1304 527.601 35.5114 525.02 35.6193 523.661L27.6445 523.027ZM26.9157 527.997C25.9539 533.111 24.7591 535.765 23.1825 537.427C21.6384 539.056 19.2136 540.273 14.4612 541.25L16.0725 549.086C21.4042 547.989 25.7651 546.331 28.9877 542.932C32.1778 539.568 33.731 535.042 34.7779 529.475L26.9157 527.997ZM14.4617 541.25C13.0744 541.535 10.2288 542.044 8.17507 542.372L9.43808 550.272C11.5646 549.932 14.5332 549.402 16.072 549.086L14.4617 541.25ZM8.17507 542.372C7.07812 542.548 6.03395 542.74 5.22419 542.914C4.82784 542.999 4.43515 543.091 4.10229 543.184C3.94537 543.229 3.72328 543.295 3.49241 543.383C3.38166 543.426 3.18749 543.504 2.96546 543.622C2.87 543.673 2.22475 544 1.67435 544.693L7.93868 549.669C7.62654 550.062 7.31083 550.305 7.15296 550.418C6.97423 550.546 6.82086 550.633 6.72774 550.682C6.54517 550.78 6.40299 550.835 6.35606 550.853C6.25284 550.893 6.20575 550.903 6.26569 550.886C6.36658 550.858 6.57513 550.806 6.9038 550.736C7.54405 550.598 8.44493 550.431 9.43808 550.272L8.17507 542.372ZM1.67435 544.693C0.832254 545.753 0.553425 547.206 1.03439 548.554C1.39592 549.566 2.05448 550.139 2.28517 550.329C2.80025 550.753 3.31671 550.961 3.44851 551.015C3.85387 551.181 4.28075 551.296 4.58146 551.37C5.25215 551.536 6.11184 551.696 7.01229 551.829L8.17432 543.913C7.43208 543.804 6.8434 543.689 6.50389 543.605C6.29949 543.554 6.3308 543.55 6.48062 543.612C6.48465 543.613 6.90833 543.773 7.36946 544.152C7.57318 544.32 8.21446 544.871 8.5689 545.864C8.76796 546.422 8.87267 547.116 8.74213 547.874C8.61237 548.627 8.28707 549.23 7.93868 549.669L1.67435 544.693Z" fill="white" mask="url(#path-1-outside-1_527_240)"/>
<mask id="path-3-outside-2_527_240" maskUnits="userSpaceOnUse" x="188.669" y="711.419" width="45" height="43" fill="black">
<rect fill="white" x="188.669" y="711.419" width="45" height="43"/>
<path fill-rule="evenodd" clip-rule="evenodd" d="M195.5 732.922C199.469 733.502 203.214 734.373 204.76 735.074C207.441 736.291 208.812 737.93 209.925 741.247C210.476 742.894 211.323 747.439 211.326 748.772C211.329 749.945 211.599 749.447 211.8 747.898C212.091 745.665 212.924 742.215 213.567 740.587C213.876 739.804 214.544 738.608 215.051 737.929C216.909 735.439 219.413 734.345 225.83 733.22C227.856 732.865 229.439 732.513 229.348 732.438C229.258 732.362 228.473 732.227 227.606 732.136C225.187 731.885 221.196 731.097 219.716 730.58C215.19 728.997 212.972 725.347 211.896 717.711C211.727 716.514 211.54 715.534 211.48 715.534C211.42 715.534 211.321 716.154 211.261 716.912C211.2 717.669 210.968 719.253 210.746 720.432C209.429 727.404 207.143 729.804 200.531 731.158C199.572 731.354 197.666 731.693 196.296 731.911C194.925 732.129 193.745 732.382 193.673 732.472C193.601 732.562 194.423 732.765 195.5 732.922Z"/>
</mask>
<path fill-rule="evenodd" clip-rule="evenodd" d="M195.5 732.922C199.469 733.502 203.214 734.373 204.76 735.074C207.441 736.291 208.812 737.93 209.925 741.247C210.476 742.894 211.323 747.439 211.326 748.772C211.329 749.945 211.599 749.447 211.8 747.898C212.091 745.665 212.924 742.215 213.567 740.587C213.876 739.804 214.544 738.608 215.051 737.929C216.909 735.439 219.413 734.345 225.83 733.22C227.856 732.865 229.439 732.513 229.348 732.438C229.258 732.362 228.473 732.227 227.606 732.136C225.187 731.885 221.196 731.097 219.716 730.58C215.19 728.997 212.972 725.347 211.896 717.711C211.727 716.514 211.54 715.534 211.48 715.534C211.42 715.534 211.321 716.154 211.261 716.912C211.2 717.669 210.968 719.253 210.746 720.432C209.429 727.404 207.143 729.804 200.531 731.158C199.572 731.354 197.666 731.693 196.296 731.911C194.925 732.129 193.745 732.382 193.673 732.472C193.601 732.562 194.423 732.765 195.5 732.922Z" fill="white"/>
<path d="M195.5 732.922L194.922 736.88L194.922 736.88L195.5 732.922ZM204.76 735.074L203.107 738.717L203.107 738.717L204.76 735.074ZM209.925 741.247L213.717 739.976L213.717 739.976L209.925 741.247ZM211.326 748.772L215.326 748.763L215.326 748.763L211.326 748.772ZM211.8 747.898L215.767 748.414L215.767 748.413L211.8 747.898ZM213.567 740.587L217.288 742.056L217.288 742.056L213.567 740.587ZM215.051 737.929L218.256 740.321L218.257 740.321L215.051 737.929ZM225.83 733.22L226.521 737.16L226.521 737.16L225.83 733.22ZM229.348 732.438L231.911 729.366L231.903 729.36L229.348 732.438ZM227.606 732.136L227.191 736.115L227.191 736.115L227.606 732.136ZM219.716 730.58L218.395 734.355L218.395 734.355L219.716 730.58ZM211.896 717.711L207.935 718.269L207.935 718.269L211.896 717.711ZM210.746 720.432L206.815 719.689L206.815 719.689L210.746 720.432ZM200.531 731.158L201.333 735.077L201.333 735.076L200.531 731.158ZM194.922 736.88C198.886 737.46 202.127 738.272 203.107 738.717L206.413 731.432C204.302 730.474 200.051 729.545 196.079 728.964L194.922 736.88ZM203.107 738.717C204.038 739.139 204.517 739.526 204.863 739.94C205.242 740.393 205.664 741.122 206.132 742.519L213.717 739.976C213.073 738.055 212.253 736.306 210.999 734.806C209.711 733.267 208.163 732.226 206.413 731.432L203.107 738.717ZM206.132 742.519C206.313 743.057 206.621 744.369 206.899 745.86C207.031 746.568 207.143 747.25 207.221 747.814C207.26 748.096 207.288 748.332 207.306 748.517C207.325 748.717 207.326 748.794 207.326 748.782L215.326 748.763C215.324 747.675 215.035 745.853 214.764 744.395C214.479 742.868 214.088 741.084 213.717 739.976L206.132 742.519ZM207.326 748.781C207.327 749.034 207.323 749.785 207.549 750.521C207.613 750.73 207.778 751.224 208.158 751.749C208.535 752.268 209.531 753.341 211.251 753.416C212.872 753.486 213.91 752.603 214.269 752.247C214.676 751.844 214.906 751.444 215.005 751.262C215.352 750.623 215.498 749.941 215.55 749.705C215.635 749.317 215.707 748.877 215.767 748.414L207.834 747.382C207.793 747.693 207.756 747.897 207.734 748.001C207.678 748.257 207.719 747.917 207.972 747.449C208.048 747.31 208.256 746.943 208.641 746.561C208.979 746.227 209.996 745.354 211.598 745.423C213.298 745.497 214.276 746.558 214.635 747.054C214.998 747.554 215.148 748.013 215.197 748.175C215.365 748.723 215.327 749.097 215.326 748.763L207.326 748.781ZM215.767 748.413C216.026 746.419 216.795 743.304 217.288 742.056L209.847 739.118C209.054 741.125 208.155 744.91 207.834 747.382L215.767 748.413ZM217.288 742.056C217.466 741.605 217.959 740.719 218.256 740.321L211.846 735.536C211.128 736.497 210.286 738.004 209.846 739.118L217.288 742.056ZM218.257 740.321C219.111 739.177 220.182 738.271 226.521 737.16L225.14 729.28C218.643 730.419 214.708 731.701 211.845 735.536L218.257 740.321ZM226.521 737.16C227.571 736.976 228.536 736.788 229.251 736.629C229.593 736.553 229.951 736.467 230.249 736.38C230.359 736.347 230.651 736.261 230.962 736.119C231.02 736.093 231.578 735.855 232.112 735.344C232.35 735.117 233.128 734.331 233.314 732.997C233.553 731.278 232.674 730.003 231.911 729.366L226.786 735.509C226.029 734.877 225.152 733.607 225.39 731.894C225.575 730.566 226.349 729.786 226.58 729.566C227.099 729.068 227.631 728.846 227.65 728.837C227.793 728.772 227.901 728.735 227.931 728.724C227.954 728.717 227.97 728.711 227.979 728.709C227.984 728.707 227.988 728.706 227.99 728.705C227.992 728.705 227.994 728.704 227.994 728.704C227.994 728.704 227.991 728.705 227.984 728.707C227.977 728.709 227.967 728.712 227.954 728.715C227.929 728.722 227.895 728.73 227.851 728.741C227.764 728.763 227.652 728.789 227.514 728.82C226.954 728.944 226.115 729.109 225.14 729.28L226.521 737.16ZM231.903 729.36C231.279 728.842 230.627 728.639 230.599 728.63C230.404 728.562 230.231 728.516 230.121 728.489C229.89 728.432 229.653 728.386 229.45 728.351C229.029 728.278 228.525 728.211 228.02 728.158L227.191 736.115C227.554 736.153 227.876 736.198 228.087 736.234C228.2 736.254 228.229 736.262 228.199 736.254C228.189 736.252 228.098 736.23 227.966 736.184C227.901 736.161 227.775 736.115 227.619 736.042C227.539 736.004 227.428 735.948 227.301 735.873C227.178 735.8 226.996 735.684 226.793 735.515L231.903 729.36ZM228.02 728.158C225.761 727.923 222.109 727.179 221.036 726.804L218.395 734.355C220.283 735.015 224.614 735.847 227.191 736.115L228.02 728.158ZM221.036 726.804C219.598 726.301 218.677 725.566 217.931 724.338C217.088 722.952 216.364 720.755 215.856 717.152L207.935 718.269C208.504 722.303 209.427 725.749 211.094 728.492C212.857 731.394 215.308 733.276 218.395 734.355L221.036 726.804ZM215.856 717.152C215.766 716.51 215.667 715.898 215.576 715.423C215.533 715.197 215.479 714.938 215.419 714.703C215.393 714.606 215.336 714.388 215.242 714.144C215.205 714.047 215.089 713.75 214.876 713.413C214.775 713.251 214.542 712.903 214.149 712.552C213.79 712.232 212.873 711.534 211.48 711.534L211.48 719.534C210.091 719.534 209.177 718.837 208.822 718.521C208.434 718.174 208.205 717.832 208.108 717.678C207.905 717.355 207.8 717.081 207.774 717.013C207.732 716.904 207.706 716.821 207.696 716.786C207.683 716.745 207.676 716.717 207.674 716.708C207.67 716.694 207.686 716.756 207.718 716.924C207.778 717.238 207.857 717.715 207.935 718.269L215.856 717.152ZM211.48 711.534C209.699 711.534 208.679 712.647 208.425 712.945C208.08 713.349 207.897 713.729 207.827 713.878C207.671 714.215 207.591 714.508 207.563 714.614C207.492 714.88 207.447 715.139 207.42 715.31C207.36 715.691 207.309 716.143 207.273 716.594L215.248 717.23C215.272 716.922 215.302 716.686 215.321 716.567C215.333 716.489 215.328 716.545 215.294 716.672C215.285 716.707 215.223 716.946 215.084 717.246C215.023 717.377 214.848 717.743 214.511 718.137C214.265 718.426 213.253 719.534 211.48 719.534L211.48 711.534ZM207.273 716.594C207.229 717.152 207.025 718.581 206.815 719.689L214.676 721.174C214.912 719.926 215.172 718.187 215.248 717.23L207.273 716.594ZM206.815 719.689C206.2 722.947 205.48 724.353 204.727 725.143C204.005 725.902 202.748 726.621 199.729 727.239L201.333 735.076C204.926 734.341 208.118 733.183 210.521 730.66C212.893 728.169 213.975 724.888 214.676 721.174L206.815 719.689ZM199.729 727.239C198.846 727.42 197.001 727.749 195.667 727.961L196.924 735.862C198.331 735.638 200.298 735.288 201.333 735.077L199.729 727.239ZM195.667 727.961C194.93 728.078 194.221 728.208 193.661 728.328C193.39 728.386 193.101 728.453 192.843 728.525C192.724 728.558 192.532 728.614 192.324 728.694C192.224 728.732 192.04 728.806 191.825 728.92C191.737 728.966 191.096 729.289 190.546 729.977L196.8 734.967C196.633 735.175 196.472 735.334 196.346 735.447C196.218 735.562 196.101 735.652 196.008 735.718C195.827 735.848 195.67 735.936 195.574 735.987C195.385 736.087 195.234 736.146 195.177 736.168C195.052 736.216 194.975 736.236 194.998 736.229C195.025 736.222 195.13 736.195 195.334 736.151C195.725 736.068 196.291 735.962 196.924 735.862L195.667 727.961ZM190.546 729.977C189.703 731.035 189.42 732.49 189.905 733.84C190.267 734.852 190.926 735.42 191.151 735.605C191.657 736.019 192.157 736.218 192.266 736.262C192.627 736.409 192.985 736.503 193.198 736.556C193.695 736.678 194.304 736.79 194.922 736.88L196.079 728.964C195.619 728.897 195.279 728.829 195.113 728.788C194.995 728.759 195.094 728.776 195.287 728.855C195.313 728.865 195.752 729.032 196.222 729.417C196.43 729.587 197.077 730.142 197.435 731.14C197.636 731.702 197.742 732.4 197.61 733.163C197.479 733.921 197.151 734.527 196.8 734.967L190.546 729.977Z" fill="white" mask="url(#path-3-outside-2_527_240)"/>
<path d="M55.0728 684.684C55.3866 682.245 55.7486 679.928 55.99 677.563C56.0296 674.716 55.1856 671.927 53.5763 669.589C53.3395 669.087 52.9613 668.666 52.489 668.38C52.0168 668.093 51.4714 667.954 50.9212 667.98C50.3285 668.048 49.7282 667.985 49.1621 667.794C48.596 667.604 48.0778 667.292 47.6435 666.879C47.2093 666.465 46.8694 665.961 46.6476 665.402C46.4258 664.842 46.3274 664.241 46.3593 663.639C46.5524 660.591 44.0905 659.567 41.8457 658.762C37.9854 657.256 33.7732 656.926 29.729 657.811C30.1759 655.401 31.3179 653.178 33.0116 651.422C35.809 647.895 39.7052 645.429 44.0663 644.423C47.501 643.52 51.1071 643.52 54.5418 644.423C55.0427 644.574 55.5773 644.565 56.0735 644.4C56.5698 644.234 57.0039 643.919 57.3175 643.496C63.5515 636.623 70.7678 630.729 78.727 626.012C82.7982 623.517 87.2043 621.628 91.8092 620.403C93.5864 620.086 95.4003 620.037 97.1917 620.257C97.5234 620.256 97.8517 620.324 98.1562 620.458C98.4606 620.591 98.7346 620.786 98.9611 621.03C99.1876 621.275 99.3617 621.565 99.4726 621.881C99.5834 622.196 99.6287 622.532 99.6054 622.866C99.625 626.001 98.7899 629.08 97.1917 631.767C92.1553 640.896 85.3792 648.927 77.2546 655.397C75.5409 656.86 73.7065 658.177 71.8962 659.518C71.4627 659.755 71.1174 660.129 70.9127 660.582C70.7081 661.035 70.6551 661.543 70.7618 662.029C71.2913 664.479 71.2804 667.016 70.7297 669.46C70.1791 671.905 69.1022 674.197 67.5757 676.173C64.756 680.438 60.4453 683.469 55.5073 684.659C55.3638 684.684 55.2181 684.692 55.0728 684.684Z" fill="white"/>
<path fill-rule="evenodd" clip-rule="evenodd" d="M50.983 693.809C50.6934 693.953 50.4025 694.094 50.1103 694.232C48.2805 695.153 46.377 695.918 44.4197 696.52C43.1441 697.018 41.7627 697.183 40.4056 696.997C39.0485 696.812 37.7605 696.282 36.6631 695.459C35.8918 694.768 35.2822 693.914 34.8779 692.959C34.4736 692.004 34.2846 690.971 34.3245 689.935C34.3629 689.225 34.2609 688.514 34.1616 687.824L34.0787 688.022C31.1215 695.11 28.1779 702.166 27.2946 709.855L27.2861 709.914C26.7767 713.451 26.2729 716.95 27.7915 720.436C28.1956 721.567 28.8826 722.574 29.7863 723.361C30.69 724.148 31.78 724.689 32.9516 724.931C36.5287 725.502 40.1931 724.941 43.435 723.324C46.8254 721.87 50.0858 720.129 53.1806 718.118C57.4241 715.394 61.6027 712.498 65.5676 709.371C69.2306 706.498 72.7351 703.436 76.2363 700.378L76.2384 700.376C77.0469 699.67 77.8552 698.964 78.6652 698.26C93.0666 709.096 111.612 714.42 130.861 711.654C169.242 706.14 195.885 670.557 190.372 632.177C188.406 618.494 182.619 606.303 174.245 596.529C174.338 596.428 174.459 596.324 174.612 596.216C175.227 595.783 175.807 595.307 176.387 594.831L176.387 594.83C177.095 594.249 177.802 593.668 178.569 593.17C179.001 592.893 179.433 592.614 179.866 592.336L179.866 592.336C183.107 590.249 186.347 588.163 189.621 586.306C190.893 585.599 192.284 585.111 193.679 584.622L193.679 584.622C194.587 584.304 195.497 583.985 196.376 583.604C198.045 583.033 199.842 582.949 201.558 583.363C205.123 583.878 206.702 588.585 206.323 591.257C206.302 591.526 206.301 591.795 206.319 592.064C206.843 591.687 207.249 591.168 207.488 590.566L207.754 589.882C210.654 582.412 213.551 574.952 214.333 566.847C214.894 563.83 214.565 560.714 213.386 557.88C212.706 556.287 211.429 555.024 209.831 554.364C207.884 553.646 205.777 553.482 203.744 553.889C201.405 554.275 199.13 554.981 196.983 555.988C192.81 557.997 188.767 560.266 184.877 562.782C176.035 568.893 167.687 575.695 159.91 583.123C159.791 583.279 159.647 583.413 159.484 583.52C145.658 574.41 128.573 570.127 110.894 572.667C78.7403 577.286 54.8238 603.01 51.1523 633.802C51.6354 633.831 52.1181 633.872 52.5998 633.924C58.8458 627.543 65.8926 622.002 73.5666 617.446C78.4435 614.466 83.7216 612.206 89.2397 610.739C89.5076 610.668 89.7783 610.608 90.0512 610.559C92.6667 610.092 95.3339 609.999 97.9741 610.281C99.418 610.372 100.835 610.715 102.162 611.295C103.735 611.982 105.143 612.987 106.302 614.24C107.461 615.493 108.346 616.967 108.909 618.569C109.417 620.017 109.652 621.545 109.606 623.075C109.588 627.873 108.304 632.586 105.876 636.728C100.24 646.904 92.6777 655.871 83.6141 663.116C82.799 663.807 81.9605 664.472 81.1452 665.097C81.1916 667.296 80.9717 669.5 80.4855 671.658C79.6426 675.4 78.0182 678.922 75.7164 681.989C71.5085 688.191 65.1489 692.622 57.8505 694.381C57.64 694.432 57.428 694.476 57.2148 694.512C56.3123 694.669 55.3942 694.721 54.4789 694.666C53.2586 694.593 52.0757 694.299 50.983 693.809ZM62.6184 681.367C56.8885 672.866 52.9395 662.972 51.3839 652.144C50.9814 649.342 50.7502 646.554 50.6825 643.792C51.9809 643.879 53.2732 644.09 54.542 644.423C55.043 644.574 55.5776 644.565 56.0738 644.4C56.5701 644.234 57.0042 643.919 57.3178 643.496C63.5518 636.623 70.768 630.729 78.7272 626.012C82.7984 623.517 87.2045 621.628 91.8095 620.403C93.5866 620.086 95.4005 620.037 97.192 620.257C97.5237 620.256 97.852 620.324 98.1564 620.458C98.4609 620.591 98.7349 620.786 98.9614 621.031C99.1879 621.275 99.362 621.565 99.4728 621.881C99.5837 622.196 99.6289 622.532 99.6057 622.866C99.6253 626.001 98.7902 629.08 97.192 631.767C92.1555 640.896 85.3795 648.927 77.2549 655.397C75.8017 656.637 74.2617 657.773 72.7233 658.907L72.7231 658.907C72.4474 659.111 72.1717 659.314 71.8965 659.518C71.4629 659.755 71.1177 660.129 70.913 660.582C70.7083 661.035 70.6553 661.543 70.7621 662.029C71.2916 664.479 71.2807 667.016 70.73 669.46C70.1793 671.905 69.1025 674.197 67.576 676.173C67.0826 676.919 66.5435 677.628 65.9634 678.295C65.887 678.383 65.8098 678.471 65.732 678.557C64.7905 679.603 63.7464 680.545 62.6184 681.367Z" fill="white"/>
<path d="M130.295 426.634L129.655 426.634C129.063 426.649 128.479 426.76 127.923 426.963C127.659 427.025 127.425 427.176 127.258 427.39C127.091 427.604 127.002 427.868 127.005 428.139L127.005 449.435C127.046 451.476 126.505 453.486 125.447 455.231C124.423 456.943 123.084 458.446 121.499 459.66C119.942 460.89 118.185 461.844 116.305 462.48C114.481 463.101 112.569 463.422 110.643 463.431C108.625 463.359 106.646 462.851 104.842 461.943C102.633 460.927 100.557 459.643 98.6609 458.12C96.755 456.61 95.096 454.812 93.7434 452.792C92.5174 451.038 91.8367 448.962 91.7869 446.823L91.7869 392.501C94.3063 394.221 96.723 396.087 99.0245 398.089C101.556 400.273 103.978 402.583 106.279 405.009L106.279 440.163C106.279 440.958 106.816 441.616 107.872 442.187C108.649 442.667 109.526 442.963 110.435 443.052L110.972 443.052C110.972 443.052 111.197 442.896 111.457 442.619L112.028 441.979C112.37 441.621 112.645 441.205 112.842 440.751C112.99 440.463 113.112 440.162 113.205 439.851L113.205 419.61C113.106 417.537 113.631 415.482 114.712 413.711C115.799 412.099 117.223 410.741 118.885 409.732C120.552 408.695 122.368 407.92 124.27 407.431C126.002 406.956 127.789 406.706 129.585 406.687L130.295 406.687C132.333 406.728 134.344 407.163 136.217 407.967C138.302 408.812 140.26 409.941 142.035 411.323C143.763 412.664 145.256 414.283 146.45 416.115C147.564 417.768 148.166 419.711 148.182 421.703L148.182 475.991C146.976 475.349 145.819 474.62 144.719 473.811C143.143 472.704 141.567 471.545 139.974 470.351C138.381 469.158 136.944 467.947 135.697 466.891C134.451 465.836 133.845 465.161 133.845 464.971L133.845 428.762C133.845 427.706 133.516 427.032 132.875 426.911C132.215 426.729 131.534 426.636 130.849 426.634L130.295 426.634Z" fill="white"/>
<path d="M106.054 374.664L106.054 394.802C105.208 394.383 104.417 393.86 103.7 393.245C102.418 392.293 100.998 391.151 99.44 389.785C97.8817 388.418 96.358 387.12 94.9035 385.736C93.7249 384.673 92.6733 383.477 91.7695 382.173L91.7695 328.94C93.1339 329.637 94.4372 330.447 95.6654 331.362C97.2757 332.538 98.8513 333.784 100.41 335.099C101.796 336.287 103.103 337.564 104.323 338.922C105.466 340.168 106.054 341.067 106.054 341.638L106.054 354.216L148.164 369.544L148.164 390.01L106.054 374.664Z" fill="white"/>
<path d="M91.7177 262.716C93.0982 263.446 94.4183 264.285 95.6655 265.224C97.2758 266.4 98.8515 267.629 100.41 268.944C101.801 270.133 103.108 271.416 104.323 272.784C105.466 274.03 106.054 274.929 106.054 275.5L106.054 308.371L122.781 314.443L112.98 304.253L112.98 279.652L127.369 294.894L127.369 316.086L133.758 318.422L133.758 277.628C133.897 277.628 134.191 277.888 134.659 278.165C135.126 278.441 135.594 278.735 136.096 279.012C136.598 279.289 137.048 279.583 137.481 279.86C137.739 280.025 137.988 280.204 138.226 280.396C139.269 281.207 140.264 282.08 141.204 283.009C142.347 284.116 143.437 285.188 144.459 286.261C145.481 287.334 146.364 288.268 147.074 289.081C147.473 289.49 147.832 289.936 148.147 290.413L148.147 344.043L91.6484 323.491L91.7177 262.716Z" fill="white"/>
<path d="M148.216 277.419L91.7178 256.867L91.7178 236.522L133.758 251.85L133.758 218.097C134.377 218.439 134.957 218.845 135.49 219.308C136.702 220.208 138.104 221.315 139.697 222.665C141.29 224.014 142.901 225.433 144.494 226.938C145.779 228.087 146.977 229.331 148.078 230.657L148.216 277.419Z" fill="white"/>
<path d="M148.216 217.769L91.7178 197.216L91.7178 176.871L133.758 192.268L133.758 158.498C134.379 158.843 134.959 159.255 135.49 159.727C136.702 160.609 138.104 161.733 139.697 163.083C141.29 164.432 142.901 165.851 144.494 167.339C145.779 168.488 146.977 169.732 148.078 171.058L148.216 217.769Z" fill="white"/>
<path d="M148.216 103.589L136.096 105.82C136.97 106.239 137.79 106.761 138.537 107.377C139.749 108.26 141.031 109.246 142.381 110.353C143.732 111.46 144.978 112.533 146.121 113.605C146.92 114.268 147.604 115.057 148.147 115.941L148.147 160.921C147.891 160.884 147.641 160.814 147.403 160.714L147.074 160.714L98.0377 122.377C97.4139 122.017 96.833 121.587 96.3062 121.096C95.6136 120.456 94.9037 119.764 94.2284 119.02C93.606 118.307 93.0278 117.556 92.4969 116.771C92.0535 116.247 91.7763 115.603 91.7004 114.92L91.7004 97.1184C91.7234 96.7236 91.8407 96.3401 92.0425 96C92.2444 95.6598 92.5249 95.373 92.8605 95.1635C93.7441 94.5076 94.7181 93.9832 95.7521 93.6065C96.9202 93.1732 98.1109 92.8035 99.319 92.4992C100.566 92.1705 101.605 91.911 102.47 91.6861L148.199 84.6623L148.216 103.589ZM133.932 127.446L133.932 105.768L108.877 109.505L132.858 127.446L133.932 127.446Z" fill="white"/>
<path d="M91.7179 59.1783L91.7179 11.6718C91.5912 9.67319 92.0639 7.68221 93.0756 5.95337C94.0872 4.22454 95.5919 2.83643 97.3972 1.96642C99.0716 1.13737 100.875 0.599121 102.73 0.374778C104.499 0.142463 106.28 0.0211404 108.063 0.0114892C111.258 -0.116891 114.405 0.81372 117.015 2.65842C119.353 4.43445 121.264 6.71014 122.608 9.31901C124.037 12.1007 125.041 15.0806 125.586 18.1594C126.165 21.1733 126.575 24.2171 126.815 27.2767L148.251 6.39528L148.251 29.1278L127.993 51.0818L128.841 52.2582L148.251 59.2821L148.251 79.731L91.7179 59.1783ZM108.029 20.6161C107.526 20.6011 107.027 20.7079 106.574 20.9275C106.193 21.1466 106.003 21.6829 106.003 22.5364L106.003 43.9368L122.625 50.0091L113.136 40.6324L113.136 23.5917C113.158 23.1102 113.032 22.6337 112.775 22.2257C112.518 21.8176 112.143 21.4976 111.699 21.3081C110.925 20.8925 110.067 20.656 109.189 20.6161L108.029 20.6161Z" fill="white"/>
</svg>
