<svg width="755" height="233" viewBox="0 0 755 233" fill="none" xmlns="http://www.w3.org/2000/svg">
<path d="M204.342 6.50311L204.342 6.503C204.468 5.6421 204.617 4.85016 204.762 4.26226C204.831 3.98563 204.918 3.6733 205.027 3.40673C205.067 3.30889 205.184 3.02747 205.407 2.75644C205.507 2.63435 205.799 2.30075 206.31 2.11821C206.989 1.87596 207.72 2.01615 208.254 2.44063C208.595 2.71116 208.764 3.0295 208.801 3.10051L208.804 3.10622C208.869 3.22711 208.913 3.33719 208.941 3.40852C208.997 3.55587 209.044 3.71066 209.081 3.84334C209.159 4.1182 209.24 4.46486 209.322 4.84429C209.487 5.61167 209.673 6.62002 209.844 7.69102C210.176 9.76291 210.69 12.6393 210.983 14.0645C211.99 18.9616 213.317 21.8703 215.388 23.834C217.476 25.814 220.598 27.0983 225.825 28.0814L225.455 30.047L225.825 28.0815C227.595 28.4144 229.944 28.7541 231.006 28.8384C231.622 28.8873 232.203 28.9532 232.651 29.0241C232.865 29.0581 233.099 29.1008 233.304 29.1552C233.393 29.1787 233.567 29.2275 233.754 29.3138C233.838 29.3527 234.035 29.4483 234.242 29.624C234.395 29.754 234.958 30.2684 234.958 31.1663C234.958 31.8676 234.605 32.3296 234.443 32.5103C234.265 32.7085 234.088 32.8268 234.004 32.8797C233.827 32.9904 233.668 33.053 233.604 33.0773C233.452 33.1354 233.3 33.1773 233.194 33.2045C232.963 33.2641 232.669 33.3258 232.352 33.386C231.707 33.5087 230.84 33.6494 229.902 33.7812C224.16 34.5873 220.149 35.7942 217.324 37.503C214.579 39.1639 212.863 41.3536 211.796 44.3911L204.342 6.50311ZM204.342 6.50311C203.454 12.5533 202.15 18.0136 201.204 20.0877L201.204 20.0877M204.342 6.50311L201.204 20.0877M201.204 20.0877C200.366 21.9267 199.437 23.205 198.222 24.2163M201.204 20.0877L198.222 24.2163M198.222 24.2163C196.988 25.2446 195.345 26.0925 192.934 26.8971L198.222 24.2163ZM182.035 28.9322C181.606 28.9331 181.037 28.9492 180.573 29.0909C180.445 29.1301 180.18 29.2201 179.906 29.4181C179.635 29.6136 179.088 30.1212 179.05 30.9948C179.014 31.819 179.465 32.3492 179.654 32.539C179.867 32.7529 180.083 32.8791 180.196 32.94C180.604 33.1601 181.12 33.2871 181.492 33.3678C181.94 33.4651 182.491 33.5572 183.123 33.6389L183.123 33.6389C186.425 34.0664 191.543 35.3055 193.847 36.2114L193.847 36.2114C194.881 36.6176 196.558 37.5497 197.458 38.2187L197.459 38.2187C200.598 40.552 202.178 43.654 203.894 53.4012L203.894 53.4013C204.17 54.9649 204.446 56.3724 204.672 57.3837C204.783 57.8816 204.89 58.3196 204.985 58.6407C205.027 58.7815 205.092 58.9915 205.181 59.1872L205.184 59.1933C205.213 59.2569 205.341 59.5387 205.595 59.8031C205.713 59.9259 206.109 60.3145 206.777 60.4069C207.634 60.5257 208.274 60.0893 208.596 59.705L208.599 59.7012C208.857 59.3915 208.972 59.0584 208.995 58.9893C208.996 58.9861 208.997 58.9835 208.998 58.9815C209.044 58.851 209.079 58.7215 209.105 58.6153C209.159 58.3975 209.21 58.1414 209.256 57.8779C209.348 57.3435 209.441 56.6679 209.514 55.9702C209.891 52.3619 211.075 46.444 211.796 44.3912L182.035 28.9322Z" fill="#262121" stroke="#262121" stroke-width="4"/>
<path d="M19.29 194.411L19.29 194.411C19.3745 193.833 19.4755 193.291 19.5775 192.877C19.6242 192.688 19.6905 192.444 19.7811 192.221L19.7819 192.22C19.8137 192.142 19.9209 191.879 20.1337 191.619C20.2296 191.502 20.5173 191.17 21.0263 190.987C21.7047 190.744 22.4351 190.886 22.9667 191.31C23.3027 191.578 23.4675 191.891 23.5019 191.956C23.5031 191.958 23.5041 191.96 23.5049 191.962C23.5653 192.076 23.606 192.177 23.629 192.237C23.6768 192.362 23.7139 192.487 23.7405 192.582C23.7965 192.782 23.8532 193.025 23.9077 193.279C24.0183 193.797 24.1421 194.47 24.2553 195.181C24.4705 196.533 24.8045 198.409 24.993 199.33C25.6404 202.492 26.4693 204.233 27.669 205.376C28.8846 206.533 30.7591 207.344 34.131 207.981L34.1311 207.981C35.2743 208.197 36.7807 208.414 37.4387 208.467C37.8533 208.5 38.2518 208.545 38.5668 208.595C38.7151 208.619 38.8949 208.651 39.0632 208.696C39.1336 208.715 39.2937 208.759 39.4712 208.841C39.5507 208.878 39.744 208.972 39.9482 209.146C40.0998 209.276 40.6574 209.787 40.6574 210.68C40.6574 211.377 40.3078 211.837 40.1468 212.017C39.9706 212.215 39.795 212.332 39.7125 212.384C39.54 212.493 39.386 212.553 39.3301 212.575C39.1935 212.627 39.0631 212.663 38.9869 212.682C38.8141 212.727 38.6049 212.771 38.3934 212.811C37.9583 212.894 37.3806 212.988 36.76 213.076C33.0496 213.599 30.5403 214.373 28.8148 215.421C27.1683 216.422 26.1469 217.725 25.4997 219.576C25.0534 220.852 24.2877 224.674 24.0442 227.013C23.9953 227.482 23.9331 227.941 23.8695 228.309C23.8383 228.489 23.8022 228.675 23.7613 228.84C23.7415 228.92 23.7127 229.028 23.6732 229.141C23.6727 229.142 23.6721 229.144 23.6712 229.147C23.6531 229.2 23.5447 229.522 23.2925 229.826L23.2894 229.83C22.97 230.212 22.331 230.652 21.4703 230.533C20.8019 230.44 20.4072 230.05 20.2918 229.929C20.0428 229.669 19.9197 229.395 19.895 229.34C19.894 229.338 19.8932 229.336 19.8925 229.334C19.8128 229.159 19.7591 228.982 19.7307 228.885C19.6622 228.652 19.5884 228.347 19.515 228.017C19.3645 227.341 19.182 226.407 19.0011 225.376L19.0011 225.375C17.8832 218.997 16.8838 217.21 15.0666 215.854L15.0665 215.854C14.5278 215.452 13.4866 214.871 12.8699 214.627L12.8698 214.627C11.4318 214.06 8.1495 213.259 6.03584 212.984L6.03581 212.984C5.61029 212.928 5.22977 212.865 4.91243 212.796C4.67133 212.743 4.24503 212.644 3.88232 212.447C3.78059 212.392 3.57291 212.271 3.36615 212.062C3.18273 211.877 2.73853 211.353 2.77387 210.538C2.81136 209.673 3.35075 209.17 3.61647 208.977C3.88461 208.783 4.14035 208.697 4.25654 208.661C4.67153 208.534 5.1416 208.527 5.41432 208.526C5.86996 208.525 7.16374 208.351 8.69787 208.065C10.1977 207.786 11.6275 207.456 12.3085 207.228L19.29 194.411ZM19.29 194.411C18.7105 198.377 17.8692 201.871 17.296 203.134L17.296 203.134M19.29 194.411L17.296 203.134M17.296 203.134C16.7807 204.269 16.2302 205.015 15.5351 205.597M17.296 203.134L15.5351 205.597M15.5351 205.597C14.82 206.195 13.8361 206.716 12.3085 207.228L15.5351 205.597ZM23.5785 227.79C23.5784 227.79 23.5775 227.788 23.5757 227.782C23.5776 227.787 23.5785 227.79 23.5785 227.79ZM37.989 208.809C37.9931 208.808 37.9955 208.807 37.9961 208.807C37.9968 208.807 37.9946 208.807 37.989 208.809Z" fill="#262121" stroke="#262121" stroke-width="4"/>
<path d="M69.5077 54.273C71.9463 54.5868 74.2629 54.9488 76.6283 55.1902C79.4758 55.2298 82.2643 54.3858 84.6024 52.7765C85.1047 52.5397 85.5254 52.1615 85.8117 51.6892C86.0979 51.2169 86.2371 50.6716 86.2118 50.1214C86.1436 49.5287 86.2068 48.9284 86.397 48.3623C86.5871 47.7962 86.8997 47.278 87.3129 46.8437C87.7261 46.4095 88.23 46.0696 88.7895 45.8478C89.349 45.626 89.9506 45.5276 90.5525 45.5595C93.6007 45.7526 94.6249 43.2907 95.4296 41.0459C96.9349 37.1855 97.2656 32.9734 96.3806 28.9292C98.7907 29.3761 101.013 30.5181 102.77 32.2118C106.296 35.0092 108.763 38.9054 109.768 43.2665C110.671 46.7012 110.671 50.3073 109.768 53.742C109.618 54.2429 109.626 54.7775 109.792 55.2737C109.957 55.77 110.273 56.2041 110.695 56.5177C117.569 62.7517 123.462 69.968 128.179 77.9272C130.675 81.9984 132.564 86.4045 133.788 91.0094C134.106 92.7865 134.155 94.6005 133.934 96.3919C133.935 96.7236 133.867 97.0519 133.734 97.3564C133.601 97.6608 133.406 97.9348 133.161 98.1613C132.916 98.3878 132.627 98.5619 132.311 98.6728C131.995 98.7836 131.659 98.8288 131.325 98.8056C128.191 98.8252 125.111 97.9901 122.424 96.3919C113.295 91.3555 105.264 84.5794 98.7948 76.4548C97.3317 74.7411 96.0148 72.9067 94.6736 71.0964C94.4364 70.6629 94.0629 70.3176 93.6097 70.1129C93.1565 69.9082 92.6483 69.8553 92.1619 69.962C89.7127 70.4915 87.1757 70.4806 84.7312 69.9299C82.2867 69.3793 79.9948 68.3024 78.0183 66.7759C73.7533 63.9562 70.7222 59.6455 69.5321 54.7074C69.5073 54.564 69.4991 54.4183 69.5077 54.273Z" fill="#262121"/>
<path fill-rule="evenodd" clip-rule="evenodd" d="M60.3824 50.1832C60.2388 49.8936 60.0978 49.6027 59.9592 49.3105C59.0388 47.4807 58.2736 45.5772 57.6716 43.6199C57.173 42.3443 57.0087 40.9629 57.1943 39.6058C57.3798 38.2487 57.9091 36.9607 58.7322 35.8633C59.4236 35.092 60.2773 34.4824 61.2323 34.0781C62.1874 33.6738 63.2201 33.4848 64.2565 33.5247C64.9669 33.5631 65.6772 33.4611 66.3678 33.3618L66.169 33.2789C59.0809 30.3217 52.0254 27.378 44.3367 26.4948L44.2778 26.4863C40.7404 25.9769 37.2418 25.4731 33.755 26.9917C32.6249 27.3958 31.6179 28.0828 30.8307 28.9865C30.0436 29.8902 29.5028 30.9802 29.2603 32.1518C28.689 35.7289 29.2506 39.3933 30.867 42.6352C32.3212 46.0256 34.0629 49.2859 36.0732 52.3808C38.7974 56.6243 41.6934 60.8029 44.8206 64.7678C47.6938 68.4308 50.7552 71.9353 53.8137 75.4365L53.8155 75.4386C54.5218 76.2471 55.2279 77.0554 55.9314 77.8654C45.0953 92.2668 39.7718 110.812 42.5372 130.062C48.0509 168.442 83.6341 195.086 122.015 189.572C135.697 187.606 147.888 181.819 157.663 173.445C157.764 173.538 157.867 173.66 157.976 173.812C158.408 174.427 158.885 175.008 159.361 175.587L159.361 175.587C159.943 176.295 160.523 177.002 161.021 177.769C161.299 178.201 161.577 178.634 161.855 179.066L161.856 179.066C163.942 182.307 166.029 185.548 167.885 188.821C168.592 190.093 169.08 191.484 169.569 192.879L169.569 192.879C169.888 193.787 170.207 194.697 170.587 195.576C171.158 197.245 171.242 199.042 170.828 200.758C170.313 204.323 165.606 205.902 162.934 205.524C162.666 205.502 162.396 205.501 162.128 205.519C162.504 206.044 163.024 206.449 163.625 206.688L164.31 206.954C171.779 209.854 179.24 212.751 187.344 213.534C190.361 214.094 193.477 213.765 196.311 212.587C197.905 211.906 199.168 210.629 199.828 209.032C200.546 207.084 200.71 204.978 200.303 202.944C199.916 200.605 199.21 198.33 198.204 196.183C196.195 192.01 193.926 187.967 191.41 184.077C185.298 175.235 178.496 166.887 171.068 159.111C170.912 158.992 170.778 158.847 170.672 158.684C179.782 144.858 184.065 127.773 181.525 110.094C176.906 77.9405 151.182 54.024 120.389 50.3525C120.36 50.8356 120.319 51.3183 120.267 51.8C126.649 58.046 132.19 65.0928 136.745 72.7668C139.726 77.6437 141.985 82.9218 143.452 88.4399C143.523 88.7078 143.584 88.9785 143.632 89.2514C144.099 91.8669 144.193 94.5341 143.91 97.1743C143.819 98.6182 143.477 100.036 142.897 101.362C142.209 102.935 141.205 104.343 139.952 105.502C138.699 106.661 137.224 107.547 135.623 108.109C134.174 108.617 132.646 108.853 131.117 108.806C126.319 108.788 121.606 107.504 117.464 105.076C107.287 99.4399 98.3208 91.8779 91.0756 82.8143C90.3848 81.9992 89.7199 81.1607 89.0945 80.3454C86.8951 80.3918 84.6917 80.1719 82.5336 79.6857C78.7917 78.8428 75.2695 77.2184 72.2026 74.9166C65.9999 70.7087 61.5694 64.3491 59.8105 57.0507C59.7597 56.8402 59.7159 56.6282 59.6789 56.4149C59.5225 55.5124 59.4709 54.5944 59.5254 53.6791C59.598 52.4588 59.8926 51.2759 60.3824 50.1832ZM72.8243 61.8186C81.3254 56.0887 91.2194 52.1397 102.048 50.5841C104.85 50.1816 107.637 49.9504 110.399 49.8827C110.312 51.1811 110.102 52.4734 109.768 53.7422C109.618 54.2432 109.626 54.7778 109.792 55.274C109.957 55.7703 110.273 56.2044 110.695 56.518C117.569 62.752 123.462 69.9682 128.179 77.9274C130.675 81.9986 132.564 86.4047 133.788 91.0097C134.105 92.7868 134.155 94.6007 133.934 96.3922C133.935 96.7239 133.867 97.0522 133.734 97.3566C133.601 97.6611 133.406 97.9351 133.161 98.1616C132.916 98.3881 132.627 98.5622 132.311 98.673C131.995 98.7839 131.659 98.8291 131.325 98.8059C128.191 98.8255 125.111 97.9904 122.424 96.3922C113.295 91.3557 105.264 84.5797 98.7948 76.4551C97.5541 75.0019 96.4186 73.4619 95.2842 71.9235L95.2841 71.9233C95.0808 71.6476 94.8775 71.3719 94.6736 71.0967C94.4364 70.6631 94.0629 70.3179 93.6097 70.1132C93.1565 69.9085 92.6482 69.8555 92.1619 69.9623C89.7127 70.4918 87.1757 70.4808 84.7312 69.9302C82.2867 69.3795 79.9948 68.3027 78.0183 66.7762C77.272 66.2828 76.5634 65.7437 75.8959 65.1636C75.808 65.0872 75.7208 65.01 75.6342 64.9322C74.5879 63.9907 73.6469 62.9466 72.8243 61.8186Z" fill="#262121"/>
<path d="M327.558 129.496V128.855C327.542 128.264 327.431 127.679 327.229 127.124C327.166 126.86 327.015 126.625 326.801 126.458C326.588 126.291 326.323 126.202 326.052 126.206H304.756C302.716 126.246 300.706 125.706 298.96 124.648C297.248 123.624 295.745 122.284 294.532 120.7C293.301 119.143 292.347 117.386 291.712 115.505C291.091 113.682 290.769 111.77 290.76 109.843C290.832 107.825 291.34 105.846 292.248 104.043C293.265 101.833 294.549 99.7574 296.071 97.8613C297.582 95.9554 299.379 94.2964 301.4 92.9439C303.153 91.7178 305.23 91.0372 307.368 90.9873H361.691C359.971 93.5067 358.105 95.9234 356.103 98.2249C353.918 100.757 351.609 103.178 349.183 105.48H314.029C313.233 105.48 312.576 106.017 312.005 107.073C311.524 107.85 311.228 108.726 311.14 109.635V110.172C311.14 110.172 311.295 110.397 311.572 110.657L312.212 111.228C312.57 111.57 312.986 111.846 313.441 112.042C313.729 112.191 314.03 112.312 314.34 112.406H334.581C336.654 112.307 338.709 112.831 340.481 113.912C342.093 114.999 343.45 116.423 344.46 118.085C345.496 119.753 346.272 121.568 346.761 123.47C347.235 125.203 347.485 126.989 347.505 128.786V129.496C347.463 131.534 347.028 133.544 346.224 135.417C345.38 137.503 344.25 139.46 342.868 141.235C341.528 142.964 339.908 144.456 338.076 145.651C336.424 146.765 334.48 147.367 332.488 147.382H278.2C278.842 146.177 279.571 145.019 280.38 143.919C281.487 142.343 282.646 140.768 283.84 139.175C285.034 137.582 286.245 136.145 287.3 134.898C288.355 133.651 289.03 133.045 289.22 133.045H325.43C326.485 133.045 327.16 132.716 327.281 132.076C327.462 131.416 327.555 130.734 327.558 130.05V129.496Z" fill="#262121"/>
<path d="M379.527 105.255H359.39C359.809 104.408 360.332 103.617 360.947 102.9C361.898 101.618 363.04 100.199 364.407 98.6402C365.773 97.0819 367.071 95.5582 368.455 94.1037C369.518 92.9251 370.714 91.8735 372.019 90.9697H425.251C424.555 92.3341 423.745 93.6374 422.829 94.8656C421.653 96.4759 420.407 98.0515 419.093 99.6099C417.904 100.996 416.627 102.303 415.269 103.523C414.024 104.666 413.124 105.255 412.553 105.255H399.976L384.648 147.364H364.182L379.527 105.255Z" fill="#262121"/>
<path d="M491.476 90.9179C490.746 92.2984 489.907 93.6185 488.967 94.8657C487.791 96.476 486.563 98.0516 485.248 99.61C484.059 101.001 482.775 102.308 481.407 103.523C480.162 104.666 479.262 105.255 478.691 105.255H445.821L439.748 121.981L449.938 112.181H474.539L459.298 126.569H438.105L435.769 132.959H476.563C476.563 133.097 476.304 133.391 476.027 133.859C475.75 134.326 475.456 134.794 475.179 135.296C474.902 135.798 474.608 136.248 474.331 136.681C474.167 136.939 473.988 137.188 473.795 137.426C472.984 138.469 472.112 139.464 471.183 140.404C470.076 141.547 469.003 142.638 467.93 143.659C466.858 144.681 465.924 145.564 465.11 146.274C464.701 146.673 464.255 147.032 463.778 147.347H410.148L430.7 90.8486L491.476 90.9179Z" fill="#262121"/>
<path d="M476.772 147.417L497.325 90.918H517.67L502.342 132.959H536.094C535.753 133.577 535.347 134.157 534.883 134.69C533.984 135.902 532.876 137.305 531.527 138.898C530.178 140.491 528.759 142.101 527.254 143.694C526.104 144.979 524.861 146.177 523.534 147.278L476.772 147.417Z" fill="#262121"/>
<path d="M536.423 147.417L556.975 90.918H577.32L561.923 132.959H595.693C595.348 133.579 594.936 134.16 594.465 134.69C593.582 135.902 592.458 137.305 591.108 138.898C589.759 140.491 588.34 142.101 586.853 143.694C585.703 144.979 584.46 146.177 583.133 147.278L536.423 147.417Z" fill="#262121"/>
<path d="M650.603 147.417L648.371 135.296C647.953 136.17 647.43 136.99 646.814 137.738C645.932 138.95 644.946 140.231 643.838 141.582C642.731 142.932 641.659 144.179 640.586 145.322C639.923 146.12 639.134 146.804 638.25 147.348H593.27C593.308 147.092 593.377 146.841 593.478 146.603V146.274L631.815 97.2381C632.175 96.6143 632.604 96.0334 633.095 95.5067C633.735 94.8141 634.427 94.1041 635.171 93.4289C635.885 92.8064 636.636 92.2282 637.42 91.6974C637.944 91.254 638.589 90.9767 639.271 90.9009H657.073C657.468 90.9238 657.851 91.0411 658.191 91.243C658.532 91.4448 658.818 91.7253 659.028 92.061C659.684 92.9445 660.208 93.9185 660.585 94.9526C661.018 96.1206 661.388 97.3113 661.692 98.5194C662.021 99.7661 662.28 100.805 662.505 101.671L669.529 147.399L650.603 147.417ZM626.746 133.132H648.423L644.686 108.077L626.746 132.058V133.132Z" fill="#262121"/>
<path d="M695.013 90.9181H742.519C744.518 90.7914 746.509 91.2641 748.238 92.2758C749.967 93.2874 751.355 94.7921 752.225 96.5974C753.054 98.2718 753.592 100.075 753.816 101.93C754.049 103.699 754.17 105.48 754.18 107.263C754.308 110.458 753.377 113.605 751.533 116.215C749.757 118.553 747.481 120.464 744.872 121.808C742.09 123.237 739.111 124.241 736.032 124.786C733.018 125.365 729.974 125.775 726.915 126.015L747.796 147.451H725.063L703.109 127.193L701.933 128.041L694.909 147.451H674.46L695.013 90.9181ZM733.575 107.229C733.59 106.726 733.483 106.227 733.264 105.774C733.045 105.393 732.508 105.203 731.655 105.203H710.254L704.182 121.825L713.559 112.337H730.599C731.081 112.358 731.557 112.232 731.966 111.975C732.374 111.718 732.694 111.343 732.883 110.9C733.299 110.125 733.535 109.267 733.575 108.389V107.229Z" fill="#262121"/>
</svg>
