<svg width="198" height="47" viewBox="0 0 198 47" fill="none" xmlns="http://www.w3.org/2000/svg">
<path d="M72.5091 25.9386V25.7502C72.5046 25.5764 72.472 25.4044 72.4124 25.2411C72.3939 25.1635 72.3496 25.0945 72.2867 25.0454C72.2239 24.9964 72.1462 24.9702 72.0665 24.9712H65.8046C65.2046 24.9831 64.6137 24.8242 64.1005 24.513C63.597 24.212 63.1551 23.8181 62.7982 23.3522C62.4364 22.8945 62.1559 22.3778 61.9691 21.8249C61.7865 21.2887 61.692 20.7265 61.6893 20.1601C61.7106 19.5666 61.8598 18.9848 62.1268 18.4545C62.4257 17.8049 62.8033 17.1944 63.251 16.6369C63.6951 16.0765 64.2237 15.5887 64.8177 15.191C65.3334 14.8305 65.9439 14.6304 66.5727 14.6157L82.5455 14.6157C82.0397 15.3565 81.491 16.0671 80.9024 16.7438C80.26 17.4883 79.5809 18.2003 78.8676 18.8771L68.5311 18.8771C68.2971 18.8771 68.1038 19.0349 67.936 19.3455C67.7947 19.5739 67.7077 19.8316 67.6816 20.099V20.2568C67.6816 20.2568 67.7274 20.323 67.8088 20.3993L67.997 20.5673C68.1023 20.6678 68.2246 20.7489 68.3582 20.8066C68.4429 20.8503 68.5314 20.8861 68.6227 20.9136L74.5743 20.9136C75.1838 20.8843 75.788 21.0386 76.309 21.3565C76.7829 21.6761 77.182 22.0947 77.4789 22.5835C77.7836 23.0738 78.0117 23.6077 78.1555 24.1668C78.295 24.6763 78.3685 25.2016 78.3742 25.7298V25.9386C78.362 26.5378 78.2341 27.1291 77.9978 27.6798C77.7494 28.2929 77.4173 28.8686 77.0109 29.3904C76.6168 29.8987 76.1406 30.3375 75.6019 30.6887C75.1161 31.0163 74.5446 31.1934 73.9588 31.1978L57.9962 31.1978C58.1851 30.8434 58.3993 30.5031 58.6372 30.1796C58.9627 29.7163 59.3035 29.253 59.6545 28.7846C60.0055 28.3162 60.3616 27.8936 60.6719 27.527C60.9822 27.1605 61.1806 26.9823 61.2366 26.9823H71.8834C72.1937 26.9823 72.3921 26.8855 72.4277 26.6972C72.481 26.5031 72.5084 26.3028 72.5091 26.1015V25.9386Z" fill="#101010"/>
<path d="M87.7899 18.8106H81.8688C81.992 18.5616 82.1458 18.329 82.3266 18.1182C82.6064 17.7414 82.9421 17.324 83.344 16.8658C83.7458 16.4076 84.1273 15.9595 84.5343 15.5319C84.847 15.1853 85.1986 14.8761 85.5822 14.6104L101.235 14.6104C101.03 15.0115 100.791 15.3947 100.522 15.7559C100.176 16.2294 99.8102 16.6927 99.4236 17.1509C99.0742 17.5585 98.6987 17.9428 98.2994 18.3015C97.9331 18.6375 97.6686 18.8106 97.5007 18.8106L93.8026 18.8106L89.2956 31.1924H83.2778L87.7899 18.8106Z" fill="#101010"/>
<path d="M120.707 14.5951C120.492 15.001 120.246 15.3891 119.97 15.7559C119.624 16.2294 119.263 16.6927 118.876 17.1509C118.526 17.5598 118.149 17.9443 117.747 18.3015C117.38 18.6375 117.116 18.8106 116.948 18.8106L107.283 18.8106L105.497 23.7287L108.494 20.8471L115.727 20.8471L111.246 25.0779H105.014L104.327 26.9565L116.322 26.9565C116.322 26.9973 116.246 27.0838 116.165 27.2213C116.083 27.3588 115.997 27.4962 115.915 27.6439C115.834 27.7915 115.747 27.9239 115.666 28.0512C115.618 28.127 115.565 28.2001 115.508 28.2701C115.27 28.5769 115.013 28.8694 114.74 29.1458C114.415 29.4818 114.099 29.8025 113.784 30.1029C113.469 30.4033 113.194 30.663 112.955 30.8717C112.834 30.989 112.703 31.0947 112.563 31.1874L96.7938 31.1874L102.837 14.5747L120.707 14.5951Z" fill="#101010"/>
<path d="M116.383 31.2078L122.427 14.5952H128.409L123.902 26.9567L133.826 26.9567C133.726 27.1385 133.607 27.3092 133.47 27.4658C133.206 27.8222 132.88 28.2346 132.483 28.703C132.087 29.1714 131.669 29.6448 131.227 30.1132C130.889 30.4911 130.523 30.8433 130.133 31.1671L116.383 31.2078Z" fill="#101010"/>
<path d="M133.923 31.2078L139.966 14.5952H145.948L141.421 26.9567L151.35 26.9567C151.249 27.1391 151.128 27.3098 150.989 27.4658C150.73 27.8222 150.399 28.2346 150.002 28.703C149.606 29.1714 149.189 29.6448 148.751 30.1132C148.413 30.4911 148.047 30.8433 147.657 31.1671L133.923 31.2078Z" fill="#101010"/>
<path d="M167.496 31.2076L166.84 27.6437C166.717 27.9007 166.563 28.1417 166.382 28.3616C166.123 28.718 165.833 29.0947 165.507 29.4918C165.182 29.8889 164.866 30.2555 164.551 30.5915C164.356 30.8263 164.124 31.0275 163.864 31.1872L150.638 31.1872C150.649 31.112 150.67 31.0384 150.699 30.9683V30.8715L161.972 16.4532C162.078 16.2698 162.204 16.099 162.348 15.9441C162.536 15.7405 162.74 15.5317 162.959 15.3332C163.168 15.1501 163.389 14.9801 163.62 14.824C163.774 14.6937 163.964 14.6121 164.164 14.5898L169.399 14.5898C169.515 14.5966 169.627 14.6311 169.727 14.6904C169.827 14.7498 169.912 14.8323 169.973 14.931C170.166 15.1907 170.32 15.4771 170.431 15.7812C170.559 16.1246 170.667 16.4747 170.757 16.83C170.853 17.1965 170.93 17.502 170.996 17.7566L173.061 31.2025L167.496 31.2076ZM160.481 27.0073H166.855L165.756 19.6403L160.481 26.6917V27.0073Z" fill="#101010"/>
<path d="M180.554 14.5953L194.523 14.5953C195.111 14.558 195.696 14.697 196.204 14.9945C196.713 15.2919 197.121 15.7344 197.377 16.2652C197.62 16.7575 197.779 17.2878 197.845 17.8333C197.913 18.3532 197.949 18.877 197.951 19.4014C197.989 20.3407 197.716 21.2661 197.173 22.0336C196.651 22.7209 195.982 23.2828 195.215 23.678C194.397 24.0982 193.521 24.3933 192.615 24.5537C191.729 24.7239 190.834 24.8446 189.934 24.9152L196.074 31.2181H189.39L182.935 25.2614L182.589 25.5109L180.524 31.2181H174.511L180.554 14.5953ZM191.893 19.3912C191.897 19.2433 191.866 19.0966 191.801 18.9635C191.737 18.8515 191.579 18.7955 191.328 18.7955L185.036 18.7955L183.25 23.6831L186.007 20.8931L191.018 20.8931C191.16 20.8994 191.3 20.8623 191.42 20.7868C191.54 20.7113 191.634 20.601 191.689 20.4705C191.812 20.2428 191.881 19.9905 191.893 19.7323V19.3912Z" fill="#101010"/>
<path d="M2.41205 28.1428C3.45996 28.1428 4.30945 27.2926 4.30945 26.2438C4.30945 25.1949 3.45996 24.3447 2.41205 24.3447C1.36414 24.3447 0.514648 25.1949 0.514648 26.2438C0.514648 27.2926 1.36414 28.1428 2.41205 28.1428Z" fill="#101010"/>
<path d="M41.9371 34.3747C42.985 34.3747 43.8345 33.5245 43.8345 32.4757C43.8345 31.4269 42.985 30.5767 41.9371 30.5767C40.8892 30.5767 40.0397 31.4269 40.0397 32.4757C40.0397 33.5245 40.8892 34.3747 41.9371 34.3747Z" fill="#101010"/>
<path d="M18.5881 46.9549C21.052 46.9549 23.0493 44.9559 23.0493 42.4899C23.0493 40.024 21.052 38.0249 18.5881 38.0249C16.1243 38.0249 14.127 40.024 14.127 42.4899C14.127 44.9559 16.1243 46.9549 18.5881 46.9549Z" fill="#101010"/>
<path d="M38.6407 12.7727C40.1297 12.7727 41.3368 11.5646 41.3368 10.0743C41.3368 8.58407 40.1297 7.37598 38.6407 7.37598C37.1518 7.37598 35.9447 8.58407 35.9447 10.0743C35.9447 11.5646 37.1518 12.7727 38.6407 12.7727Z" fill="#101010"/>
<path d="M29.0265 26.4933C28.1362 25.4038 26.7323 23.8 25.6335 22.7003C24.9247 21.9434 24.1973 21.1831 23.4512 20.4195C16.0295 12.523 11.6039 5.15599 13.3843 3.37406C13.8014 2.95658 14.5289 2.86494 15.5005 3.10423C11.5378 0.721537 8.56196 -0.169426 7.41232 0.991372C4.95028 3.44534 11.8888 14.3915 22.8968 25.4292L23.0341 25.5769V25.6023L23.4868 26.1114C23.6191 26.2642 23.7412 26.4067 23.8429 26.5086C30.2066 33.6617 33.8081 40.0156 32.1701 41.6498C31.753 42.0673 31.0256 42.159 30.0591 41.9146C34.0218 44.3024 36.9976 45.1882 38.1421 44.0427C40.0904 42.0979 36.1786 34.8734 29.0265 26.4933Z" fill="#101010"/>
<path d="M21.1623 8.88274L21.3861 9.16784C21.8785 9.78083 22.4032 10.3671 22.9579 10.9243C26.3967 14.3609 29.169 15.038 29.5403 14.7733C29.7947 14.4118 29.1181 11.6371 25.6794 8.19542C25.122 7.63724 24.5326 7.11196 23.9143 6.62223L23.6294 6.39822L23.721 6.04693C23.8984 5.3573 23.8937 4.63336 23.7073 3.94611C23.5209 3.25886 23.1593 2.63189 22.6578 2.12669C22.3585 1.83118 22.0154 1.58387 21.6404 1.39355C21.8388 3.02784 21.5794 4.00026 20.8621 4.41265C20.6384 4.53689 20.39 4.60992 20.1347 4.62648C19.9818 4.62353 19.8319 4.66994 19.7074 4.75885C19.556 4.91407 19.4641 5.1178 19.448 5.33416C19.4004 5.62304 19.2967 5.89979 19.1428 6.14875C18.6697 6.84116 17.7083 7.09572 16.1466 6.92262C16.5762 7.73798 17.2695 8.38336 18.1131 8.75327C18.9567 9.12319 19.9008 9.19575 20.7909 8.9591L21.1623 8.88274Z" fill="#101010"/>
<path d="M20.8112 8.97465L21.1622 8.883L21.386 9.16811C21.8785 9.7811 22.4031 10.3674 22.9579 10.9246C26.3966 14.3612 29.1689 15.0383 29.5403 14.7735C29.7946 14.4121 29.1232 11.6577 25.72 8.23133C24.7523 8.03465 23.7673 7.93573 22.7798 7.93604C21.1735 7.93552 19.5782 8.2022 18.0592 8.72518C18.9206 9.12248 19.8925 9.21058 20.8112 8.97465V8.97465Z" fill="#101010"/>
<path d="M27.7751 8.81689C28.6832 9.86346 29.4542 11.0217 30.0693 12.2636C30.8069 13.8267 30.8984 15.0027 30.3287 15.5729C30.1867 15.6997 30.021 15.797 29.841 15.8591C29.6611 15.9211 29.4707 15.9467 29.2808 15.9344C27.6072 15.9344 24.7331 14.29 22.1592 11.7189C21.6505 11.2098 21.1723 10.7006 20.7247 10.1457C20.0338 10.2705 19.325 10.2556 18.64 10.1017C17.955 9.94777 17.3078 9.65806 16.7366 9.24965C13.6681 10.6511 11.181 13.0755 9.70025 16.1086C8.21947 19.1416 7.83685 22.5952 8.61776 25.8792C9.39867 29.1633 11.2947 32.074 13.9818 34.1143C16.669 36.1546 19.9806 37.1977 23.3509 37.0655C26.7212 36.9333 29.9411 35.634 32.4605 33.3895C34.9799 31.1451 36.6425 28.0947 37.1642 24.7596C37.6859 21.4244 37.0345 18.0114 35.3211 15.1037C33.6077 12.1959 30.9387 9.97376 27.77 8.81689H27.7751Z" fill="#101010"/>
</svg>
