<svg width="138" height="62" viewBox="0 0 138 62" fill="none" xmlns="http://www.w3.org/2000/svg">
<path d="M93.875 23.5C93.875 23.0027 94.0725 22.5258 94.4242 22.1742C94.7758 21.8225 95.2527 21.625 95.75 21.625H99.5C99.9973 21.625 100.474 21.8225 100.826 22.1742C101.177 22.5258 101.375 23.0027 101.375 23.5V27.25C101.375 27.7473 101.177 28.2242 100.826 28.5758C100.474 28.9275 99.9973 29.125 99.5 29.125H95.75C95.2527 29.125 94.7758 28.9275 94.4242 28.5758C94.0725 28.2242 93.875 27.7473 93.875 27.25V23.5ZM103.25 23.5C103.25 23.0027 103.448 22.5258 103.799 22.1742C104.151 21.8225 104.628 21.625 105.125 21.625H108.875C109.372 21.625 109.849 21.8225 110.201 22.1742C110.552 22.5258 110.75 23.0027 110.75 23.5V27.25C110.75 27.7473 110.552 28.2242 110.201 28.5758C109.849 28.9275 109.372 29.125 108.875 29.125H105.125C104.628 29.125 104.151 28.9275 103.799 28.5758C103.448 28.2242 103.25 27.7473 103.25 27.25V23.5ZM112.625 23.5C112.625 23.0027 112.823 22.5258 113.174 22.1742C113.526 21.8225 114.003 21.625 114.5 21.625H118.25C118.747 21.625 119.224 21.8225 119.576 22.1742C119.927 22.5258 120.125 23.0027 120.125 23.5V27.25C120.125 27.7473 119.927 28.2242 119.576 28.5758C119.224 28.9275 118.747 29.125 118.25 29.125H114.5C114.003 29.125 113.526 28.9275 113.174 28.5758C112.823 28.2242 112.625 27.7473 112.625 27.25V23.5ZM93.875 32.875C93.875 32.3777 94.0725 31.9008 94.4242 31.5492C94.7758 31.1975 95.2527 31 95.75 31H99.5C99.9973 31 100.474 31.1975 100.826 31.5492C101.177 31.9008 101.375 32.3777 101.375 32.875V36.625C101.375 37.1223 101.177 37.5992 100.826 37.9508C100.474 38.3025 99.9973 38.5 99.5 38.5H95.75C95.2527 38.5 94.7758 38.3025 94.4242 37.9508C94.0725 37.5992 93.875 37.1223 93.875 36.625V32.875ZM103.25 32.875C103.25 32.3777 103.448 31.9008 103.799 31.5492C104.151 31.1975 104.628 31 105.125 31H108.875C109.372 31 109.849 31.1975 110.201 31.5492C110.552 31.9008 110.75 32.3777 110.75 32.875V36.625C110.75 37.1223 110.552 37.5992 110.201 37.9508C109.849 38.3025 109.372 38.5 108.875 38.5H105.125C104.628 38.5 104.151 38.3025 103.799 37.9508C103.448 37.5992 103.25 37.1223 103.25 36.625V32.875ZM112.625 32.875C112.625 32.3777 112.823 31.9008 113.174 31.5492C113.526 31.1975 114.003 31 114.5 31H118.25C118.747 31 119.224 31.1975 119.576 31.5492C119.927 31.9008 120.125 32.3777 120.125 32.875V36.625C120.125 37.1223 119.927 37.5992 119.576 37.9508C119.224 38.3025 118.747 38.5 118.25 38.5H114.5C114.003 38.5 113.526 38.3025 113.174 37.9508C112.823 37.5992 112.625 37.1223 112.625 36.625V32.875Z" fill="#FFDADA"/>
<path d="M21.25 22C20.6533 22 20.081 22.2371 19.659 22.659C19.2371 23.081 19 23.6533 19 24.25V27.25C19 27.8467 19.2371 28.419 19.659 28.841C20.081 29.2629 20.6533 29.5 21.25 29.5H24.25C24.8467 29.5 25.419 29.2629 25.841 28.841C26.2629 28.419 26.5 27.8467 26.5 27.25V24.25C26.5 23.6533 26.2629 23.081 25.841 22.659C25.419 22.2371 24.8467 22 24.25 22H21.25ZM30.25 23.5C30.0511 23.5 29.8603 23.579 29.7197 23.7197C29.579 23.8603 29.5 24.0511 29.5 24.25C29.5 24.4489 29.579 24.6397 29.7197 24.7803C29.8603 24.921 30.0511 25 30.25 25H42.25C42.4489 25 42.6397 24.921 42.7803 24.7803C42.921 24.6397 43 24.4489 43 24.25C43 24.0511 42.921 23.8603 42.7803 23.7197C42.6397 23.579 42.4489 23.5 42.25 23.5H30.25ZM30.25 26.5C30.0511 26.5 29.8603 26.579 29.7197 26.7197C29.579 26.8603 29.5 27.0511 29.5 27.25C29.5 27.4489 29.579 27.6397 29.7197 27.7803C29.8603 27.921 30.0511 28 30.25 28H39.25C39.4489 28 39.6397 27.921 39.7803 27.7803C39.921 27.6397 40 27.4489 40 27.25C40 27.0511 39.921 26.8603 39.7803 26.7197C39.6397 26.579 39.4489 26.5 39.25 26.5H30.25ZM21.25 32.5C20.6533 32.5 20.081 32.7371 19.659 33.159C19.2371 33.581 19 34.1533 19 34.75V37.75C19 38.3467 19.2371 38.919 19.659 39.341C20.081 39.7629 20.6533 40 21.25 40H24.25C24.8467 40 25.419 39.7629 25.841 39.341C26.2629 38.919 26.5 38.3467 26.5 37.75V34.75C26.5 34.1533 26.2629 33.581 25.841 33.159C25.419 32.7371 24.8467 32.5 24.25 32.5H21.25ZM30.25 34C30.0511 34 29.8603 34.079 29.7197 34.2197C29.579 34.3603 29.5 34.5511 29.5 34.75C29.5 34.9489 29.579 35.1397 29.7197 35.2803C29.8603 35.421 30.0511 35.5 30.25 35.5H42.25C42.4489 35.5 42.6397 35.421 42.7803 35.2803C42.921 35.1397 43 34.9489 43 34.75C43 34.5511 42.921 34.3603 42.7803 34.2197C42.6397 34.079 42.4489 34 42.25 34H30.25ZM30.25 37C30.0511 37 29.8603 37.079 29.7197 37.2197C29.579 37.3603 29.5 37.5511 29.5 37.75C29.5 37.9489 29.579 38.1397 29.7197 38.2803C29.8603 38.421 30.0511 38.5 30.25 38.5H39.25C39.4489 38.5 39.6397 38.421 39.7803 38.2803C39.921 38.1397 40 37.9489 40 37.75C40 37.5511 39.921 37.3603 39.7803 37.2197C39.6397 37.079 39.4489 37 39.25 37H30.25Z" fill="#FFDADA"/>
</svg>
